Source-HROTd_VROTn.ufo
<glyph name="exclam" format="2">
  <advance width="289"/>
  <unicode hex="0021"/>
  <outline>
    <contour>
      <point x="98.98682947082315" y="297.83501706841736" type="curve"/>
      <point x="91.0" y="305.37615433949867" type="line"/>
      <point x="198.0" y="305.37615433949867" type="line"/>
      <point x="190.01317052917685" y="297.83501706841736" type="line"/>
      <point x="203.09371564166483" y="525.5111315461227"/>
      <point x="211.47280287897567" y="552.5406860427348"/>
      <point x="230.59052265876574" y="599.4988846537617" type="curve"/>
      <point x="238.0" y="588.4823227814084" type="line"/>
      <point x="51.0" y="588.4823227814084" type="line"/>
      <point x="58.40947734123426" y="599.4988846537617" type="line"/>
      <point x="77.52719712102434" y="552.5406860427348"/>
      <point x="85.90628435833521" y="525.5111315461227"/>
    </contour>
    <contour>
      <point x="64.0" y="107.64971157455597" type="line" smooth="yes"/>
      <point x="59.581722001353654" y="107.64971157455597"/>
      <point x="56.0" y="111.23143357590962"/>
      <point x="56.0" y="115.64971157455597" type="curve" smooth="yes"/>
      <point x="56.0" y="229.49390334559013" type="line" smooth="yes"/>
      <point x="56.0" y="233.91218134423647"/>
      <point x="59.581722001353654" y="237.49390334559013"/>
      <point x="64.0" y="237.49390334559013" type="curve" smooth="yes"/>
      <point x="225.0" y="237.49390334559013" type="line" smooth="yes"/>
      <point x="229.41827799864635" y="237.49390334559013"/>
      <point x="233.0" y="233.91218134423647"/>
      <point x="233.0" y="229.49390334559013" type="curve" smooth="yes"/>
      <point x="233.0" y="115.64971157455597" type="line" smooth="yes"/>
      <point x="233.0" y="111.23143357590962"/>
      <point x="229.41827799864635" y="107.64971157455597"/>
      <point x="225.0" y="107.64971157455597" type="curve" smooth="yes"/>
    </contour>
    <contour>
      <point x="83.01317052917685" y="296.91729161058" type="curve" smooth="yes"/>
      <point x="70.08989031328998" y="521.8560996309504"/>
      <point x="62.47839374352345" y="547.0721317548537"/>
      <point x="43.59052265876574" y="593.465760909055" type="curve" smooth="yes"/>
      <point x="41.448513255973836" y="598.7271050505943"/>
      <point x="45.319335738018026" y="604.4823227814084"/>
      <point x="51.0" y="604.4823227814084" type="curve" smooth="yes"/>
      <point x="238.0" y="604.4823227814084" type="line" smooth="yes"/>
      <point x="243.6806642619822" y="604.4823227814084"/>
      <point x="247.55148674402625" y="598.7271050505946"/>
      <point x="245.40947734123426" y="593.465760909055" type="curve" smooth="yes"/>
      <point x="226.52160625647647" y="547.0721317548537"/>
      <point x="218.91010968671003" y="521.8560996309504"/>
      <point x="205.98682947082315" y="296.91729161058" type="curve" smooth="yes"/>
      <point x="205.74363052511157" y="292.6842424120551"/>
      <point x="202.2400296277653" y="289.37615433949867"/>
      <point x="198.0" y="289.37615433949867" type="curve" smooth="yes"/>
      <point x="91.0" y="289.37615433949867" type="line" smooth="yes"/>
      <point x="86.75997037223476" y="289.37615433949867"/>
      <point x="83.25636947488842" y="292.68424241205514"/>
    </contour>
    <contour>
      <point x="64.0" y="123.64971157455597" type="line"/>
      <point x="225.0" y="123.64971157455597" type="line"/>
      <point x="217.0" y="115.64971157455597" type="line"/>
      <point x="217.0" y="229.49390334559013" type="line"/>
      <point x="225.0" y="221.49390334559013" type="line"/>
      <point x="64.0" y="221.49390334559013" type="line"/>
      <point x="72.0" y="229.49390334559013" type="line"/>
      <point x="72.0" y="115.64971157455597" type="line"/>
    </contour>
  </outline>
</glyph>
<glyph name="quotedbl" format="2">
  <advance width="518"/>
  <unicode hex="0022"/>
  <outline>
    <contour>
      <point x="105.886183867188" y="398.4228680688293" type="line"/>
      <point x="98.0" y="405.0782104868019" type="line"/>
      <point x="199.0" y="405.0782104868019" type="line"/>
      <point x="191.11381613281202" y="398.4228680688293" type="line"/>
      <point x="225.11381613281202" y="597.8269803634358" type="line"/>
      <point x="233.0" y="588.4823227814084" type="line"/>
      <point x="64.0" y="588.4823227814084" type="line"/>
      <point x="71.886183867188" y="597.8269803634358" type="line"/>
    </contour>
    <contour>
      <point x="326.886183867188" y="398.4228680688293" type="line"/>
      <point x="319.0" y="405.0782104868019" type="line"/>
      <point x="420.0" y="405.0782104868019" type="line"/>
      <point x="412.113816132812" y="398.4228680688293" type="line"/>
      <point x="446.113816132812" y="597.8269803634358" type="line"/>
      <point x="454.0" y="588.4823227814084" type="line"/>
      <point x="285.0" y="588.4823227814084" type="line"/>
      <point x="292.886183867188" y="597.8269803634358" type="line"/>
    </contour>
    <contour>
      <point x="90.113816132812" y="395.73355290477446" type="curve" smooth="yes"/>
      <point x="56.113816132812005" y="595.1376651993809" type="line" smooth="yes"/>
      <point x="55.280864521846674" y="600.0227821572898"/>
      <point x="59.044379344758184" y="604.4823227814084"/>
      <point x="64.0" y="604.4823227814084" type="curve" smooth="yes"/>
      <point x="233.0" y="604.4823227814084" type="line" smooth="yes"/>
      <point x="237.95562065524206" y="604.4823227814084"/>
      <point x="241.71913547815336" y="600.0227821572901"/>
      <point x="240.88618386718798" y="595.1376651993809" type="curve" smooth="yes"/>
      <point x="206.88618386718798" y="395.73355290477446" type="line" smooth="yes"/>
      <point x="206.23076116564795" y="391.88961225835317"/>
      <point x="202.8994177271618" y="389.0782104868019"/>
      <point x="199.0" y="389.0782104868019" type="curve" smooth="yes"/>
      <point x="98.0" y="389.0782104868019" type="line" smooth="yes"/>
      <point x="94.10058227283814" y="389.0782104868019"/>
      <point x="90.76923883435205" y="391.8896122583531"/>
    </contour>
    <contour>
      <point x="311.113816132812" y="395.73355290477446" type="curve" smooth="yes"/>
      <point x="277.113816132812" y="595.1376651993809" type="line" smooth="yes"/>
      <point x="276.2808645218467" y="600.0227821572898"/>
      <point x="280.04437934475817" y="604.4823227814084"/>
      <point x="285.0" y="604.4823227814084" type="curve" smooth="yes"/>
      <point x="454.0" y="604.4823227814084" type="line" smooth="yes"/>
      <point x="458.95562065524206" y="604.4823227814084"/>
      <point x="462.71913547815336" y="600.0227821572901"/>
      <point x="461.886183867188" y="595.1376651993809" type="curve" smooth="yes"/>
      <point x="427.886183867188" y="395.73355290477446" type="line" smooth="yes"/>
      <point x="427.23076116564795" y="391.88961225835317"/>
      <point x="423.8994177271618" y="389.0782104868019"/>
      <point x="420.0" y="389.0782104868019" type="curve" smooth="yes"/>
      <point x="319.0" y="389.0782104868019" type="line" smooth="yes"/>
      <point x="315.1005822728381" y="389.0782104868019"/>
      <point x="311.76923883435205" y="391.8896122583531"/>
    </contour>
  </outline>
</glyph>
<glyph name="dollar" format="2">
  <advance width="540"/>
  <unicode hex="0024"/>
  <outline>
    <contour>
      <point x="175.0" y="36.93903345590121" type="line" smooth="yes"/>
      <point x="170.2106080434443" y="36.93903345590121"/>
      <point x="166.49442754045006" y="41.118887850185885"/>
      <point x="167.05498346941727" y="45.87536263347025" type="curve" smooth="yes"/>
      <point x="177.05498346941727" y="130.72817637585595" type="line"/>
      <point x="184.4624694874533" y="121.80992631744117" type="line"/>
      <point x="142.13882478188222" y="124.66014881037822"/>
      <point x="97.86439080978182" y="131.0573878641743"/>
      <point x="52.51762862524134" y="139.60805534298558" type="curve" smooth="yes"/>
      <point x="48.73761214920097" y="140.32082208517357"/>
      <point x="46.0" y="143.62288690589781"/>
      <point x="46.0" y="147.4695167279506" type="curve" smooth="yes"/>
      <point x="46.0" y="264.8492424049175" type="line" smooth="yes"/>
      <point x="46.0" y="270.9376034406603"/>
      <point x="52.53057862100035" y="274.79453983196765"/>
      <point x="57.862359810931515" y="271.85510970960587" type="curve" smooth="yes"/>
      <point x="115.64311787114248" y="240.0003702360834"/>
      <point x="192.3432326455303" y="224.76598128423225"/>
      <point x="256.0" y="224.76598128423225" type="curve" smooth="yes"/>
      <point x="311.8578033490218" y="224.76598128423225"/>
      <point x="348.0" y="235.5293518847766"/>
      <point x="348.0" y="253.53553390593274" type="curve" smooth="yes"/>
      <point x="348.0" y="274.28723229058227"/>
      <point x="282.022061688405" y="289.62175590032706"/>
      <point x="231.82267578419274" y="303.8202863740346" type="curve" smooth="yes"/>
      <point x="141.92987718415415" y="329.24580936200397"/>
      <point x="41.99999999999999" y="362.65821033565146"/>
      <point x="42.0" y="449.4041122946064" type="curve" smooth="yes"/>
      <point x="42.00000000000001" y="523.0302739764109"/>
      <point x="111.42357043946213" y="571.1989756552274"/>
      <point x="225.01242468951529" y="585.329249109311" type="curve"/>
      <point x="218.020956159114" y="577.969110049092" type="line"/>
      <point x="224.020956159114" y="660.7006034479181" type="line" smooth="yes"/>
      <point x="224.32430632727971" y="664.8833721871069"/>
      <point x="227.8062456378489" y="668.1219330881976"/>
      <point x="232.0" y="668.1219330881976" type="curve" smooth="yes"/>
      <point x="361.0" y="668.1219330881976" type="line" smooth="yes"/>
      <point x="365.7760897431855" y="668.1219330881976"/>
      <point x="369.4881308331963" y="663.9641548664795"/>
      <point x="368.9488368680887" y="659.218610086988" type="curve" smooth="yes"/>
      <point x="359.9488368680887" y="580.0226505940946" type="line"/>
      <point x="352.5642764926869" y="588.9060482841652" type="line"/>
      <point x="392.89266366213815" y="586.0544006799817"/>
      <point x="434.1957738530814" y="580.3589999980338"/>
      <point x="477.54879006024146" y="571.8040571854831" type="curve" smooth="yes"/>
      <point x="481.29766549040403" y="571.0642836305552"/>
      <point x="484.0" y="567.7765797652927"/>
      <point x="484.0" y="563.9554108468271" type="curve" smooth="yes"/>
      <point x="484.0" y="447.9898987322333" type="line" smooth="yes"/>
      <point x="484.0" y="441.8346682538612"/>
      <point x="477.3395141258976" y="437.985271595333"/>
      <point x="472.00618397690073" y="441.05812885913195" type="curve" smooth="yes"/>
      <point x="419.27983158072107" y="471.43700105115215"/>
      <point x="349.6084220624925" y="486.65894629054543"/>
      <point x="292.0" y="486.6589462905455" type="curve" smooth="yes"/>
      <point x="242.14753866214943" y="486.65894629054554"/>
      <point x="209.0" y="476.63763332880666"/>
      <point x="209.0" y="460.71782079359116" type="curve" smooth="yes"/>
      <point x="209.0" y="439.68660402493794"/>
      <point x="273.1613614164477" y="423.4979662495948"/>
      <point x="323.22455667545853" y="409.0053386387865" type="curve" smooth="yes"/>
      <point x="413.20264565359713" y="382.9578814210489"/>
      <point x="513.0" y="349.4350437248734"/>
      <point x="513.0" y="264.14213562373095" type="curve" smooth="yes"/>
      <point x="513.0" y="182.55403724002988"/>
      <point x="433.4955448396685" y="134.40345576581026"/>
      <point x="310.76999533323334" y="122.5360960009083" type="curve"/>
      <point x="317.9804014676662" y="129.9393180130889" type="line"/>
      <point x="311.9804014676662" y="44.37939748951663" type="line" smooth="yes"/>
      <point x="311.6865156169883" y="40.18858915168273"/>
      <point x="308.201100262751" y="36.93903345590121"/>
      <point x="304.0" y="36.93903345590121" type="curve" smooth="yes"/>
    </contour>
    <contour>
      <point x="175.0" y="52.93903345590121" type="line"/>
      <point x="304.0" y="52.93903345590121" type="line"/>
      <point x="296.0195985323338" y="45.49866942228579" type="line"/>
      <point x="302.0195985323338" y="131.05858994585805" type="line" smooth="yes"/>
      <point x="302.2929035448455" y="134.95591580405684"/>
      <point x="305.34124638427113" y="138.08577539708847"/>
      <point x="309.23000466676666" y="138.46181195803862" type="curve" smooth="yes"/>
      <point x="420.33207177538264" y="149.20519999993198"/>
      <point x="497.0" y="190.28134283571399"/>
      <point x="497.0" y="264.14213562373095" type="curve" smooth="yes"/>
      <point x="497.0" y="339.96692438106135"/>
      <point x="398.76532456373263" y="370.480359474114"/>
      <point x="318.77544332454147" y="393.6363637090558" type="curve" smooth="yes"/>
      <point x="242.7256703826106" y="415.6517591194306"/>
      <point x="193.0" y="428.7698148448352"/>
      <point x="193.0" y="460.71782079359116" type="curve" smooth="yes"/>
      <point x="193.0" y="483.81424248729525"/>
      <point x="219.67418165376714" y="502.65894629054554"/>
      <point x="292.0" y="502.6589462905455" type="curve" smooth="yes"/>
      <point x="352.38563421378575" y="502.65894629054543"/>
      <point x="424.7256084376005" y="486.76505883089413"/>
      <point x="479.99381602309927" y="454.9216686053347" type="curve"/>
      <point x="468.0" y="447.9898987322333" type="line"/>
      <point x="468.0" y="563.9554108468271" type="line"/>
      <point x="474.45120993975854" y="556.1067645081712" type="line"/>
      <point x="431.811149609188" y="564.5210182225757"/>
      <point x="391.10089590784366" y="570.1411476683085"/>
      <point x="351.4357235073131" y="572.9458989064432" type="curve" smooth="yes"/>
      <point x="346.8952121402081" y="573.2669615442167"/>
      <point x="343.53718945182976" y="577.30655895783"/>
      <point x="344.0511631319113" y="581.8292965965138" type="curve" smooth="yes"/>
      <point x="353.0511631319113" y="661.0252560894072" type="line"/>
      <point x="361.0" y="652.1219330881976" type="line"/>
      <point x="232.0" y="652.1219330881976" type="line"/>
      <point x="239.979043840886" y="659.5432627284771" type="line"/>
      <point x="233.979043840886" y="576.811769329651" type="line" smooth="yes"/>
      <point x="233.70293376717703" y="573.0046028729175"/>
      <point x="230.77554408628203" y="569.9228475820014"/>
      <point x="226.98757531048471" y="569.451630269432" type="curve" smooth="yes"/>
      <point x="124.7377022670868" y="556.7319081075381"/>
      <point x="58.00000000000001" y="515.6805593486858"/>
      <point x="58.0" y="449.4041122946064" type="curve" smooth="yes"/>
      <point x="57.99999999999999" y="372.17185113229596"/>
      <point x="156.14329446562778" y="341.85333561723974"/>
      <point x="236.17732421580726" y="319.21629355242464" type="curve" smooth="yes"/>
      <point x="313.9660598612894" y="297.2143165624854"/>
      <point x="364.0" y="285.69226950661323"/>
      <point x="364.0" y="253.53553390593274" type="curve" smooth="yes"/>
      <point x="364.0" y="228.2363771580063"/>
      <point x="334.4816748415285" y="208.76598128423225"/>
      <point x="256.0" y="208.76598128423225" type="curve" smooth="yes"/>
      <point x="189.6726846715682" y="208.76598128423225"/>
      <point x="110.34243410256813" y="224.65225595338154"/>
      <point x="50.137640189068485" y="257.84337510022914" type="curve"/>
      <point x="62.0" y="264.8492424049175" type="line"/>
      <point x="62.0" y="147.4695167279506" type="line"/>
      <point x="55.48237137475866" y="155.33097811291563" type="line"/>
      <point x="100.15034713412108" y="146.9083038298966"/>
      <point x="143.84741980380844" y="140.58132617347235"/>
      <point x="185.5375305125467" y="137.77376807913265" type="curve" smooth="yes"/>
      <point x="190.10271413761436" y="137.46633262211864"/>
      <point x="193.480541085752" y="133.39959455414314"/>
      <point x="192.94501653058273" y="128.85551802071788" type="curve" smooth="yes"/>
      <point x="182.94501653058273" y="44.00270427833217" type="line"/>
    </contour>
  </outline>
</glyph>
<glyph name="percent" format="2">
  <advance width="1023"/>
  <unicode hex="0025"/>
  <outline>
    <contour>
      <point x="784.0" y="174.11774900609143" type="curve" smooth="yes"/>
      <point x="735.7084162750001" y="174.11774900609146"/>
      <point x="707.0" y="207.90246030355658"/>
      <point x="707.0" y="259.89949493661163" type="curve" smooth="yes"/>
      <point x="707.0" y="311.8965295696667"/>
      <point x="735.7084162750001" y="344.97413408594537"/>
      <point x="784.0" y="344.97413408594537" type="curve" smooth="yes"/>
      <point x="832.266784328541" y="344.97413408594537"/>
      <point x="863.0" y="311.8698272961628"/>
      <point x="863.0" y="259.89949493661163" type="curve" smooth="yes"/>
      <point x="863.0" y="207.92916257706054"/>
      <point x="832.266784328541" y="174.1177490060914"/>
    </contour>
    <contour>
      <point x="784.0" y="113.7502166379443" type="curve" smooth="yes"/>
      <point x="893.95960177057" y="113.7502166379443"/>
      <point x="970.0" y="176.06128338444427"/>
      <point x="970.0" y="259.89949493661163" type="curve" smooth="yes"/>
      <point x="970.0" y="343.0615918794873"/>
      <point x="893.95960177057" y="404.63455967290594"/>
      <point x="784.0" y="404.63455967290594" type="curve" smooth="yes"/>
      <point x="674.04039822943" y="404.63455967290594"/>
      <point x="598.0" y="343.0615918794873"/>
      <point x="598.0" y="259.89949493661163" type="curve" smooth="yes"/>
      <point x="598.0" y="176.06128338444427"/>
      <point x="674.04039822943" y="113.7502166379443"/>
    </contour>
    <contour>
      <point x="239.0" y="367.86500705120545" type="curve" smooth="yes"/>
      <point x="190.708416275" y="367.86500705120545"/>
      <point x="162.0" y="401.64971834867066"/>
      <point x="162.0" y="453.64675298172574" type="curve" smooth="yes"/>
      <point x="162.0" y="505.6437876147807"/>
      <point x="190.708416275" y="538.7213921310594"/>
      <point x="239.0" y="538.7213921310594" type="curve" smooth="yes"/>
      <point x="287.26678432854084" y="538.7213921310594"/>
      <point x="318.0" y="505.6170853412768"/>
      <point x="318.0" y="453.64675298172574" type="curve" smooth="yes"/>
      <point x="318.0" y="401.6764206221746"/>
      <point x="287.26678432854084" y="367.86500705120545"/>
    </contour>
    <contour>
      <point x="239.0" y="307.49747468305833" type="curve" smooth="yes"/>
      <point x="348.95960177057" y="307.49747468305833"/>
      <point x="425.0" y="369.80854142955843"/>
      <point x="425.0" y="453.64675298172574" type="curve" smooth="yes"/>
      <point x="425.0" y="536.8088499246015"/>
      <point x="348.95960177057" y="598.38181771802"/>
      <point x="239.0" y="598.38181771802" type="curve" smooth="yes"/>
      <point x="129.04039822943002" y="598.38181771802"/>
      <point x="53.000000000000014" y="536.8088499246015"/>
      <point x="53.0" y="453.64675298172574" type="curve" smooth="yes"/>
      <point x="52.999999999999986" y="369.80854142955843"/>
      <point x="129.04039822943002" y="307.49747468305833"/>
    </contour>
    <contour>
      <point x="239.0" y="107.64971157455597" type="line" smooth="yes"/>
      <point x="232.14783282500673" y="107.64971157455597"/>
      <point x="228.4667450692961" y="115.70201414483245"/>
      <point x="232.94999596033873" y="120.8839690309754" type="curve" smooth="yes"/>
      <point x="648.9499959603387" y="601.7165802378278" type="line" smooth="yes"/>
      <point x="650.4695851131524" y="603.472993748186"/>
      <point x="652.677471289151" y="604.4823227814084"/>
      <point x="655.0" y="604.4823227814084" type="curve" smooth="yes"/>
      <point x="783.0" y="604.4823227814084" type="line" smooth="yes"/>
      <point x="789.8521671749933" y="604.4823227814084"/>
      <point x="793.533254930704" y="596.4300202111319"/>
      <point x="789.0500040396613" y="591.2480653249889" type="curve" smooth="yes"/>
      <point x="373.05000403966125" y="110.41545411813654" type="line" smooth="yes"/>
      <point x="371.5304148868475" y="108.65904060777828"/>
      <point x="369.32252871084904" y="107.64971157455597"/>
      <point x="367.0" y="107.64971157455597" type="curve" smooth="yes"/>
    </contour>
    <contour>
      <point x="784.0" y="190.11774900609143" type="curve" smooth="yes"/>
      <point x="823.7293202832241" y="190.1177490060914"/>
      <point x="847.0" y="217.12171290157954"/>
      <point x="847.0" y="259.89949493661163" type="curve" smooth="yes"/>
      <point x="847.0" y="302.67727697164383"/>
      <point x="823.7293202832241" y="328.97413408594537"/>
      <point x="784.0" y="328.97413408594537" type="curve" smooth="yes"/>
      <point x="744.307124742392" y="328.97413408594537"/>
      <point x="723.0" y="302.63803549076874"/>
      <point x="723.0" y="259.89949493661163" type="curve" smooth="yes"/>
      <point x="723.0" y="217.18232365273167"/>
      <point x="744.3269711800208" y="190.11774900609146"/>
    </contour>
    <contour>
      <point x="784.0" y="97.7502166379443" type="curve" smooth="yes"/>
      <point x="663.9754615190268" y="97.7502166379443"/>
      <point x="582.0" y="168.38731694951124"/>
      <point x="582.0" y="259.89949493661163" type="curve" smooth="yes"/>
      <point x="582.0" y="350.6736714883322"/>
      <point x="663.9754615190268" y="420.63455967290594"/>
      <point x="784.0" y="420.63455967290594" type="curve" smooth="yes"/>
      <point x="904.0245384809732" y="420.63455967290594"/>
      <point x="986.0" y="350.6736714883322"/>
      <point x="986.0" y="259.89949493661163" type="curve" smooth="yes"/>
      <point x="986.0" y="168.38731694951124"/>
      <point x="904.0245384809732" y="97.7502166379443"/>
    </contour>
    <contour>
      <point x="239.0" y="383.86500705120545" type="curve" smooth="yes"/>
      <point x="278.7293202832244" y="383.86500705120545"/>
      <point x="302.0" y="410.86897094669354"/>
      <point x="302.0" y="453.64675298172574" type="curve" smooth="yes"/>
      <point x="302.0" y="496.42453501675783"/>
      <point x="278.7293202832244" y="522.7213921310594"/>
      <point x="239.0" y="522.7213921310594" type="curve" smooth="yes"/>
      <point x="199.30712474239186" y="522.7213921310594"/>
      <point x="178.0" y="496.38529353588274"/>
      <point x="178.0" y="453.64675298172574" type="curve" smooth="yes"/>
      <point x="178.0" y="410.9295816978457"/>
      <point x="199.32697118002068" y="383.86500705120545"/>
    </contour>
    <contour>
      <point x="239.0" y="291.49747468305833" type="curve" smooth="yes"/>
      <point x="118.97546151902691" y="291.49747468305833"/>
      <point x="36.999999999999986" y="362.1345749946253"/>
      <point x="37.0" y="453.64675298172574" type="curve" smooth="yes"/>
      <point x="37.000000000000014" y="544.4209295334462"/>
      <point x="118.97546151902691" y="614.38181771802"/>
      <point x="239.0" y="614.38181771802" type="curve" smooth="yes"/>
      <point x="359.02453848097315" y="614.38181771802"/>
      <point x="441.0" y="544.4209295334462"/>
      <point x="441.0" y="453.64675298172574" type="curve" smooth="yes"/>
      <point x="441.0" y="362.1345749946253"/>
      <point x="359.02453848097315" y="291.49747468305833"/>
    </contour>
    <contour>
      <point x="239.0" y="123.64971157455597" type="line"/>
      <point x="367.0" y="123.64971157455597" type="line"/>
      <point x="360.94999596033875" y="120.8839690309754" type="line"/>
      <point x="776.9499959603387" y="601.7165802378278" type="line"/>
      <point x="783.0" y="588.4823227814084" type="line"/>
      <point x="655.0" y="588.4823227814084" type="line"/>
      <point x="661.0500040396613" y="591.2480653249889" type="line"/>
      <point x="245.05000403966127" y="110.41545411813654" type="line"/>
    </contour>
  </outline>
</glyph>
<glyph name="ampersand" format="2">
  <advance width="661"/>
  <unicode hex="0026"/>
  <outline>
    <contour>
      <point x="572.0" y="257.77817459305203" type="line" smooth="yes"/>
      <point x="572.0" y="158.5469749598367"/>
      <point x="465.0453227760913" y="95.62889629438463"/>
      <point x="306.0" y="95.62889629438465" type="curve" smooth="yes"/>
      <point x="156.4513134001875" y="95.62889629438466"/>
      <point x="51.99999999999998" y="151.97181665870016"/>
      <point x="52.0" y="242.92893218813452" type="curve" smooth="yes"/>
      <point x="52.000000000000014" y="293.8054036870617"/>
      <point x="89.02031459706663" y="337.95854612344937"/>
      <point x="165.2028750670946" y="366.3895154904969" type="curve"/>
      <point x="165.10769201159803" y="351.4355868499929" type="line"/>
      <point x="99.2751843329768" y="376.96334214790136"/>
      <point x="71.0" y="417.74645164856025"/>
      <point x="71.0" y="463.5462479183374" type="curve"/>
      <point x="71.00000000000001" y="593.7813080928604"/>
      <point x="284.27941402133314" y="636.9071025380181"/>
      <point x="492.3926212476456" y="600.1175375169663" type="curve" smooth="yes"/>
      <point x="496.21439753230106" y="599.4419365352019"/>
      <point x="499.0" y="596.1207142580976"/>
      <point x="499.0" y="592.239682094289" type="curve" smooth="yes"/>
      <point x="499.0" y="476.98127676088177" type="line" smooth="yes"/>
      <point x="499.0" y="471.1262039168724"/>
      <point x="492.9167529069092" y="467.25461565326054"/>
      <point x="487.61249565823914" y="469.73387623831155" type="curve" smooth="yes"/>
      <point x="429.83173759802816" y="496.74115535716754"/>
      <point x="379.98740923644647" y="508.5792565073284"/>
      <point x="332.0" y="508.5792565073284" type="curve" smooth="yes"/>
      <point x="275.8548440536219" y="508.5792565073284"/>
      <point x="235.0" y="493.3217132936825"/>
      <point x="235.0" y="463.5462479183374" type="curve" smooth="yes"/>
      <point x="235.0" y="424.31128403587826"/>
      <point x="294.98018203273756" y="410.73506473629425"/>
      <point x="380.0" y="410.73506473629425" type="curve" smooth="yes"/>
      <point x="421.0" y="410.73506473629425" type="line"/>
      <point x="413.0" y="402.73506473629425" type="line"/>
      <point x="413.0" y="464.9604614807105" type="line" smooth="yes"/>
      <point x="413.0" y="469.37873947935685"/>
      <point x="416.5817220013536" y="472.9604614807105"/>
      <point x="421.0" y="472.9604614807105" type="curve" smooth="yes"/>
      <point x="564.0" y="472.9604614807105" type="line" smooth="yes"/>
      <point x="568.4182779986463" y="472.9604614807105"/>
      <point x="572.0" y="469.37873947935685"/>
      <point x="572.0" y="464.9604614807105" type="curve" smooth="yes"/>
      <point x="572.0" y="402.73506473629425" type="line"/>
      <point x="564.0" y="410.73506473629425" type="line"/>
      <point x="626.0" y="410.73506473629425" type="line" smooth="yes"/>
      <point x="630.4182779986463" y="410.73506473629425"/>
      <point x="634.0" y="407.1533427349406"/>
      <point x="634.0" y="402.73506473629425" type="curve" smooth="yes"/>
      <point x="634.0" y="319.29646455628165" type="line" smooth="yes"/>
      <point x="634.0" y="314.8781865576353"/>
      <point x="630.4182779986463" y="311.29646455628165"/>
      <point x="626.0" y="311.29646455628165" type="curve" smooth="yes"/>
      <point x="564.0" y="311.29646455628165" type="line"/>
      <point x="572.0" y="319.29646455628165" type="line"/>
    </contour>
    <contour>
      <point x="312.0" y="200.0172439427031" type="curve" smooth="yes"/>
      <point x="370.8968714264532" y="200.0172439427031"/>
      <point x="413.0" y="220.88236502654178"/>
      <point x="413.0" y="260.6066017177982" type="curve" smooth="yes"/>
      <point x="413.0" y="319.29646455628165" type="line"/>
      <point x="421.0" y="311.29646455628165" type="line"/>
      <point x="381.0" y="311.29646455628165" type="line" smooth="yes"/>
      <point x="283.70800606838475" y="311.29646455628165"/>
      <point x="217.0" y="306.257570826165"/>
      <point x="217.0" y="253.53553390593274" type="curve" smooth="yes"/>
      <point x="217.0" y="222.55825652466547"/>
      <point x="254.7807532434528" y="200.0172439427031"/>
    </contour>
    <contour>
      <point x="556.0" y="257.77817459305203" type="curve" smooth="yes"/>
      <point x="556.0" y="319.29646455628165" type="line" smooth="yes"/>
      <point x="556.0" y="323.714742554928"/>
      <point x="559.5817220013537" y="327.29646455628165"/>
      <point x="564.0" y="327.29646455628165" type="curve" smooth="yes"/>
      <point x="626.0" y="327.29646455628165" type="line"/>
      <point x="618.0" y="319.29646455628165" type="line"/>
      <point x="618.0" y="402.73506473629425" type="line"/>
      <point x="626.0" y="394.73506473629425" type="line"/>
      <point x="564.0" y="394.73506473629425" type="line" smooth="yes"/>
      <point x="559.5817220013537" y="394.73506473629425"/>
      <point x="556.0" y="398.3167867376479"/>
      <point x="556.0" y="402.73506473629425" type="curve" smooth="yes"/>
      <point x="556.0" y="464.9604614807105" type="line"/>
      <point x="564.0" y="456.9604614807105" type="line"/>
      <point x="421.0" y="456.9604614807105" type="line"/>
      <point x="429.0" y="464.9604614807105" type="line"/>
      <point x="429.0" y="402.73506473629425" type="line" smooth="yes"/>
      <point x="429.0" y="398.3167867376479"/>
      <point x="425.4182779986464" y="394.73506473629425"/>
      <point x="421.0" y="394.73506473629425" type="curve" smooth="yes"/>
      <point x="380.0" y="394.73506473629425" type="line" smooth="yes"/>
      <point x="275.73408059375" y="394.73506473629425"/>
      <point x="219.0" y="415.429589004167"/>
      <point x="219.0" y="463.5462479183374" type="curve" smooth="yes"/>
      <point x="219.0" y="501.4063116373991"/>
      <point x="260.61037922159113" y="524.5792565073284"/>
      <point x="332.0" y="524.5792565073284" type="curve" smooth="yes"/>
      <point x="382.00059155527936" y="524.5792565073284"/>
      <point x="434.18271042826126" y="512.3689739514314"/>
      <point x="494.38750434176086" y="484.228677283452" type="curve"/>
      <point x="483.0" y="476.98127676088177" type="line"/>
      <point x="483.0" y="592.239682094289" type="line"/>
      <point x="489.6073787523544" y="584.3618266716118" type="line"/>
      <point x="297.89448552616693" y="618.2521983818942"/>
      <point x="87.00000000000001" y="583.5181637727372"/>
      <point x="87.0" y="463.5462479183374" type="curve"/>
      <point x="87.0" y="423.1145727317912"/>
      <point x="112.77592355080856" y="388.8889895643583"/>
      <point x="170.89230798840197" y="366.3533017554637" type="curve" smooth="yes"/>
      <point x="177.7491578498722" y="363.6944331880894"/>
      <point x="177.68726570328755" y="353.9707408921618"/>
      <point x="170.7971249329054" y="351.3993731149597" type="curve" smooth="yes"/>
      <point x="103.03749061594169" y="326.1117997424967"/>
      <point x="68.00000000000001" y="288.1803792756999"/>
      <point x="68.0" y="242.92893218813452" type="curve" smooth="yes"/>
      <point x="67.99999999999997" y="160.01487323281995"/>
      <point x="169.67544149512867" y="111.62889629438466"/>
      <point x="306.0" y="111.62889629438465" type="curve" smooth="yes"/>
      <point x="452.80512119862993" y="111.62889629438463"/>
      <point x="556.0" y="166.18385396440715"/>
    </contour>
    <contour>
      <point x="312.0" y="184.0172439427031" type="curve" smooth="yes"/>
      <point x="241.44097311496995" y="184.0172439427031"/>
      <point x="201.0" y="215.33638464293108"/>
      <point x="201.0" y="253.53553390593274" type="curve" smooth="yes"/>
      <point x="201.0" y="316.3807658611017"/>
      <point x="265.02690254050407" y="327.29646455628165"/>
      <point x="381.0" y="327.29646455628165" type="curve" smooth="yes"/>
      <point x="421.0" y="327.29646455628165" type="line" smooth="yes"/>
      <point x="425.4182779986464" y="327.29646455628165"/>
      <point x="429.0" y="323.714742554928"/>
      <point x="429.0" y="319.29646455628165" type="curve" smooth="yes"/>
      <point x="429.0" y="260.6066017177982" type="line" smooth="yes"/>
      <point x="429.0" y="212.7551121168921"/>
      <point x="382.94668810109954" y="184.0172439427031"/>
    </contour>
  </outline>
</glyph>
<glyph name="quotesingle" format="2">
  <advance width="297"/>
  <unicode hex="0027"/>
  <outline>
    <contour>
      <point x="105.886183867188" y="398.4228680688293" type="line"/>
      <point x="98.0" y="405.0782104868019" type="line"/>
      <point x="199.0" y="405.0782104868019" type="line"/>
      <point x="191.11381613281202" y="398.4228680688293" type="line"/>
      <point x="225.11381613281202" y="597.8269803634358" type="line"/>
      <point x="233.0" y="588.4823227814084" type="line"/>
      <point x="64.0" y="588.4823227814084" type="line"/>
      <point x="71.886183867188" y="597.8269803634358" type="line"/>
    </contour>
    <contour>
      <point x="90.113816132812" y="395.73355290477446" type="curve" smooth="yes"/>
      <point x="56.113816132812005" y="595.1376651993809" type="line" smooth="yes"/>
      <point x="55.280864521846674" y="600.0227821572898"/>
      <point x="59.044379344758184" y="604.4823227814084"/>
      <point x="64.0" y="604.4823227814084" type="curve" smooth="yes"/>
      <point x="233.0" y="604.4823227814084" type="line" smooth="yes"/>
      <point x="237.95562065524206" y="604.4823227814084"/>
      <point x="241.71913547815336" y="600.0227821572901"/>
      <point x="240.88618386718798" y="595.1376651993809" type="curve" smooth="yes"/>
      <point x="206.88618386718798" y="395.73355290477446" type="line" smooth="yes"/>
      <point x="206.23076116564795" y="391.88961225835317"/>
      <point x="202.8994177271618" y="389.0782104868019"/>
      <point x="199.0" y="389.0782104868019" type="curve" smooth="yes"/>
      <point x="98.0" y="389.0782104868019" type="line" smooth="yes"/>
      <point x="94.10058227283814" y="389.0782104868019"/>
      <point x="90.76923883435205" y="391.8896122583531"/>
    </contour>
  </outline>
</glyph>
<glyph name="parenleft" format="2">
  <advance width="481"/>
  <unicode hex="0028"/>
  <outline>
    <contour>
      <point x="206.0" y="356.06601717798213" type="curve" smooth="yes"/>
      <point x="206.0000000000001" y="198.6657039057285"/>
      <point x="281.30550526762084" y="125.06392513692904"/>
      <point x="431.0" y="125.06392513692904" type="curve" smooth="yes"/>
      <point x="435.4182779986464" y="125.06392513692904"/>
      <point x="439.0" y="121.48220313557539"/>
      <point x="439.0" y="117.06392513692904" type="curve" smooth="yes"/>
      <point x="439.0" y="7.462374053014172" type="line" smooth="yes"/>
      <point x="439.0" y="2.613319608151812"/>
      <point x="434.7205687639294" y="-1.1207895293785182"/>
      <point x="429.91621744545955" y="-0.46387445270868" type="curve" smooth="yes"/>
      <point x="245.22015476167257" y="24.790237941631958"/>
      <point x="31.999999999999986" y="141.7668348602918"/>
      <point x="32.0" y="356.06601717798213" type="curve" smooth="yes"/>
      <point x="32.000000000000014" y="570.3651994956722"/>
      <point x="245.22015476167257" y="687.3417964143322"/>
      <point x="429.91621744545955" y="712.5959088086729" type="curve" smooth="yes"/>
      <point x="434.7205687639294" y="713.2528238853428"/>
      <point x="439.0" y="709.5187147478124"/>
      <point x="439.0" y="704.6696603029501" type="curve" smooth="yes"/>
      <point x="439.0" y="595.0681092190353" type="line" smooth="yes"/>
      <point x="439.0" y="590.6498312203889"/>
      <point x="435.4182779986464" y="587.0681092190353"/>
      <point x="431.0" y="587.0681092190353" type="curve" smooth="yes"/>
      <point x="281.30550526762084" y="587.0681092190353"/>
      <point x="205.9999999999999" y="513.4663304502358"/>
    </contour>
    <contour>
      <point x="190.0" y="356.06601717798213" type="curve" smooth="yes"/>
      <point x="189.9999999999999" y="522.5459649987976"/>
      <point x="272.67038073803576" y="603.0681092190353"/>
      <point x="431.0" y="603.0681092190353" type="curve"/>
      <point x="423.0" y="595.0681092190353" type="line"/>
      <point x="423.0" y="704.6696603029501" type="line"/>
      <point x="432.08378255454045" y="696.7434117972273" type="line"/>
      <point x="254.82416884440167" y="672.5061100238951"/>
      <point x="48.000000000000014" y="561.7368350831157"/>
      <point x="48.0" y="356.06601717798213" type="curve" smooth="yes"/>
      <point x="47.999999999999986" y="150.3951992728481"/>
      <point x="254.82416884440167" y="39.62592433206936"/>
      <point x="432.08378255454045" y="15.388622558737026" type="curve"/>
      <point x="423.0" y="7.462374053014174" type="line"/>
      <point x="423.0" y="117.06392513692904" type="line"/>
      <point x="431.0" y="109.06392513692904" type="line"/>
      <point x="272.67038073803576" y="109.06392513692904"/>
      <point x="190.0000000000001" y="189.5860693571665"/>
    </contour>
  </outline>
</glyph>
<glyph name="parenright" format="2">
  <advance width="481"/>
  <unicode hex="0029"/>
  <outline>
    <contour>
      <point x="275.0" y="356.7731239591687" type="curve" smooth="yes"/>
      <point x="275.0" y="514.1734372314223"/>
      <point x="199.69449473237918" y="587.7752160002217"/>
      <point x="50.0" y="587.7752160002217" type="curve" smooth="yes"/>
      <point x="45.581722001353654" y="587.7752160002217"/>
      <point x="42.0" y="591.3569380015754"/>
      <point x="42.0" y="595.7752160002217" type="curve" smooth="yes"/>
      <point x="42.0" y="705.3767670841366" type="line" smooth="yes"/>
      <point x="42.0" y="710.225821528999"/>
      <point x="46.27943123607061" y="713.9599306665293"/>
      <point x="51.08378255454046" y="713.3030155898595" type="curve" smooth="yes"/>
      <point x="235.77984523832743" y="688.0489031955186"/>
      <point x="449.00000000000006" y="571.0723062768589"/>
      <point x="449.0" y="356.7731239591687" type="curve" smooth="yes"/>
      <point x="448.99999999999994" y="142.47394164147835"/>
      <point x="235.77984523832743" y="25.49734472281851"/>
      <point x="51.083782554540456" y="0.24323232847787324" type="curve" smooth="yes"/>
      <point x="46.27943123607057" y="-0.41368274819196327"/>
      <point x="42.0" y="3.3204263893383636"/>
      <point x="42.0" y="8.169480834200728" type="curve" smooth="yes"/>
      <point x="42.0" y="117.7710319181156" type="line" smooth="yes"/>
      <point x="42.0" y="122.18930991676194"/>
      <point x="45.581722001353654" y="125.7710319181156"/>
      <point x="50.0" y="125.7710319181156" type="curve" smooth="yes"/>
      <point x="199.69449473237918" y="125.7710319181156"/>
      <point x="275.0" y="199.37281068691505"/>
    </contour>
    <contour>
      <point x="291.0" y="356.7731239591687" type="curve" smooth="yes"/>
      <point x="291.0" y="190.29317613835306"/>
      <point x="208.32961926196435" y="109.7710319181156"/>
      <point x="50.0" y="109.7710319181156" type="curve"/>
      <point x="58.0" y="117.7710319181156" type="line"/>
      <point x="58.0" y="8.169480834200725" type="line"/>
      <point x="48.916217445459544" y="16.09572933992358" type="line"/>
      <point x="226.1758311555983" y="40.33303111325591"/>
      <point x="432.99999999999994" y="151.10230605403464"/>
      <point x="433.0" y="356.7731239591687" type="curve" smooth="yes"/>
      <point x="433.00000000000006" y="562.4439418643024"/>
      <point x="226.1758311555983" y="673.2132168050815"/>
      <point x="48.91621744545954" y="697.4505185784138" type="curve"/>
      <point x="58.0" y="705.3767670841366" type="line"/>
      <point x="58.0" y="595.7752160002217" type="line"/>
      <point x="50.0" y="603.7752160002217" type="line"/>
      <point x="208.32961926196435" y="603.7752160002217"/>
      <point x="291.0" y="523.2530717799841"/>
    </contour>
  </outline>
</glyph>
<glyph name="asterisk" format="2">
  <advance width="614"/>
  <unicode hex="002A"/>
  <outline>
    <contour>
      <point x="110.04082942571573" y="558.6179689439504" type="line" smooth="yes"/>
      <point x="106.35246345191722" y="562.7359719832724"/>
      <point x="107.85294101863398" y="569.2645936975758"/>
      <point x="112.96911900259953" y="571.3590424138081" type="curve" smooth="yes"/>
      <point x="226.96911900259954" y="618.0280899721201" type="line" smooth="yes"/>
      <point x="230.35431870090324" y="619.4139149345282"/>
      <point x="234.24829841714615" y="618.3271883356705"/>
      <point x="236.4266715290262" y="615.3886889891899" type="curve" smooth="yes"/>
      <point x="301.42667152902624" y="527.7074481220579" type="line"/>
      <point x="288.57332847097376" y="527.7074481220579" type="line"/>
      <point x="353.57332847097376" y="615.3886889891899" type="line" smooth="yes"/>
      <point x="355.75170158285385" y="618.3271883356705"/>
      <point x="359.6456812990967" y="619.4139149345282"/>
      <point x="363.03088099740046" y="618.0280899721201" type="curve" smooth="yes"/>
      <point x="477.03088099740046" y="571.3590424138081" type="line" smooth="yes"/>
      <point x="482.14705898136606" y="569.2645936975758"/>
      <point x="483.6475365480828" y="562.7359719832725"/>
      <point x="479.95917057428426" y="558.6179689439504" type="curve" smooth="yes"/>
      <point x="403.95917057428426" y="473.7651552015647" type="line"/>
      <point x="397.7627538656891" y="487.099078472628" type="line"/>
      <point x="540.7627538656891" y="491.34171915974724" type="line" smooth="yes"/>
      <point x="545.2719988537091" y="491.475503119568"/>
      <point x="549.0" y="487.85646694888453"/>
      <point x="549.0" y="483.3452377915607" type="curve" smooth="yes"/>
      <point x="549.0" y="390.0071426749364" type="line" smooth="yes"/>
      <point x="549.0" y="385.4945916842415"/>
      <point x="545.269901269246" y="381.8750421102291"/>
      <point x="540.7593916950731" y="382.01076176582507" type="curve" smooth="yes"/>
      <point x="399.759391695073" y="386.2534024529444" type="line"/>
      <point x="405.95917057428426" y="399.58722526493244" type="line"/>
      <point x="481.95917057428426" y="314.73441152254674" type="line" smooth="yes"/>
      <point x="485.64753654808277" y="310.6164084832247"/>
      <point x="484.14705898136594" y="304.0877867689213"/>
      <point x="479.03088099740046" y="301.99333805268907" type="curve" smooth="yes"/>
      <point x="365.03088099740046" y="255.3242904943769" type="line" smooth="yes"/>
      <point x="361.64377709280467" y="253.93768599254773"/>
      <point x="357.74760911181926" y="255.02647306528326"/>
      <point x="355.57004094320007" y="257.9681293633639" type="curve" smooth="yes"/>
      <point x="288.57004094320007" y="348.477797355242" type="line"/>
      <point x="301.42995905679993" y="348.477797355242" type="line"/>
      <point x="234.42995905679996" y="257.9681293633639" type="line" smooth="yes"/>
      <point x="232.25239088818086" y="255.02647306528337"/>
      <point x="228.3562229071952" y="253.93768599254776"/>
      <point x="224.9691190025995" y="255.3242904943769" type="curve" smooth="yes"/>
      <point x="110.96911900259951" y="301.99333805268907" type="line" smooth="yes"/>
      <point x="105.8529410186339" y="304.0877867689214"/>
      <point x="104.35246345191716" y="310.6164084832246"/>
      <point x="108.04082942571573" y="314.73441152254674" type="curve" smooth="yes"/>
      <point x="184.04082942571574" y="399.58722526493244" type="line"/>
      <point x="190.24060830492695" y="386.2534024529444" type="line"/>
      <point x="49.24060830492696" y="382.01076176582507" type="line" smooth="yes"/>
      <point x="44.73009873075399" y="381.8750421102291"/>
      <point x="41.0" y="385.4945916842415"/>
      <point x="41.0" y="390.0071426749364" type="curve" smooth="yes"/>
      <point x="41.0" y="483.3452377915607" type="line" smooth="yes"/>
      <point x="41.0" y="487.85646694888464"/>
      <point x="44.728001146290815" y="491.475503119568"/>
      <point x="49.23724613431092" y="491.34171915974724" type="curve" smooth="yes"/>
      <point x="192.2372461343109" y="487.099078472628" type="line"/>
      <point x="186.04082942571574" y="473.7651552015647" type="line"/>
    </contour>
    <contour>
      <point x="121.95917057428427" y="569.2928527497039" type="line"/>
      <point x="197.95917057428426" y="484.44003900731815" type="line" smooth="yes"/>
      <point x="202.64943382812802" y="479.20343329309236"/>
      <point x="198.78964116558404" y="470.8976363099448"/>
      <point x="191.7627538656891" y="471.1061157362549" type="curve" smooth="yes"/>
      <point x="48.76275386568908" y="475.34875642337414" type="line"/>
      <point x="57.0" y="483.3452377915607" type="line"/>
      <point x="57.0" y="390.0071426749364" type="line"/>
      <point x="48.75939169507304" y="398.00352358404774" type="line"/>
      <point x="189.75939169507305" y="402.24616427116706" type="line" smooth="yes"/>
      <point x="196.78779834000497" y="402.457646569021"/>
      <point x="200.65050688798746" y="394.15014522798884"/>
      <point x="195.95917057428426" y="388.912341459179" type="curve" smooth="yes"/>
      <point x="119.95917057428427" y="304.0595277167933" type="line"/>
      <point x="117.03088099740049" y="316.80060118665097" type="line"/>
      <point x="231.0308809974005" y="270.1315536283388" type="line"/>
      <point x="221.57004094320004" y="267.4877147593518" type="line"/>
      <point x="288.57004094320007" y="357.99738275122985" type="line" smooth="yes"/>
      <point x="291.76813596886274" y="362.3176591539046"/>
      <point x="298.23186403113726" y="362.3176591539046"/>
      <point x="301.42995905679993" y="357.99738275122985" type="curve" smooth="yes"/>
      <point x="368.42995905679993" y="267.4877147593518" type="line"/>
      <point x="358.96911900259954" y="270.1315536283388" type="line"/>
      <point x="472.96911900259954" y="316.80060118665097" type="line"/>
      <point x="470.04082942571574" y="304.0595277167933" type="line"/>
      <point x="394.04082942571574" y="388.912341459179" type="line" smooth="yes"/>
      <point x="389.3494931120123" y="394.15014522798907"/>
      <point x="393.2122016599947" y="402.45764656902105"/>
      <point x="400.240608304927" y="402.24616427116706" type="curve" smooth="yes"/>
      <point x="541.2406083049269" y="398.00352358404774" type="line"/>
      <point x="533.0" y="390.0071426749364" type="line"/>
      <point x="533.0" y="483.3452377915607" type="line"/>
      <point x="541.2372461343109" y="475.34875642337414" type="line"/>
      <point x="398.2372461343109" y="471.1061157362549" type="line" smooth="yes"/>
      <point x="391.210358834416" y="470.8976363099448"/>
      <point x="387.350566171872" y="479.20343329309236"/>
      <point x="392.04082942571574" y="484.44003900731815" type="curve" smooth="yes"/>
      <point x="468.04082942571574" y="569.2928527497039" type="line"/>
      <point x="470.96911900259954" y="556.5517792798462" type="line"/>
      <point x="356.96911900259954" y="603.2208268381582" type="line"/>
      <point x="366.42667152902624" y="605.8602278210885" type="line"/>
      <point x="301.42667152902624" y="518.1789869539566" type="line" smooth="yes"/>
      <point x="298.2283437383962" y="513.8646277326908"/>
      <point x="291.7716562616038" y="513.8646277326908"/>
      <point x="288.57332847097376" y="518.1789869539566" type="curve" smooth="yes"/>
      <point x="223.5733284709738" y="605.8602278210885" type="line"/>
      <point x="233.03088099740046" y="603.2208268381582" type="line"/>
      <point x="119.03088099740047" y="556.5517792798462" type="line"/>
    </contour>
  </outline>
</glyph>
<glyph name="plus" format="2">
  <advance width="540"/>
  <unicode hex="002B"/>
  <outline>
    <contour>
      <point x="40.0" y="282.3050865276332" type="line" smooth="yes"/>
      <point x="35.581722001353654" y="282.3050865276332"/>
      <point x="32.0" y="285.8868085289868"/>
      <point x="32.0" y="290.3050865276332" type="curve" smooth="yes"/>
      <point x="32.0" y="380.1076477383248" type="line" smooth="yes"/>
      <point x="32.0" y="384.52592573697115"/>
      <point x="35.581722001353654" y="388.1076477383248"/>
      <point x="40.0" y="388.1076477383248" type="curve" smooth="yes"/>
      <point x="203.0" y="388.1076477383248" type="line"/>
      <point x="195.0" y="380.1076477383248" type="line"/>
      <point x="195.0" y="500.3158005400378" type="line" smooth="yes"/>
      <point x="195.0" y="504.7340785386842"/>
      <point x="198.58172200135365" y="508.3158005400378"/>
      <point x="203.0" y="508.3158005400378" type="curve" smooth="yes"/>
      <point x="334.0" y="508.3158005400378" type="line" smooth="yes"/>
      <point x="338.4182779986464" y="508.3158005400378"/>
      <point x="342.0" y="504.7340785386842"/>
      <point x="342.0" y="500.3158005400378" type="curve" smooth="yes"/>
      <point x="342.0" y="380.1076477383248" type="line"/>
      <point x="334.0" y="388.1076477383248" type="line"/>
      <point x="500.0" y="388.1076477383248" type="line" smooth="yes"/>
      <point x="504.4182779986464" y="388.1076477383248"/>
      <point x="508.0" y="384.52592573697115"/>
      <point x="508.0" y="380.1076477383248" type="curve" smooth="yes"/>
      <point x="508.0" y="290.3050865276332" type="line" smooth="yes"/>
      <point x="508.0" y="285.8868085289868"/>
      <point x="504.4182779986464" y="282.3050865276332"/>
      <point x="500.0" y="282.3050865276332" type="curve" smooth="yes"/>
      <point x="334.0" y="282.3050865276332" type="line"/>
      <point x="342.0" y="290.3050865276332" type="line"/>
      <point x="342.0" y="167.97561338236048" type="line" smooth="yes"/>
      <point x="342.0" y="163.55733538371413"/>
      <point x="338.4182779986464" y="159.97561338236048"/>
      <point x="334.0" y="159.97561338236048" type="curve" smooth="yes"/>
      <point x="203.0" y="159.97561338236048" type="line" smooth="yes"/>
      <point x="198.58172200135365" y="159.97561338236048"/>
      <point x="195.0" y="163.55733538371413"/>
      <point x="195.0" y="167.97561338236048" type="curve" smooth="yes"/>
      <point x="195.0" y="290.3050865276332" type="line"/>
      <point x="203.0" y="282.3050865276332" type="line"/>
    </contour>
    <contour>
      <point x="40.0" y="298.3050865276332" type="line"/>
      <point x="203.0" y="298.3050865276332" type="line" smooth="yes"/>
      <point x="207.41827799864635" y="298.3050865276332"/>
      <point x="211.0" y="294.72336452627957"/>
      <point x="211.0" y="290.3050865276332" type="curve" smooth="yes"/>
      <point x="211.0" y="167.97561338236048" type="line"/>
      <point x="203.0" y="175.97561338236048" type="line"/>
      <point x="334.0" y="175.97561338236048" type="line"/>
      <point x="326.0" y="167.97561338236048" type="line"/>
      <point x="326.0" y="290.3050865276332" type="line" smooth="yes"/>
      <point x="326.0" y="294.72336452627957"/>
      <point x="329.5817220013536" y="298.3050865276332"/>
      <point x="334.0" y="298.3050865276332" type="curve" smooth="yes"/>
      <point x="500.0" y="298.3050865276332" type="line"/>
      <point x="492.0" y="290.3050865276332" type="line"/>
      <point x="492.0" y="380.1076477383248" type="line"/>
      <point x="500.0" y="372.1076477383248" type="line"/>
      <point x="334.0" y="372.1076477383248" type="line" smooth="yes"/>
      <point x="329.5817220013536" y="372.1076477383248"/>
      <point x="326.0" y="375.6893697396784"/>
      <point x="326.0" y="380.1076477383248" type="curve" smooth="yes"/>
      <point x="326.0" y="500.3158005400378" type="line"/>
      <point x="334.0" y="492.3158005400378" type="line"/>
      <point x="203.0" y="492.3158005400378" type="line"/>
      <point x="211.0" y="500.3158005400378" type="line"/>
      <point x="211.0" y="380.1076477383248" type="line" smooth="yes"/>
      <point x="211.0" y="375.6893697396784"/>
      <point x="207.41827799864635" y="372.1076477383248"/>
      <point x="203.0" y="372.1076477383248" type="curve" smooth="yes"/>
      <point x="40.0" y="372.1076477383248" type="line"/>
      <point x="48.0" y="380.1076477383248" type="line"/>
      <point x="48.0" y="290.3050865276332" type="line"/>
    </contour>
  </outline>
</glyph>
<glyph name="comma" format="2">
  <advance width="274"/>
  <unicode hex="002C"/>
  <outline>
    <contour>
      <point x="60.0" y="221.49390334559013" type="line"/>
      <point x="67.47488539081795" y="232.3445328189059" type="line"/>
      <point x="92.22408940340198" y="167.44747578649725"/>
      <point x="91.39743167086213" y="105.95810822205664"/>
      <point x="31.586855307117336" y="19.18563870681367" type="curve"/>
      <point x="23.29420817262268" y="31.54185677573831" type="line"/>
      <point x="179.82495509467356" y="65.70357054511408"/>
      <point x="228.72654164593106" y="152.64381887702882"/>
      <point x="219.06414986061924" y="228.48282344504304" type="curve"/>
      <point x="227.0" y="221.49390334559013" type="line"/>
    </contour>
    <contour>
      <point x="60.0" y="237.49390334559013" type="curve" smooth="yes"/>
      <point x="227.0" y="237.49390334559013" type="line" smooth="yes"/>
      <point x="231.0273669489614" y="237.49390334559013"/>
      <point x="234.42685141760293" y="234.50005581654383"/>
      <point x="234.93585013938076" y="230.50498324613721" type="curve" smooth="yes"/>
      <point x="245.26865828804387" y="149.40395755826322"/>
      <point x="194.0972838357192" y="52.44179681796764"/>
      <point x="26.70579182737732" y="15.909803264871258" type="curve" smooth="yes"/>
      <point x="19.61751287103145" y="14.362837179385442"/>
      <point x="14.295689168203062" y="22.29246605783968"/>
      <point x="18.413144692882664" y="28.266021333795898" type="curve" smooth="yes"/>
      <point x="74.62266670099692" y="109.81412421869001"/>
      <point x="75.78422716426383" y="165.65351625247953"/>
      <point x="52.525114609182054" y="226.64327387227436" type="curve" smooth="yes"/>
      <point x="50.52804457891387" y="231.87996623563805"/>
      <point x="54.395427258540856" y="237.49390334559013"/>
    </contour>
  </outline>
</glyph>
<glyph name="hyphen" format="2">
  <advance width="340"/>
  <unicode hex="002D"/>
  <outline>
    <contour>
      <point x="36.24184084113013" y="267.552817403458" type="line" smooth="yes"/>
      <point x="31.38794122369382" y="266.7901006624162"/>
      <point x="27.0" y="270.5423852266615"/>
      <point x="27.0" y="275.4558441227157" type="curve" smooth="yes"/>
      <point x="27.0" y="363.84419177103416" type="line" smooth="yes"/>
      <point x="27.0" y="367.7830271357527"/>
      <point x="29.86706901760388" y="371.13579266249246"/>
      <point x="33.75815915886987" y="371.74721849029186" type="curve" smooth="yes"/>
      <point x="303.7581591588699" y="414.1736253614847" type="line" smooth="yes"/>
      <point x="308.6120587763063" y="414.9363421025265"/>
      <point x="313.0" y="411.1840575382813"/>
      <point x="313.0" y="406.270598642227" type="curve" smooth="yes"/>
      <point x="313.0" y="317.88225099390854" type="line" smooth="yes"/>
      <point x="313.0" y="313.94341562919"/>
      <point x="310.1329309823961" y="310.59065010245024"/>
      <point x="306.2418408411301" y="309.97922427465085" type="curve" smooth="yes"/>
    </contour>
    <contour>
      <point x="33.75815915886987" y="283.3588708419734" type="line"/>
      <point x="303.7581591588699" y="325.78527771316624" type="line"/>
      <point x="297.0" y="317.88225099390854" type="line"/>
      <point x="297.0" y="406.270598642227" type="line"/>
      <point x="306.2418408411301" y="398.3675719229693" type="line"/>
      <point x="36.24184084113013" y="355.94116505177647" type="line"/>
      <point x="43.0" y="363.84419177103416" type="line"/>
      <point x="43.0" y="275.4558441227157" type="line"/>
    </contour>
  </outline>
</glyph>
<glyph name="period" format="2">
  <advance width="271"/>
  <unicode hex="002E"/>
  <outline>
    <contour>
      <point x="55.0" y="107.64971157455597" type="line" smooth="yes"/>
      <point x="50.581722001353654" y="107.64971157455597"/>
      <point x="47.0" y="111.23143357590962"/>
      <point x="47.0" y="115.64971157455597" type="curve" smooth="yes"/>
      <point x="47.0" y="229.49390334559013" type="line" smooth="yes"/>
      <point x="47.0" y="233.91218134423647"/>
      <point x="50.581722001353654" y="237.49390334559013"/>
      <point x="55.0" y="237.49390334559013" type="curve" smooth="yes"/>
      <point x="216.0" y="237.49390334559013" type="line" smooth="yes"/>
      <point x="220.41827799864635" y="237.49390334559013"/>
      <point x="224.0" y="233.91218134423647"/>
      <point x="224.0" y="229.49390334559013" type="curve" smooth="yes"/>
      <point x="224.0" y="115.64971157455597" type="line" smooth="yes"/>
      <point x="224.0" y="111.23143357590962"/>
      <point x="220.41827799864635" y="107.64971157455597"/>
      <point x="216.0" y="107.64971157455597" type="curve" smooth="yes"/>
    </contour>
    <contour>
      <point x="55.0" y="123.64971157455597" type="line"/>
      <point x="216.0" y="123.64971157455597" type="line"/>
      <point x="208.0" y="115.64971157455597" type="line"/>
      <point x="208.0" y="229.49390334559013" type="line"/>
      <point x="216.0" y="221.49390334559013" type="line"/>
      <point x="55.0" y="221.49390334559013" type="line"/>
      <point x="63.0" y="229.49390334559013" type="line"/>
      <point x="63.0" y="115.64971157455597" type="line"/>
    </contour>
  </outline>
</glyph>
<glyph name="slash" format="2">
  <advance width="490"/>
  <unicode hex="002F"/>
  <outline>
    <contour>
      <point x="25.0" y="54.6167029855649" type="line" smooth="yes"/>
      <point x="19.013232548693626" y="54.6167029855649"/>
      <point x="15.14769593899752" y="60.95132338752263"/>
      <point x="17.8856216656009" y="66.2753394686051" type="curve" smooth="yes"/>
      <point x="317.8856216656009" y="649.6384339475068" type="line" smooth="yes"/>
      <point x="319.2564740583647" y="652.3041162605617"/>
      <point x="322.0024846160728" y="653.9797974644666"/>
      <point x="325.0" y="653.9797974644666" type="curve" smooth="yes"/>
      <point x="466.0" y="653.9797974644666" type="line" smooth="yes"/>
      <point x="471.9867674513063" y="653.9797974644666"/>
      <point x="475.8523040610024" y="647.6451770625089"/>
      <point x="473.1143783343991" y="642.3211609814265" type="curve" smooth="yes"/>
      <point x="173.1143783343991" y="58.95806650252471" type="line" smooth="yes"/>
      <point x="171.7435259416353" y="56.29238418946972"/>
      <point x="168.99751538392724" y="54.6167029855649"/>
      <point x="166.0" y="54.6167029855649" type="curve" smooth="yes"/>
    </contour>
    <contour>
      <point x="25.0" y="70.6167029855649" type="line"/>
      <point x="166.0" y="70.6167029855649" type="line"/>
      <point x="158.8856216656009" y="66.27533946860508" type="line"/>
      <point x="458.8856216656009" y="649.6384339475068" type="line"/>
      <point x="466.0" y="637.9797974644666" type="line"/>
      <point x="325.0" y="637.9797974644666" type="line"/>
      <point x="332.1143783343991" y="642.3211609814265" type="line"/>
      <point x="32.1143783343991" y="58.95806650252471" type="line"/>
    </contour>
  </outline>
</glyph>
<glyph name="one" format="2">
  <advance width="392"/>
  <unicode hex="0031"/>
  <outline>
    <contour>
      <point x="313.0" y="362.42997820866105" type="curve" smooth="yes"/>
      <point x="312.99999999999994" y="188.36932163081988"/>
      <point x="319.1493788515203" y="147.67964074820546"/>
      <point x="338.5319726474218" y="120.26851372807297" type="curve" smooth="yes"/>
      <point x="342.2787105313797" y="114.96982619792267"/>
      <point x="338.48954037765816" y="107.64971157455597"/>
      <point x="332.0" y="107.64971157455597" type="curve" smooth="yes"/>
      <point x="125.0" y="107.64971157455597" type="line" smooth="yes"/>
      <point x="117.96365180067079" y="107.64971157455597"/>
      <point x="114.35455300867433" y="116.07942582505093"/>
      <point x="119.21091956526709" y="121.17117403663904" type="curve" smooth="yes"/>
      <point x="147.16225659917023" y="150.47727535649608"/>
      <point x="153.99999999999994" y="189.3195192495056"/>
      <point x="154.0" y="362.42997820866105" type="curve" smooth="yes"/>
      <point x="154.00000000000003" y="418.77729034522866"/>
      <point x="153.00793412629116" y="459.63331491422156"/>
      <point x="151.015755800621" y="491.32867799104105" type="curve"/>
      <point x="160.39262124764556" y="483.952663743122" type="line"/>
      <point x="101.48540746502044" y="473.539241161497"/>
      <point x="66.30146908453666" y="459.05096775066573"/>
      <point x="31.938927711338653" y="439.6125789316323" type="curve" smooth="yes"/>
      <point x="26.605902846311025" y="436.5957644945943"/>
      <point x="19.999999999999996" y="440.448506083321"/>
      <point x="20.0" y="446.5756851698602" type="curve"/>
      <point x="20.0" y="561.1269837220809" type="line" smooth="yes"/>
      <point x="20.0" y="565.0824376950092"/>
      <point x="22.890683001875217" y="568.4441208633833"/>
      <point x="26.801497193346577" y="569.0366986994012" type="curve" smooth="yes"/>
      <point x="320.80149719334656" y="613.5844259141537" type="line" smooth="yes"/>
      <point x="326.5991207437637" y="614.4628985414251"/>
      <point x="331.3406243561722" y="609.0119088072179"/>
      <point x="329.6673857390408" y="603.3919065368129" type="curve" smooth="yes"/>
      <point x="317.74996682708826" y="563.364189834121"/>
      <point x="313.00000000000006" y="528.8610108145907"/>
    </contour>
    <contour>
      <point x="297.0" y="362.42997820866105" type="curve" smooth="yes"/>
      <point x="297.00000000000006" y="531.2212652716521"/>
      <point x="302.246187558433" y="567.3621424989192"/>
      <point x="314.3326142609592" y="607.9575153368539" type="curve"/>
      <point x="323.19850280665344" y="597.7649959595132" type="line"/>
      <point x="29.198502806653423" y="553.2172687447606" type="line"/>
      <point x="36.0" y="561.1269837220809" type="line"/>
      <point x="36.0" y="446.5756851698602" type="line"/>
      <point x="24.061072288661347" y="453.5387914080881" type="line"/>
      <point x="59.68613622271276" y="473.69137083846584"/>
      <point x="96.53584057969485" y="488.9123498936314"/>
      <point x="157.60737875235444" y="499.70837458847654" type="curve" smooth="yes"/>
      <point x="162.30752389840595" y="500.53925071481007"/>
      <point x="166.68483195644308" y="497.0959799559385"/>
      <point x="166.984244199379" y="492.3323603405575" type="curve" smooth="yes"/>
      <point x="168.99261599798714" y="460.3793606869155"/>
      <point x="170.00000000000003" y="419.23531092624694"/>
      <point x="170.0" y="362.42997820866105" type="curve" smooth="yes"/>
      <point x="169.99999999999994" y="176.7546596953065"/>
      <point x="160.76920663767137" y="141.56147232536355"/>
      <point x="130.7890804347329" y="110.12824911247289" type="curve"/>
      <point x="125.0" y="123.64971157455597" type="line"/>
      <point x="332.0" y="123.64971157455597" type="line"/>
      <point x="325.4680273525782" y="111.03090942103896" type="line"/>
      <point x="304.87459626969655" y="140.15441895424573"/>
      <point x="296.99999999999994" y="177.49569267279813"/>
    </contour>
  </outline>
</glyph>
<glyph name="two" format="2">
  <advance width="519"/>
  <unicode hex="0032"/>
  <outline>
    <contour>
      <point x="478.0" y="468.4959953866432" type="curve" smooth="yes"/>
      <point x="478.0" y="404.0961230416911"/>
      <point x="430.9886535062258" y="361.10927880510735"/>
      <point x="370.618802252774" y="318.4213462285375" type="curve" smooth="yes"/>
      <point x="320.7794390720834" y="283.17959341744614"/>
      <point x="262.57790521208045" y="247.05798986986062"/>
      <point x="220.00177299729054" y="198.7485676698994" type="curve"/>
      <point x="214.0992354214589" y="212.03744371989217" type="line"/>
      <point x="382.1528062593859" y="209.9526749559955"/>
      <point x="438.75953743031965" y="219.87389786507342"/>
      <point x="475.12200597419854" y="240.0266625827415" type="curve" smooth="yes"/>
      <point x="480.9895547115884" y="243.27856857013006"/>
      <point x="488.0131326466311" y="238.29882627025077"/>
      <point x="486.88634171640666" y="231.6857057559986" type="curve" smooth="yes"/>
      <point x="466.88634171640666" y="114.30598007903174" type="line" smooth="yes"/>
      <point x="466.2313107863865" y="110.46161253524681"/>
      <point x="462.8997727281202" y="107.64971157455597"/>
      <point x="459.0" y="107.64971157455597" type="curve" smooth="yes"/>
      <point x="27.0" y="107.64971157455597" type="line" smooth="yes"/>
      <point x="21.82060880614091" y="107.64971157455597"/>
      <point x="18.006480098945616" y="112.4965079768852"/>
      <point x="19.22427554869914" y="117.53069782050301" type="curve" smooth="yes"/>
      <point x="45.72869063887791" y="227.0961074178325"/>
      <point x="132.80129590640337" y="292.31808601678307"/>
      <point x="205.26414168873765" y="345.5430622072507" type="curve" smooth="yes"/>
      <point x="258.8000106882635" y="384.86590858558645"/>
      <point x="309.0" y="419.53949665335773"/>
      <point x="309.0" y="460.71782079359116" type="curve" smooth="yes"/>
      <point x="309.0" y="490.4753334608213"/>
      <point x="281.99134097371393" y="508.5792565073284"/>
      <point x="222.0" y="508.5792565073284" type="curve" smooth="yes"/>
      <point x="167.29346647053057" y="508.5792565073284"/>
      <point x="104.61503897291111" y="490.506269816268"/>
      <point x="52.83921259680608" y="462.1845234914505" type="curve" smooth="yes"/>
      <point x="47.507991404302615" y="459.2683074735975"/>
      <point x="41.0" y="463.1264060863904"/>
      <point x="41.0" y="469.20310216782974" type="curve" smooth="yes"/>
      <point x="41.0" y="585.1686142824235" type="line" smooth="yes"/>
      <point x="41.0" y="588.9570958710945"/>
      <point x="43.657344473266754" y="592.2261368413931"/>
      <point x="47.36595580298272" y="592.9999551358275" type="curve" smooth="yes"/>
      <point x="108.92911143870994" y="605.8453821322666"/>
      <point x="167.45530848347693" y="611.5533905932738"/>
      <point x="227.0" y="611.5533905932738" type="curve" smooth="yes"/>
      <point x="378.64027662218746" y="611.5533905932738"/>
      <point x="478.0" y="558.7136221719359"/>
    </contour>
    <contour>
      <point x="462.0" y="468.4959953866432" type="curve" smooth="yes"/>
      <point x="462.0" y="550.6948363212132"/>
      <point x="365.1620800889143" y="595.5533905932738"/>
      <point x="227.0" y="595.5533905932738" type="curve" smooth="yes"/>
      <point x="168.55236221197572" y="595.5533905932738"/>
      <point x="111.0629578422627" y="589.9460357754002"/>
      <point x="50.63404419701728" y="577.3372734290195" type="curve"/>
      <point x="57.0" y="585.1686142824235" type="line"/>
      <point x="57.0" y="469.20310216782974" type="line"/>
      <point x="45.16078740319392" y="476.221680844209" type="line"/>
      <point x="99.40550966303536" y="505.89393082711666"/>
      <point x="164.68482176318642" y="524.5792565073284"/>
      <point x="222.0" y="524.5792565073284" type="curve" smooth="yes"/>
      <point x="295.7189327894237" y="524.5792565073284"/>
      <point x="325.0" y="497.2846326149365"/>
      <point x="325.0" y="460.71782079359116" type="curve" smooth="yes"/>
      <point x="325.0" y="412.93980616329407"/>
      <point x="276.8519736634625" y="378.2730042752428"/>
      <point x="214.73585831126235" y="332.6478466517592" type="curve" smooth="yes"/>
      <point x="145.01650701434656" y="281.4380056259207"/>
      <point x="60.27666367941411" y="219.1859111875854"/>
      <point x="34.77572445130086" y="113.76872532860892" type="curve"/>
      <point x="27.0" y="123.64971157455597" type="line"/>
      <point x="459.0" y="123.64971157455597" type="line"/>
      <point x="451.11365828359334" y="116.99344307008019" type="line"/>
      <point x="471.11365828359334" y="234.37316874704706" type="line"/>
      <point x="482.87799402580146" y="226.03221192030418" type="line"/>
      <point x="445.2548447077667" y="205.18075418087403"/>
      <point x="387.7807249402692" y="193.8816273735018"/>
      <point x="213.9007645785411" y="196.03867472585665" type="curve" smooth="yes"/>
      <point x="207.06131776453765" y="196.12352067711532"/>
      <point x="203.47572953266283" y="204.1960550688992"/>
      <point x="207.99822700270946" y="209.32755077584943" type="curve" smooth="yes"/>
      <point x="251.43861339340668" y="258.6176073758863"/>
      <point x="310.5301438489246" y="295.5281651819733"/>
      <point x="361.381197747226" y="331.4852913830105" type="curve" smooth="yes"/>
      <point x="416.30277657674964" y="370.3207134586848"/>
      <point x="462.0" y="409.90809774953726"/>
    </contour>
  </outline>
</glyph>
<glyph name="three" format="2">
  <advance width="523"/>
  <unicode hex="0033"/>
  <outline>
    <contour>
      <point x="228.0" y="202.13856428626272" type="curve" smooth="yes"/>
      <point x="294.75619929688656" y="202.13856428626272"/>
      <point x="333.0" y="221.28008445637087"/>
      <point x="333.0" y="256.3639610306789" type="curve" smooth="yes"/>
      <point x="333.0" y="304.580974129307"/>
      <point x="267.8334612976997" y="330.2490686316156"/>
      <point x="94.09123365135204" y="328.26754754537063" type="curve" smooth="yes"/>
      <point x="86.93649147339987" y="328.1859480822792"/>
      <point x="83.28125648887604" y="336.81977647760567"/>
      <point x="88.31964948688385" y="341.9002872888303" type="curve" smooth="yes"/>
      <point x="257.31964948688386" y="512.3130215547883" type="line"/>
      <point x="263.0934953374928" y="498.68030792550655" type="line"/>
      <point x="143.46586061347838" y="497.28213417789243"/>
      <point x="100.39111949653994" y="489.8439033820688"/>
      <point x="69.7427172118751" y="478.65851340115535" type="curve" smooth="yes"/>
      <point x="64.52375276204783" y="476.75380880593247"/>
      <point x="59.0" y="480.61799308261976"/>
      <point x="59.0" y="486.17366491630685" type="curve" smooth="yes"/>
      <point x="59.0" y="596.4823227814084" type="line" smooth="yes"/>
      <point x="59.0" y="600.9006007800547"/>
      <point x="62.581722001353654" y="604.4823227814084"/>
      <point x="67.0" y="604.4823227814084" type="curve" smooth="yes"/>
      <point x="498.0" y="604.4823227814084" type="line" smooth="yes"/>
      <point x="505.0953331752926" y="604.4823227814084"/>
      <point x="508.6789448719682" y="595.9310612374275"/>
      <point x="503.7035157660632" y="590.8725181585834" type="curve" smooth="yes"/>
      <point x="318.7035157660632" y="402.7821143629617" type="line"/>
      <point x="314.25821006645873" y="416.29235615272" type="line"/>
      <point x="430.3414563082713" y="397.80513754917644"/>
      <point x="502.0" y="338.8952627079574"/>
      <point x="502.0" y="262.72792206135784" type="curve" smooth="yes"/>
      <point x="502.0" y="128.81831792626144"/>
      <point x="279.571291232563" y="61.44738213597006"/>
      <point x="56.044602091737985" y="117.79186037860627" type="curve" smooth="yes"/>
      <point x="52.49063893430121" y="118.68770955245222"/>
      <point x="50.0" y="121.88407351675959"/>
      <point x="50.0" y="125.54920651116763" type="curve" smooth="yes"/>
      <point x="50.0" y="240.80761184457486" type="line" smooth="yes"/>
      <point x="50.0" y="246.80391987889988"/>
      <point x="56.35294867944704" y="250.6687949373876"/>
      <point x="61.67797143942372" y="247.9120137258583" type="curve" smooth="yes"/>
      <point x="116.49330347579881" y="219.53394206813627"/>
      <point x="170.24813231881913" y="202.13856428626272"/>
    </contour>
    <contour>
      <point x="228.0" y="186.13856428626272" type="curve" smooth="yes"/>
      <point x="167.73498624138838" y="186.13856428626272"/>
      <point x="111.52271958569915" y="204.09023037384046"/>
      <point x="54.32202856057628" y="233.70320996329144" type="curve"/>
      <point x="66.0" y="240.80761184457486" type="line"/>
      <point x="66.0" y="125.54920651116763" type="line"/>
      <point x="59.955397908262015" y="133.30655264372896" type="line"/>
      <point x="268.2459581030242" y="80.8026526300424"/>
      <point x="486.0" y="137.94592592493396"/>
      <point x="486.0" y="262.72792206135784" type="curve" smooth="yes"/>
      <point x="486.0" y="332.12530416185535"/>
      <point x="417.5072443464342" y="383.6474570371791"/>
      <point x="311.74178993354127" y="400.49148181885334" type="curve" smooth="yes"/>
      <point x="305.31964383776534" y="401.5142617859916"/>
      <point x="302.73635875033324" y="409.3654217514782"/>
      <point x="307.2964842339368" y="414.00172360861166" type="curve" smooth="yes"/>
      <point x="492.2964842339368" y="602.0921274042333" type="line"/>
      <point x="498.0" y="588.4823227814084" type="line"/>
      <point x="67.0" y="588.4823227814084" type="line"/>
      <point x="75.0" y="596.4823227814084" type="line"/>
      <point x="75.0" y="486.17366491630685" type="line"/>
      <point x="64.2572827881249" y="493.68881643145835" type="line"/>
      <point x="95.60609596842069" y="505.1298272092324"/>
      <point x="140.5450080555461" y="513.2490888687053"/>
      <point x="262.9065046625072" y="514.679215215927" type="curve" smooth="yes"/>
      <point x="270.06231666234" y="514.7628503099762"/>
      <point x="273.71951333348363" y="506.12778865546295"/>
      <point x="268.68035051311614" y="501.04650158664526" type="curve" smooth="yes"/>
      <point x="99.68035051311615" y="330.6337673206873" type="line"/>
      <point x="93.90876634864796" y="344.266507064147" type="line"/>
      <point x="291.4062893845116" y="346.51895606102124"/>
      <point x="349.0" y="311.17355328795327"/>
      <point x="349.0" y="256.3639610306789" type="curve" smooth="yes"/>
      <point x="349.0" y="213.85076745756461"/>
      <point x="308.8924069979261" y="186.13856428626272"/>
    </contour>
  </outline>
</glyph>
<glyph name="four" format="2">
  <advance width="579"/>
  <unicode hex="0034"/>
  <outline>
    <contour>
      <point x="292.0" y="107.64971157455597" type="line" smooth="yes"/>
      <point x="285.5748693474667" y="107.64971157455597"/>
      <point x="281.771163686292" y="114.84149652304251"/>
      <point x="285.3874108308356" y="120.15234019346849" type="curve" smooth="yes"/>
      <point x="297.8487488905379" y="138.453140917021"/>
      <point x="305.13227252713193" y="161.21647566090488"/>
      <point x="308.0079659255248" y="225.6081819104415" type="curve"/>
      <point x="316.0" y="217.25126265847084" type="line"/>
      <point x="-5.000000000000001" y="217.25126265847084" type="line" smooth="yes"/>
      <point x="-11.589672042346777" y="217.25126265847084"/>
      <point x="-15.353456022676653" y="224.77196524330225"/>
      <point x="-11.403503049965952" y="230.04658837098262" type="curve" smooth="yes"/>
      <point x="266.59649695003407" y="601.2776484939202" type="line" smooth="yes"/>
      <point x="268.1070929485207" y="603.2948432922499"/>
      <point x="270.47988589047003" y="604.4823227814084"/>
      <point x="273.0" y="604.4823227814084" type="curve" smooth="yes"/>
      <point x="486.0" y="604.4823227814084" type="line" smooth="yes"/>
      <point x="492.4895403776583" y="604.4823227814084"/>
      <point x="496.2787105313798" y="597.1622081580417"/>
      <point x="492.5319726474218" y="591.8635206278914" type="curve" smooth="yes"/>
      <point x="471.24279291436" y="561.7560739175967"/>
      <point x="466.03221082730886" y="501.6453690958651"/>
      <point x="466.9999008151753" y="307.3154857839641" type="curve"/>
      <point x="458.7866097550121" y="315.27280280742036" type="line"/>
      <point x="510.58833699473695" y="316.6550425284915"/>
      <point x="528.7510303863382" y="320.62986312473606"/>
      <point x="551.2310252262188" y="328.92330145116296" type="curve" smooth="yes"/>
      <point x="556.454423400777" y="330.8503450703287"/>
      <point x="562.0" y="326.98531447768335"/>
      <point x="562.0" y="321.4177848998413" type="curve" smooth="yes"/>
      <point x="562.0" y="210.40202025355333" type="line" smooth="yes"/>
      <point x="562.0" y="204.88054729136616"/>
      <point x="556.5390279649343" y="201.0190569335011"/>
      <point x="551.3333333333334" y="202.85954792089683" type="curve" smooth="yes"/>
      <point x="529.8199728932275" y="210.4656694475515"/>
      <point x="511.6501288388233" y="214.45719187688584"/>
      <point x="461.77824781857794" y="215.84012306355032" type="curve"/>
      <point x="469.99168830944416" y="224.20162825717756" type="line"/>
      <point x="472.8659438611378" y="161.19705492174282"/>
      <point x="480.15748177849196" y="138.4439905166592"/>
      <point x="492.6125891691644" y="120.15234019346849" type="curve" smooth="yes"/>
      <point x="496.22883631370803" y="114.84149652304238"/>
      <point x="492.4251306525335" y="107.64971157455597"/>
      <point x="486.0" y="107.64971157455597" type="curve" smooth="yes"/>
    </contour>
    <contour>
      <point x="201.49568612881194" y="301.1917396084259" type="line"/>
      <point x="195.0" y="313.86143571373725" type="line"/>
      <point x="319.0" y="313.86143571373725" type="line"/>
      <point x="311.0" y="305.86143571373725" type="line"/>
      <point x="311.0" y="361.6429580713807"/>
      <point x="310.0008666363852" y="433.7157425272881"/>
      <point x="309.0022972003345" y="475.37536049059145" type="curve"/>
      <point x="323.49568612881194" y="470.8973670931973" type="line"/>
    </contour>
    <contour>
      <point x="292.0" y="123.64971157455597" type="line"/>
      <point x="486.0" y="123.64971157455597" type="line"/>
      <point x="479.3874108308356" y="111.14708295564344" type="line"/>
      <point x="465.8600523611253" y="131.01344806701132"/>
      <point x="457.1300097989504" y="155.04387899586175"/>
      <point x="454.00831169055584" y="223.4724699350179" type="curve" smooth="yes"/>
      <point x="453.7964413805662" y="228.11673285571658"/>
      <point x="457.57444542789915" y="231.9628434470636"/>
      <point x="462.22175218142206" y="231.83397512864514" type="curve" smooth="yes"/>
      <point x="514.3412853939649" y="230.388717271121"/>
      <point x="534.1837307710598" y="225.89341080259283"/>
      <point x="556.6666666666666" y="217.94449258620983" type="curve"/>
      <point x="546.0" y="210.40202025355333" type="line"/>
      <point x="546.0" y="321.4177848998413" type="line"/>
      <point x="556.7689747737812" y="313.91226834851966" type="line"/>
      <point x="533.2523348027925" y="305.23638542980206"/>
      <point x="513.4039084390059" y="300.72447623125333"/>
      <point x="459.2133902449879" y="299.27849574480035" type="curve" smooth="yes"/>
      <point x="454.72876839367837" y="299.15883134773924"/>
      <point x="451.0224385925779" y="302.7496503026265"/>
      <point x="451.0000991848247" y="307.2358127682566" type="curve" smooth="yes"/>
      <point x="449.968882350967" y="514.3230509390886"/>
      <point x="456.7812570077094" y="569.0171866267684"/>
      <point x="479.4680273525782" y="601.1011249349253" type="curve"/>
      <point x="486.0" y="588.4823227814084" type="line"/>
      <point x="273.0" y="588.4823227814084" type="line"/>
      <point x="279.40350304996593" y="591.6869970688965" type="line"/>
      <point x="1.4035030499659529" y="220.45593694595905" type="line"/>
      <point x="-4.999999999999999" y="233.25126265847084" type="line"/>
      <point x="316.0" y="233.25126265847084" type="line" smooth="yes"/>
      <point x="320.5583631439359" y="233.25126265847084"/>
      <point x="324.19540501991827" y="229.44816760277115"/>
      <point x="323.9920340744752" y="224.89434340650018" type="curve" smooth="yes"/>
      <point x="320.87033596608063" y="154.99416986650198"/>
      <point x="312.1399476388747" y="131.01344806701132"/>
      <point x="298.6125891691644" y="111.14708295564344" type="curve"/>
    </contour>
    <contour>
      <point x="188.50431387118806" y="310.5311318190486" type="curve" smooth="yes"/>
      <point x="310.50431387118806" y="480.23675930382" type="line" smooth="yes"/>
      <point x="314.9830694368747" y="486.4668414646869"/>
      <point x="324.813838678601" y="483.42944834890164"/>
      <point x="324.9977027996655" y="475.7587659064259" type="curve" smooth="yes"/>
      <point x="325.9993681810593" y="433.9699872702887"/>
      <point x="327.0" y="361.8159020231413"/>
      <point x="327.0" y="305.86143571373725" type="curve" smooth="yes"/>
      <point x="327.0" y="301.4431577150909"/>
      <point x="323.4182779986464" y="297.86143571373725"/>
      <point x="319.0" y="297.86143571373725" type="curve" smooth="yes"/>
      <point x="195.0" y="297.86143571373725" type="line" smooth="yes"/>
      <point x="188.4818784908274" y="297.86143571373725"/>
      <point x="184.69960804302187" y="305.2386728849182"/>
    </contour>
  </outline>
</glyph>
<glyph name="five" format="2">
  <advance width="527"/>
  <unicode hex="0035"/>
  <outline>
    <contour>
      <point x="61.23292732377328" y="312.806255925079" type="curve" smooth="yes"/>
      <point x="55.96085124444935" y="311.98392046626543"/>
      <point x="51.376613571777135" y="316.45530171902294"/>
      <point x="52.067306641268196" y="321.7462340448762" type="curve" smooth="yes"/>
      <point x="88.0673066412682" y="597.5178787076298" type="line" smooth="yes"/>
      <point x="88.58741081592188" y="601.5020449198579"/>
      <point x="91.98202927348247" y="604.4823227814084"/>
      <point x="96.0" y="604.4823227814084" type="curve" smooth="yes"/>
      <point x="449.0" y="604.4823227814084" type="line" smooth="yes"/>
      <point x="453.4182779986464" y="604.4823227814084"/>
      <point x="457.0" y="600.9006007800547"/>
      <point x="457.0" y="596.4823227814084" type="curve" smooth="yes"/>
      <point x="457.0" y="486.17366491630685" type="line" smooth="yes"/>
      <point x="457.0" y="480.6200612063809"/>
      <point x="451.4800506222513" y="476.756029168521"/>
      <point x="446.2618682973757" y="478.65684146626603" type="curve" smooth="yes"/>
      <point x="413.61982871649053" y="490.54726353201943"/>
      <point x="360.3669674856284" y="497.2733107498494"/>
      <point x="214.96151844350305" y="497.9727473419525" type="curve"/>
      <point x="222.92727580908368" y="504.8964121371899" type="line"/>
      <point x="210.92727580908368" y="416.5080644888714" type="line"/>
      <point x="202.78369670450968" y="425.5813824118566" type="line"/>
      <point x="392.5395127208427" y="430.7138598431308"/>
      <point x="495.0" y="368.8869003123477"/>
      <point x="495.0" y="266.9705627484771" type="curve" smooth="yes"/>
      <point x="495.0" y="126.68770750458698"/>
      <point x="276.4413428004337" y="61.52220278324084"/>
      <point x="48.086282714979724" y="117.78147285500931" type="curve" smooth="yes"/>
      <point x="44.51200917695742" y="118.6620577661154"/>
      <point x="42.0" y="121.86805708330218"/>
      <point x="42.0" y="125.54920651116763" type="curve" smooth="yes"/>
      <point x="42.0" y="240.80761184457486" type="line" smooth="yes"/>
      <point x="42.0" y="246.80391987889988"/>
      <point x="48.35294867944704" y="250.6687949373876"/>
      <point x="53.67797143942372" y="247.9120137258583" type="curve" smooth="yes"/>
      <point x="108.49330347579881" y="219.53394206813627"/>
      <point x="164.24813231881913" y="202.13856428626272"/>
      <point x="222.0" y="202.13856428626272" type="curve" smooth="yes"/>
      <point x="289.85870461814477" y="202.13856428626272"/>
      <point x="326.0" y="224.82302541237414"/>
      <point x="326.0" y="266.9705627484771" type="curve" smooth="yes"/>
      <point x="326.0" y="315.1634673405558"/>
      <point x="251.6936409400905" y="342.51421081060704"/>
    </contour>
    <contour>
      <point x="58.76707267622672" y="328.61510031223054" type="line"/>
      <point x="275.48556432496775" y="362.4187286328214"/>
      <point x="342.0" y="321.8075598018801"/>
      <point x="342.0" y="266.9705627484771" type="curve" smooth="yes"/>
      <point x="342.0" y="217.27857460744315"/>
      <point x="302.0054797569949" y="186.13856428626272"/>
      <point x="222.0" y="186.13856428626272" type="curve" smooth="yes"/>
      <point x="161.73498624138838" y="186.13856428626272"/>
      <point x="103.52271958569915" y="204.09023037384046"/>
      <point x="46.32202856057628" y="233.70320996329144" type="curve"/>
      <point x="58.0" y="240.80761184457486" type="line"/>
      <point x="58.0" y="125.54920651116763" type="line"/>
      <point x="51.913717285020276" y="133.31694016732595" type="line"/>
      <point x="265.4525757404107" y="80.70790096248726"/>
      <point x="479.0" y="135.78958187407417"/>
      <point x="479.0" y="266.9705627484771" type="curve" smooth="yes"/>
      <point x="479.0" y="361.51491380844965"/>
      <point x="379.24637770703004" y="414.3484581829397"/>
      <point x="203.21630329549032" y="409.5872318705669" type="curve" smooth="yes"/>
      <point x="198.28485013728925" y="409.4538469099938"/>
      <point x="194.4090515296927" y="413.7721389681424"/>
      <point x="195.07272419091632" y="418.6605497935521" type="curve" smooth="yes"/>
      <point x="207.07272419091632" y="507.04889744187057" type="line" smooth="yes"/>
      <point x="207.61313182746593" y="511.0293756127999"/>
      <point x="211.02153327168392" y="513.9918847634472"/>
      <point x="215.03848155649695" y="513.9725622371079" type="curve" smooth="yes"/>
      <point x="363.54398852004323" y="513.2582135907305"/>
      <point x="418.4001607516241" y="505.83441535476265"/>
      <point x="451.7381317026243" y="493.69048836634767" type="curve"/>
      <point x="441.0" y="486.17366491630685" type="line"/>
      <point x="441.0" y="596.4823227814084" type="line"/>
      <point x="449.0" y="588.4823227814084" type="line"/>
      <point x="96.0" y="588.4823227814084" type="line"/>
      <point x="103.9326933587318" y="595.4467668551869" type="line"/>
      <point x="67.9326933587318" y="319.6751221924333" type="line"/>
    </contour>
  </outline>
</glyph>
<glyph name="six" format="2">
  <advance width="570"/>
  <unicode hex="0036"/>
  <outline>
    <contour>
      <point x="504.0" y="469.9102089490163" type="line" smooth="yes"/>
      <point x="504.0" y="463.9391054743967"/>
      <point x="497.69543756948826" y="460.0725482437174"/>
      <point x="492.37319889300295" y="462.77954883018543" type="curve" smooth="yes"/>
      <point x="436.60615423039735" y="491.1438202925384"/>
      <point x="379.8535678441771" y="507.1650429449553"/>
      <point x="328.0" y="507.1650429449553" type="curve" smooth="yes"/>
      <point x="254.7411694887831" y="507.1650429449553"/>
      <point x="200.58208322413742" y="480.2484013506655"/>
      <point x="192.970776158037" y="391.4452884884757" type="curve"/>
      <point x="180.9070113318971" y="399.0021406195173" type="line"/>
      <point x="220.07366769030935" y="422.32425287841113"/>
      <point x="271.46492584419445" y="434.7766952966369"/>
      <point x="323.0" y="434.7766952966369" type="curve" smooth="yes"/>
      <point x="436.59191556569897" y="434.7766952966369"/>
      <point x="548.0" y="380.30353201117003"/>
      <point x="548.0" y="270.5060966544099" type="curve" smooth="yes"/>
      <point x="548.0" y="172.98902546020287"/>
      <point x="448.5744711391601" y="94.92178951319808"/>
      <point x="292.0" y="94.92178951319809" type="curve" smooth="yes"/>
      <point x="134.61984439640204" y="94.9217895131981"/>
      <point x="27.00000000000003" y="176.8761242411779"/>
      <point x="27.0" y="339.8025612106915" type="curve" smooth="yes"/>
      <point x="26.999999999999964" y="567.2032162655315"/>
      <point x="223.133708230756" y="655.055698851995"/>
      <point x="497.7639981885995" y="592.9717104878165" type="curve" smooth="yes"/>
      <point x="501.4106123335863" y="592.1473427526305"/>
      <point x="504.0" y="588.9072473060344"/>
      <point x="504.0" y="585.1686142824235" type="curve" smooth="yes"/>
    </contour>
    <contour>
      <point x="293.0" y="199.31013716151654" type="curve" smooth="yes"/>
      <point x="345.7377163367634" y="199.31013716151654"/>
      <point x="383.0" y="227.10755922342344"/>
      <point x="383.0" y="266.9705627484771" type="curve" smooth="yes"/>
      <point x="383.0" y="308.1606494021807"/>
      <point x="345.7904936327728" y="334.63098833543773"/>
      <point x="293.0" y="334.63098833543773" type="curve" smooth="yes"/>
      <point x="240.31500819514426" y="334.63098833543773"/>
      <point x="204.0" y="308.91503357931634"/>
      <point x="204.0" y="269.09188309203677" type="curve" smooth="yes"/>
      <point x="204.0" y="227.1540349964119"/>
      <point x="240.07805744450195" y="199.31013716151654"/>
    </contour>
    <contour>
      <point x="488.0" y="469.9102089490163" type="line"/>
      <point x="488.0" y="585.1686142824235" type="line"/>
      <point x="494.2360018114005" y="577.3655180770305" type="line"/>
      <point x="230.79491845213352" y="636.92003100579"/>
      <point x="42.999999999999964" y="557.9382771706823"/>
      <point x="43.0" y="339.8025612106915" type="curve" smooth="yes"/>
      <point x="43.00000000000003" y="185.9159178137556"/>
      <point x="143.3519086674871" y="110.9217895131981"/>
      <point x="292.0" y="110.92178951319809" type="curve" smooth="yes"/>
      <point x="437.39421708242156" y="110.92178951319808"/>
      <point x="532.0" y="179.95226552665835"/>
      <point x="532.0" y="270.5060966544099" type="curve" smooth="yes"/>
      <point x="532.0" y="371.39843629168183"/>
      <point x="427.37906940234564" y="418.7766952966369"/>
      <point x="323.0" y="418.7766952966369" type="curve" smooth="yes"/>
      <point x="274.5435155102462" y="418.7766952966369"/>
      <point x="225.91991688031567" y="407.18368703358067"/>
      <point x="189.0929886681029" y="385.2547854174748" type="curve" smooth="yes"/>
      <point x="183.4948164099393" y="381.92130704610815"/>
      <point x="176.47282173475975" y="386.31994844786306"/>
      <point x="177.029223841963" y="392.81163754851644" type="curve" smooth="yes"/>
      <point x="185.4207144065056" y="490.7173556089578"/>
      <point x="247.23190331627762" y="523.1650429449553"/>
      <point x="328.0" y="523.1650429449553" type="curve" smooth="yes"/>
      <point x="382.1634364757801" y="523.1650429449553"/>
      <point x="441.37555810474305" y="506.6686551470929"/>
      <point x="499.62680110699705" y="477.04086906784715" type="curve"/>
    </contour>
    <contour>
      <point x="293.0" y="183.31013716151654" type="curve" smooth="yes"/>
      <point x="229.9463807575899" y="183.31013716151654"/>
      <point x="188.0" y="219.1252156195699"/>
      <point x="188.0" y="269.09188309203677" type="curve" smooth="yes"/>
      <point x="188.0" y="316.8955570680484"/>
      <point x="229.75698329109738" y="350.63098833543773"/>
      <point x="293.0" y="350.63098833543773" type="curve" smooth="yes"/>
      <point x="356.14824696936984" y="350.63098833543773"/>
      <point x="399.0" y="316.2423460887081"/>
      <point x="399.0" y="266.9705627484771" type="curve" smooth="yes"/>
      <point x="399.0" y="219.19077866450752"/>
      <point x="356.21141100340094" y="183.31013716151654"/>
    </contour>
  </outline>
</glyph>
<glyph name="seven" format="2">
  <advance width="503"/>
  <unicode hex="0037"/>
  <outline>
    <contour>
      <point x="224.95141853427444" y="366.21382536744403" type="curve" smooth="yes"/>
      <point x="224.95514187381175" y="366.22075306109946" type="line"/>
      <point x="302.9551418738118" y="511.1776432043417" type="line"/>
      <point x="310.0" y="499.3868683519033" type="line"/>
      <point x="121.49617918707295" y="499.3868683519033"/>
      <point x="72.45845574145264" y="491.28305674554844"/>
      <point x="37.73406769696608" y="478.6553623267321" type="curve" smooth="yes"/>
      <point x="32.51658048868846" y="476.7579974540724"/>
      <point x="27.0" y="480.62189346671136"/>
      <point x="27.0" y="486.17366491630685" type="curve" smooth="yes"/>
      <point x="27.0" y="596.4823227814084" type="line" smooth="yes"/>
      <point x="27.0" y="600.9006007800547"/>
      <point x="30.581722001353654" y="604.4823227814084"/>
      <point x="35.0" y="604.4823227814084" type="curve" smooth="yes"/>
      <point x="503.0" y="604.4823227814084" type="line" smooth="yes"/>
      <point x="509.1110771664685" y="604.4823227814084"/>
      <point x="512.9656198904714" y="597.9076944287945"/>
      <point x="509.9809292822563" y="592.5750697366035" type="curve" smooth="yes"/>
      <point x="378.9834915711791" y="358.52730662687634" type="line" smooth="yes"/>
      <point x="285.60498226970594" y="191.43458079266858"/>
      <point x="275.98377670506574" y="152.1878602169627"/>
      <point x="292.18208954307636" y="119.1735716448813" type="curve" smooth="yes"/>
      <point x="294.7901099623071" y="113.85808357007892"/>
      <point x="290.9208262920382" y="107.64971157455597"/>
      <point x="285.0" y="107.64971157455597" type="curve" smooth="yes"/>
      <point x="71.0" y="107.64971157455597" type="line" smooth="yes"/>
      <point x="63.5888850799431" y="107.64971157455597"/>
      <point x="60.16171986152017" y="116.85648744360691"/>
      <point x="65.76894297515568" y="121.70248303916843" type="curve" smooth="yes"/>
      <point x="101.48545639234187" y="152.57018050738614"/>
      <point x="132.68375887321014" y="194.33687355577734"/>
    </contour>
    <contour>
      <point x="239.04858146572556" y="358.6461310498781" type="line"/>
      <point x="145.3319396176752" y="184.07000335748128"/>
      <point x="112.5084667724767" y="140.94938753225142"/>
      <point x="76.23105702484432" y="109.5969401099435" type="curve"/>
      <point x="71.0" y="123.64971157455597" type="line"/>
      <point x="285.0" y="123.64971157455597" type="line"/>
      <point x="277.81791045692364" y="112.12585150423062" type="line"/>
      <point x="260.07515259451884" y="148.2879218378429"/>
      <point x="262.73472781025254" y="183.30829381624503"/>
      <point x="365.0165084288209" y="366.33264979044577" type="curve" smooth="yes"/>
      <point x="496.0190707177437" y="600.3895758262132" type="line"/>
      <point x="503.0" y="588.4823227814084" type="line"/>
      <point x="35.0" y="588.4823227814084" type="line"/>
      <point x="43.0" y="596.4823227814084" type="line"/>
      <point x="43.0" y="486.17366491630685" type="line"/>
      <point x="32.26593230303392" y="493.6919675058816" type="line"/>
      <point x="67.53563622434318" y="506.51796872409847"/>
      <point x="118.53589299860691" y="515.3868683519033"/>
      <point x="310.0" y="515.3868683519033" type="curve" smooth="yes"/>
      <point x="316.0523890797892" y="515.3868683519033"/>
      <point x="319.91276366629296" y="508.9258712984156"/>
      <point x="317.0448581261882" y="503.59609349946487" type="curve" smooth="yes"/>
      <point x="239.04485812618825" y="358.63920335622265" type="line"/>
    </contour>
  </outline>
</glyph>
<glyph name="eight" format="2">
  <advance width="568"/>
  <unicode hex="0038"/>
  <outline>
    <contour>
      <point x="285.0" y="94.92178951319809" type="curve" smooth="yes"/>
      <point x="132.62102071111238" y="94.9217895131981"/>
      <point x="27.999999999999993" y="159.99471953785255"/>
      <point x="28.0" y="249.29289321881345" type="curve"/>
      <point x="28.0" y="307.50552158642637"/>
      <point x="65.72056574030618" y="350.8094629940911"/>
      <point x="126.93665721792232" y="376.1841984363839" type="curve"/>
      <point x="126.61856605020962" y="361.5437044539551" type="line"/>
      <point x="76.61339251220906" y="384.86559629218993"/>
      <point x="47.0" y="422.4236815602517"/>
      <point x="47.0" y="471.3244225113894" type="curve"/>
      <point x="47.00000000000001" y="553.571962778245"/>
      <point x="146.67876150385317" y="617.2102448427661"/>
      <point x="285.0" y="617.2102448427661" type="curve" smooth="yes"/>
      <point x="422.2733503257215" y="617.2102448427661"/>
      <point x="521.0" y="553.571962778245"/>
      <point x="521.0" y="471.3244225113894" type="curve" smooth="yes"/>
      <point x="521.0" y="422.4236815602517"/>
      <point x="491.38269203836353" y="384.8938947488187"/>
      <point x="442.4414583628737" y="361.5720029105839" type="curve"/>
      <point x="442.10902829895116" y="376.1650953926392" type="line"/>
      <point x="502.26966992350503" y="350.79035995034644"/>
      <point x="540.0" y="307.50552158642637"/>
      <point x="540.0" y="249.29289321881345" type="curve" smooth="yes"/>
      <point x="540.0" y="159.99471953785255"/>
      <point x="435.2915960109577" y="94.92178951319808"/>
    </contour>
    <contour>
      <point x="285.0" y="414.97770542341357" type="curve" smooth="yes"/>
      <point x="326.4377568926119" y="414.97770542341357"/>
      <point x="357.0" y="434.329011997302"/>
      <point x="357.0" y="464.2533546995239" type="curve" smooth="yes"/>
      <point x="357.0" y="494.1776974017458"/>
      <point x="326.4377568926119" y="513.5290039756342"/>
      <point x="285.0" y="513.5290039756342" type="curve" smooth="yes"/>
      <point x="242.65941841462484" y="513.5290039756342"/>
      <point x="211.0" y="494.19266705792495"/>
      <point x="211.0" y="464.2533546995239" type="curve" smooth="yes"/>
      <point x="211.0" y="434.3738760718388"/>
      <point x="243.624368669589" y="414.97770542341357"/>
    </contour>
    <contour>
      <point x="285.0" y="198.60303038032998" type="curve" smooth="yes"/>
      <point x="333.5686896956139" y="198.60303038032998"/>
      <point x="374.0" y="223.01230066711886"/>
      <point x="374.0" y="259.89949493661163" type="curve" smooth="yes"/>
      <point x="374.0" y="297.3851615146164"/>
      <point x="333.52013314809074" y="319.7817459305202"/>
      <point x="285.0" y="319.78174593052023" type="curve" smooth="yes"/>
      <point x="235.5813458676853" y="319.7817459305203"/>
      <point x="194.0" y="297.3851615146164"/>
      <point x="194.0" y="259.89949493661163" type="curve" smooth="yes"/>
      <point x="194.0" y="223.01230066711886"/>
      <point x="235.53189012483762" y="198.60303038032998"/>
    </contour>
    <contour>
      <point x="285.0" y="110.92178951319809" type="curve" smooth="yes"/>
      <point x="422.55089070306764" y="110.92178951319808"/>
      <point x="524.0" y="167.56481490977845"/>
      <point x="524.0" y="249.29289321881345" type="curve" smooth="yes"/>
      <point x="524.0" y="301.3802859510304"/>
      <point x="489.7214042926082" y="338.71802215148455"/>
      <point x="435.89097170104884" y="361.42278308604074" type="curve" smooth="yes"/>
      <point x="429.5296744258593" y="364.1058700855955"/>
      <point x="429.32602085825965" y="373.0459018962417"/>
      <point x="435.5585416371263" y="376.0158755680961" type="curve" smooth="yes"/>
      <point x="478.5909768864015" y="396.5220566560903"/>
      <point x="505.0" y="428.32759119785305"/>
      <point x="505.0" y="471.3244225113894" type="curve" smooth="yes"/>
      <point x="505.0" y="545.9624297457772"/>
      <point x="409.57283563079125" y="601.2102448427661"/>
      <point x="285.0" y="601.2102448427661" type="curve" smooth="yes"/>
      <point x="159.47622669263782" y="601.2102448427661"/>
      <point x="63.00000000000001" y="545.9624297457772"/>
      <point x="63.0" y="471.3244225113894" type="curve"/>
      <point x="63.0" y="428.32759119785305"/>
      <point x="89.41351097770496" y="396.55035511271905"/>
      <point x="133.3814339497904" y="376.04417402472484" type="curve" smooth="yes"/>
      <point x="139.68816484471785" y="373.1027804572657"/>
      <point x="139.49187611640122" y="364.0683769986522"/>
      <point x="133.06334278207768" y="361.40368004229606" type="curve" smooth="yes"/>
      <point x="78.28851663628032" y="338.69891910773987"/>
      <point x="44.0" y="301.3802859510304"/>
      <point x="44.0" y="249.29289321881345" type="curve"/>
      <point x="43.99999999999999" y="167.56481490977845"/>
      <point x="145.53868025938974" y="110.9217895131981"/>
    </contour>
    <contour>
      <point x="285.0" y="398.97770542341357" type="curve" smooth="yes"/>
      <point x="232.468315068992" y="398.97770542341357"/>
      <point x="195.0" y="426.317514043996"/>
      <point x="195.0" y="464.2533546995239" type="curve" smooth="yes"/>
      <point x="195.0" y="502.1323484504452"/>
      <point x="231.43101330840142" y="529.5290039756342"/>
      <point x="285.0" y="529.5290039756342" type="curve" smooth="yes"/>
      <point x="337.4529661355236" y="529.5290039756342"/>
      <point x="373.0" y="502.1323484504452"/>
      <point x="373.0" y="464.2533546995239" type="curve" smooth="yes"/>
      <point x="373.0" y="426.3743609486026"/>
      <point x="337.4529661355236" y="398.97770542341357"/>
    </contour>
    <contour>
      <point x="285.0" y="182.60303038032998" type="curve" smooth="yes"/>
      <point x="224.54492834336037" y="182.60303038032998"/>
      <point x="178.0" y="214.81958429514515"/>
      <point x="178.0" y="259.89949493661163" type="curve" smooth="yes"/>
      <point x="178.0" y="305.7566454167241"/>
      <point x="224.54492834336037" y="335.7817459305203"/>
      <point x="285.0" y="335.78174593052023" type="curve" smooth="yes"/>
      <point x="344.3855664798776" y="335.7817459305202"/>
      <point x="390.0" y="305.7795739919641"/>
      <point x="390.0" y="259.89949493661163" type="curve" smooth="yes"/>
      <point x="390.0" y="214.79704433982442"/>
      <point x="344.3855664798776" y="182.60303038032998"/>
    </contour>
  </outline>
</glyph>
<glyph name="nine" format="2">
  <advance width="570"/>
  <unicode hex="0039"/>
  <outline>
    <contour>
      <point x="66.0" y="240.80761184457486" type="line" smooth="yes"/>
      <point x="66.0" y="246.7787153191945"/>
      <point x="72.30456243051174" y="250.6452725498738"/>
      <point x="77.62680110699706" y="247.93827196340573" type="curve" smooth="yes"/>
      <point x="133.39384576960265" y="219.57400050105272"/>
      <point x="190.14643215582288" y="203.55277784863583"/>
      <point x="242.0" y="203.55277784863583" type="curve" smooth="yes"/>
      <point x="315.2588305112168" y="203.55277784863583"/>
      <point x="369.41791677586247" y="230.4694194429257"/>
      <point x="377.02922384196296" y="319.2725323051155" type="curve"/>
      <point x="389.0929886681029" y="311.71568017407384" type="line"/>
      <point x="349.9263323096908" y="288.39356791518"/>
      <point x="298.53507415580555" y="275.94112549695427"/>
      <point x="247.0" y="275.94112549695427" type="curve" smooth="yes"/>
      <point x="133.408084434301" y="275.94112549695427"/>
      <point x="21.999999999999993" y="330.4142887824211"/>
      <point x="22.0" y="440.2117241391813" type="curve" smooth="yes"/>
      <point x="22.000000000000007" y="537.7287953333883"/>
      <point x="121.42552886083995" y="615.7960312803931"/>
      <point x="278.0" y="615.7960312803931" type="curve" smooth="yes"/>
      <point x="435.3801556035979" y="615.7960312803931"/>
      <point x="543.0" y="533.8416965524133"/>
      <point x="543.0" y="370.91525958289964" type="curve" smooth="yes"/>
      <point x="543.0" y="143.5146045280597"/>
      <point x="346.86629176924396" y="55.66212194159614"/>
      <point x="72.23600181140054" y="117.74611030577468" type="curve" smooth="yes"/>
      <point x="68.58938766641378" y="118.57047804096062"/>
      <point x="66.0" y="121.81057348755685"/>
      <point x="66.0" y="125.54920651116763" type="curve" smooth="yes"/>
    </contour>
    <contour>
      <point x="277.0" y="511.4076836320746" type="curve" smooth="yes"/>
      <point x="224.2622836632366" y="511.4076836320746"/>
      <point x="187.0" y="483.6102615701677"/>
      <point x="187.0" y="443.747258045114" type="curve" smooth="yes"/>
      <point x="187.0" y="402.55717139141046"/>
      <point x="224.20950636722722" y="376.0868324581534"/>
      <point x="277.0" y="376.0868324581534" type="curve" smooth="yes"/>
      <point x="329.6849918048557" y="376.0868324581534"/>
      <point x="366.0" y="401.8027872142748"/>
      <point x="366.0" y="441.6259377015544" type="curve" smooth="yes"/>
      <point x="366.0" y="483.56378579717926"/>
      <point x="329.9219425554981" y="511.4076836320746"/>
    </contour>
    <contour>
      <point x="82.0" y="240.80761184457486" type="line"/>
      <point x="82.0" y="125.54920651116763" type="line"/>
      <point x="75.76399818859946" y="133.3523027165606" type="line"/>
      <point x="339.20508154786654" y="73.79778978780122"/>
      <point x="527.0" y="152.77954362290893"/>
      <point x="527.0" y="370.91525958289964" type="curve" smooth="yes"/>
      <point x="527.0" y="524.8019029798353"/>
      <point x="426.6480913325129" y="599.7960312803931"/>
      <point x="278.0" y="599.7960312803931" type="curve" smooth="yes"/>
      <point x="132.60578291757844" y="599.7960312803931"/>
      <point x="38.00000000000001" y="530.7655552669327"/>
      <point x="38.0" y="440.2117241391813" type="curve" smooth="yes"/>
      <point x="37.99999999999999" y="339.3193845019093"/>
      <point x="142.62093059765436" y="291.94112549695427"/>
      <point x="247.0" y="291.94112549695427" type="curve" smooth="yes"/>
      <point x="295.4564844897538" y="291.94112549695427"/>
      <point x="344.0800831196842" y="303.53413376001043"/>
      <point x="380.9070113318971" y="325.46303537611635" type="curve" smooth="yes"/>
      <point x="386.5051835900607" y="328.796513747483"/>
      <point x="393.5271782652403" y="324.39787234572805"/>
      <point x="392.97077615803704" y="317.9061832450747" type="curve" smooth="yes"/>
      <point x="384.57928559349443" y="220.0004651846334"/>
      <point x="322.7680966837223" y="187.55277784863583"/>
      <point x="242.0" y="187.55277784863583" type="curve" smooth="yes"/>
      <point x="187.83656352422005" y="187.55277784863583"/>
      <point x="128.6244418952569" y="204.0491656464983"/>
      <point x="70.37319889300294" y="233.676951725744" type="curve"/>
    </contour>
    <contour>
      <point x="277.0" y="527.4076836320746" type="curve" smooth="yes"/>
      <point x="340.0536192424101" y="527.4076836320746"/>
      <point x="382.0" y="491.5926051740212"/>
      <point x="382.0" y="441.6259377015544" type="curve" smooth="yes"/>
      <point x="382.0" y="393.82226372554277"/>
      <point x="340.24301670890264" y="360.0868324581534"/>
      <point x="277.0" y="360.0868324581534" type="curve" smooth="yes"/>
      <point x="213.8517530306302" y="360.0868324581534"/>
      <point x="171.0" y="394.4754747048831"/>
      <point x="171.0" y="443.747258045114" type="curve" smooth="yes"/>
      <point x="171.0" y="491.5270421290836"/>
      <point x="213.7885889965991" y="527.4076836320746"/>
    </contour>
  </outline>
</glyph>
<glyph name="less" format="2">
  <advance width="457"/>
  <unicode hex="003C"/>
  <outline>
    <contour>
      <point x="6.800369915023051" y="326.10631763503994" type="line" smooth="yes"/>
      <point x="0.3998766949923134" y="328.89933748116454"/>
      <point x="0.3998766949923125" y="337.97786287886066"/>
      <point x="6.8003699150230545" y="340.77088272498526" type="curve" smooth="yes"/>
      <point x="403.80036991502305" y="514.0120441156894" type="line" smooth="yes"/>
      <point x="409.08507482598924" y="516.3181610335305"/>
      <point x="415.0" y="512.4457204011927"/>
      <point x="415.0" y="506.6797615707168" type="curve" smooth="yes"/>
      <point x="415.0" y="397.0782104868019" type="line" smooth="yes"/>
      <point x="415.0" y="393.7728150789354"/>
      <point x="412.96716752287375" y="390.80775990041616"/>
      <point x="409.88403510907693" y="389.6161503497076" type="curve" smooth="yes"/>
      <point x="248.88403510907693" y="327.3907536052914" type="line"/>
      <point x="248.9124856788219" y="342.30381549856975" type="line"/>
      <point x="409.9124856788219" y="279.371311972967" type="line" smooth="yes"/>
      <point x="412.980665649426" y="278.1720060921147"/>
      <point x="415.0" y="275.2145571607541"/>
      <point x="415.0" y="271.920310216783" type="curve" smooth="yes"/>
      <point x="415.0" y="160.19743878930845" type="line" smooth="yes"/>
      <point x="415.0" y="154.43147995883248"/>
      <point x="409.0850748259893" y="150.55903932649463"/>
      <point x="403.80036991502305" y="152.86515624433582" type="curve" smooth="yes"/>
    </contour>
    <contour>
      <point x="13.199630084976949" y="340.77088272498526" type="line"/>
      <point x="410.19963008497695" y="167.52972133428108" type="line"/>
      <point x="399.0" y="160.19743878930845" type="line"/>
      <point x="399.0" y="271.920310216783" type="line"/>
      <point x="404.0875143211781" y="264.46930846059894" type="line"/>
      <point x="243.0875143211781" y="327.40181198620166" type="line" smooth="yes"/>
      <point x="236.29025832044937" y="330.0587581801786"/>
      <point x="236.30862076399865" y="339.6838820218797"/>
      <point x="243.11596489092307" y="342.31487387948" type="curve" smooth="yes"/>
      <point x="404.11596489092307" y="404.54027062389616" type="line"/>
      <point x="399.0" y="397.0782104868019" type="line"/>
      <point x="399.0" y="506.6797615707168" type="line"/>
      <point x="410.19963008497695" y="499.3474790257441" type="line"/>
      <point x="13.199630084976945" y="326.10631763503994" type="line"/>
    </contour>
  </outline>
</glyph>
<glyph name="equal" format="2">
  <advance width="490"/>
  <unicode hex="003D"/>
  <outline>
    <contour>
      <point x="48.0" y="204.0380592228744" type="line"/>
      <point x="40.0" y="212.0380592228744" type="line"/>
      <point x="450.0" y="212.0380592228744" type="line"/>
      <point x="442.0" y="204.0380592228744" type="line"/>
      <point x="442.0" y="293.84062043356596" type="line"/>
      <point x="450.0" y="285.84062043356596" type="line"/>
      <point x="40.0" y="285.84062043356596" type="line"/>
      <point x="48.0" y="293.84062043356596" type="line"/>
    </contour>
    <contour>
      <point x="48.0" y="373.7436867076458" type="line"/>
      <point x="40.0" y="381.7436867076458" type="line"/>
      <point x="450.0" y="381.7436867076458" type="line"/>
      <point x="442.0" y="373.7436867076458" type="line"/>
      <point x="442.0" y="463.5462479183374" type="line"/>
      <point x="450.0" y="455.5462479183374" type="line"/>
      <point x="40.0" y="455.5462479183374" type="line"/>
      <point x="48.0" y="463.5462479183374" type="line"/>
    </contour>
    <contour>
      <point x="32.0" y="204.0380592228744" type="curve" smooth="yes"/>
      <point x="32.0" y="293.84062043356596" type="line" smooth="yes"/>
      <point x="32.0" y="298.25889843221233"/>
      <point x="35.581722001353654" y="301.84062043356596"/>
      <point x="40.0" y="301.84062043356596" type="curve" smooth="yes"/>
      <point x="450.0" y="301.84062043356596" type="line" smooth="yes"/>
      <point x="454.4182779986464" y="301.84062043356596"/>
      <point x="458.0" y="298.25889843221233"/>
      <point x="458.0" y="293.84062043356596" type="curve" smooth="yes"/>
      <point x="458.0" y="204.0380592228744" type="line" smooth="yes"/>
      <point x="458.0" y="199.61978122422806"/>
      <point x="454.4182779986464" y="196.0380592228744"/>
      <point x="450.0" y="196.0380592228744" type="curve" smooth="yes"/>
      <point x="40.0" y="196.0380592228744" type="line" smooth="yes"/>
      <point x="35.581722001353654" y="196.0380592228744"/>
      <point x="32.0" y="199.61978122422806"/>
    </contour>
    <contour>
      <point x="32.0" y="373.7436867076458" type="curve" smooth="yes"/>
      <point x="32.0" y="463.5462479183374" type="line" smooth="yes"/>
      <point x="32.0" y="467.96452591698375"/>
      <point x="35.581722001353654" y="471.5462479183374"/>
      <point x="40.0" y="471.5462479183374" type="curve" smooth="yes"/>
      <point x="450.0" y="471.5462479183374" type="line" smooth="yes"/>
      <point x="454.4182779986464" y="471.5462479183374"/>
      <point x="458.0" y="467.96452591698375"/>
      <point x="458.0" y="463.5462479183374" type="curve" smooth="yes"/>
      <point x="458.0" y="373.7436867076458" type="line" smooth="yes"/>
      <point x="458.0" y="369.3254087089994"/>
      <point x="454.4182779986464" y="365.7436867076458"/>
      <point x="450.0" y="365.7436867076458" type="curve" smooth="yes"/>
      <point x="40.0" y="365.7436867076458" type="line" smooth="yes"/>
      <point x="35.581722001353654" y="365.7436867076458"/>
      <point x="32.0" y="369.3254087089994"/>
    </contour>
  </outline>
</glyph>
<glyph name="greater" format="2">
  <advance width="447"/>
  <unicode hex="003E"/>
  <outline>
    <contour>
      <point x="440.19963008497695" y="341.4779895061718" type="line" smooth="yes"/>
      <point x="446.6001233050077" y="338.6849696600472"/>
      <point x="446.6001233050077" y="329.60644426235103"/>
      <point x="440.19963008497695" y="326.8134244162265" type="curve" smooth="yes"/>
      <point x="43.199630084976945" y="153.57226302552237" type="line" smooth="yes"/>
      <point x="37.91492517401066" y="151.26614610768118"/>
      <point x="32.0" y="155.13858674001898"/>
      <point x="32.0" y="160.904545570495" type="curve" smooth="yes"/>
      <point x="32.0" y="270.5060966544099" type="line" smooth="yes"/>
      <point x="32.0" y="273.8114920622763"/>
      <point x="34.032832477126256" y="276.7765472407956"/>
      <point x="37.11596489092308" y="277.96815679150416" type="curve" smooth="yes"/>
      <point x="198.1159648909231" y="340.19355353592033" type="line"/>
      <point x="198.0875143211781" y="325.280491642642" type="line"/>
      <point x="37.08751432117811" y="388.2129951682448" type="line" smooth="yes"/>
      <point x="34.01933435057396" y="389.41230104909715"/>
      <point x="32.0" y="392.36974998045764"/>
      <point x="32.0" y="395.66399692442883" type="curve" smooth="yes"/>
      <point x="32.0" y="507.3868683519033" type="line" smooth="yes"/>
      <point x="32.0" y="513.1528271823794"/>
      <point x="37.91492517401063" y="517.0252678147172"/>
      <point x="43.199630084976945" y="514.7191508968759" type="curve" smooth="yes"/>
    </contour>
    <contour>
      <point x="433.80036991502305" y="326.8134244162265" type="line"/>
      <point x="36.800369915023055" y="500.0545858069306" type="line"/>
      <point x="48.0" y="507.3868683519033" type="line"/>
      <point x="48.0" y="395.66399692442883" type="line"/>
      <point x="42.91248567882189" y="403.11499868061287" type="line"/>
      <point x="203.9124856788219" y="340.1824951550101" type="line" smooth="yes"/>
      <point x="210.7097416795507" y="337.5255489610331"/>
      <point x="210.69137923600138" y="327.90042511933206"/>
      <point x="203.8840351090769" y="325.26943326173176" type="curve" smooth="yes"/>
      <point x="42.88403510907692" y="263.0440365173156" type="line"/>
      <point x="48.0" y="270.5060966544099" type="line"/>
      <point x="48.0" y="160.904545570495" type="line"/>
      <point x="36.800369915023055" y="168.23682811546763" type="line"/>
      <point x="433.80036991502305" y="341.4779895061718" type="line"/>
    </contour>
  </outline>
</glyph>
<glyph name="question" format="2">
  <advance width="523"/>
  <unicode hex="003F"/>
  <outline>
    <contour>
      <point x="496.0" y="476.2741699796952" type="curve" smooth="yes"/>
      <point x="496.00000000000006" y="409.9698197173724"/>
      <point x="434.6241536778358" y="380.2981677776131"/>
      <point x="376.1684972506506" y="355.08418858652925" type="curve" smooth="yes"/>
      <point x="338.37721667018235" y="338.7834810006471"/>
      <point x="294.0" y="321.6463704161115"/>
      <point x="294.0" y="297.37615433949867" type="curve" smooth="yes"/>
      <point x="294.0" y="292.9578763408523"/>
      <point x="290.4182779986464" y="289.37615433949867"/>
      <point x="286.0" y="289.37615433949867" type="curve" smooth="yes"/>
      <point x="179.0" y="289.37615433949867" type="line" smooth="yes"/>
      <point x="175.04995701062515" y="289.37615433949867"/>
      <point x="171.6911699530348" y="292.25913929530657"/>
      <point x="171.09243588241486" y="296.163541571019" type="curve" smooth="yes"/>
      <point x="161.4398192719254" y="359.109179893474"/>
      <point x="212.2535210906407" y="389.89984589319306"/>
      <point x="260.23980689190745" y="415.4531474759188" type="curve" smooth="yes"/>
      <point x="290.32713086930573" y="431.47502644766746"/>
      <point x="327.0" y="448.2035096635655"/>
      <point x="327.0" y="469.9102089490163" type="curve" smooth="yes"/>
      <point x="327.0" y="493.2162933631894"/>
      <point x="283.0878451927561" y="506.45793616376875"/>
      <point x="229.0" y="506.45793616376875" type="curve" smooth="yes"/>
      <point x="165.37506102920753" y="506.45793616376875"/>
      <point x="102.63752799465959" y="486.9913569703398"/>
      <point x="48.80104117321977" y="457.9211372234051" type="curve" smooth="yes"/>
      <point x="43.47092698390336" y="455.04302240002147"/>
      <point x="37.0" y="458.9029320992107"/>
      <point x="37.0" y="464.9604614807105" type="curve" smooth="yes"/>
      <point x="37.0" y="585.8757210636102" type="line" smooth="yes"/>
      <point x="37.0" y="589.6605553499973"/>
      <point x="39.652345417609745" y="592.9274982185444"/>
      <point x="43.356444583641625" y="593.7050713299707" type="curve" smooth="yes"/>
      <point x="107.94729639817513" y="607.2641331595452"/>
      <point x="173.47377260268112" y="612.9676041556469"/>
      <point x="231.0" y="612.9676041556469" type="curve" smooth="yes"/>
      <point x="395.4362246444585" y="612.9676041556469"/>
      <point x="495.99999999999994" y="564.4053952837622"/>
    </contour>
    <contour>
      <point x="152.0" y="107.64971157455597" type="line" smooth="yes"/>
      <point x="147.58172200135365" y="107.64971157455597"/>
      <point x="144.0" y="111.23143357590962"/>
      <point x="144.0" y="115.64971157455597" type="curve" smooth="yes"/>
      <point x="144.0" y="229.49390334559013" type="line" smooth="yes"/>
      <point x="144.0" y="233.91218134423647"/>
      <point x="147.58172200135365" y="237.49390334559013"/>
      <point x="152.0" y="237.49390334559013" type="curve" smooth="yes"/>
      <point x="313.0" y="237.49390334559013" type="line" smooth="yes"/>
      <point x="317.4182779986464" y="237.49390334559013"/>
      <point x="321.0" y="233.91218134423647"/>
      <point x="321.0" y="229.49390334559013" type="curve" smooth="yes"/>
      <point x="321.0" y="115.64971157455597" type="line" smooth="yes"/>
      <point x="321.0" y="111.23143357590962"/>
      <point x="317.4182779986464" y="107.64971157455597"/>
      <point x="313.0" y="107.64971157455597" type="curve" smooth="yes"/>
    </contour>
    <contour>
      <point x="480.0" y="476.2741699796952" type="curve" smooth="yes"/>
      <point x="479.99999999999994" y="556.3315217266694"/>
      <point x="380.3719011722213" y="596.9676041556469"/>
      <point x="231.0" y="596.9676041556469" type="curve" smooth="yes"/>
      <point x="174.53363806919685" y="596.9676041556469"/>
      <point x="110.04438284743554" y="591.3556199406514"/>
      <point x="46.643555416358375" y="578.0463707972497" type="curve"/>
      <point x="53.0" y="585.8757210636102" type="line"/>
      <point x="53.0" y="464.9604614807105" type="line"/>
      <point x="41.19895882678023" y="471.9997857380159" type="line"/>
      <point x="97.35013335347683" y="502.31987307866126"/>
      <point x="162.639521013904" y="522.4579361637687"/>
      <point x="229.0" y="522.4579361637687" type="curve" smooth="yes"/>
      <point x="301.98122081833736" y="522.4579361637687"/>
      <point x="343.0" y="501.3573203467795"/>
      <point x="343.0" y="469.9102089490163" type="curve" smooth="yes"/>
      <point x="343.0" y="439.6691249154229"/>
      <point x="309.67689729150135" y="423.651863419696"/>
      <point x="267.76019310809255" y="401.33069049565455" type="curve" smooth="yes"/>
      <point x="226.3408357777569" y="379.2743610350234"/>
      <point x="178.5759091481138" y="352.9202879275164"/>
      <point x="186.90756411758514" y="298.58876710797836" type="curve"/>
      <point x="179.0" y="305.37615433949867" type="line"/>
      <point x="286.0" y="305.37615433949867" type="line"/>
      <point x="278.0" y="297.37615433949867" type="line"/>
      <point x="278.0" y="330.6690285179393"/>
      <point x="317.9909939777741" y="347.4151343299119"/>
      <point x="369.8315027493494" y="369.77576783079286" type="curve" smooth="yes"/>
      <point x="421.024461492036" y="391.85709024440666"/>
      <point x="480.00000000000006" y="418.20766153721735"/>
    </contour>
    <contour>
      <point x="152.0" y="123.64971157455597" type="line"/>
      <point x="313.0" y="123.64971157455597" type="line"/>
      <point x="305.0" y="115.64971157455597" type="line"/>
      <point x="305.0" y="229.49390334559013" type="line"/>
      <point x="313.0" y="221.49390334559013" type="line"/>
      <point x="152.0" y="221.49390334559013" type="line"/>
      <point x="160.0" y="229.49390334559013" type="line"/>
      <point x="160.0" y="115.64971157455597" type="line"/>
    </contour>
  </outline>
</glyph>
<glyph name="at" format="2">
  <advance width="896"/>
  <unicode hex="0040"/>
  <outline>
    <contour>
      <point x="457.0" y="278.5060966544099" type="curve" smooth="yes"/>
      <point x="494.64414698813044" y="278.5060966544099"/>
      <point x="518.0" y="303.26377850556804"/>
      <point x="518.0" y="341.9238815542512" type="curve" smooth="yes"/>
      <point x="518.0" y="380.5839846029343"/>
      <point x="494.64414698813044" y="404.63455967290594"/>
      <point x="457.0" y="404.63455967290594" type="curve" smooth="yes"/>
      <point x="420.2888808966825" y="404.63455967290594"/>
      <point x="398.00000000000006" y="381.1784727322993"/>
      <point x="398.0" y="341.9238815542512" type="curve" smooth="yes"/>
      <point x="397.99999999999994" y="302.66929037620304"/>
      <point x="420.2888808966825" y="278.5060966544099"/>
    </contour>
    <contour>
      <point x="545.0058508058771" y="234.0952688539416" type="curve"/>
      <point x="556.5105283326094" y="233.59390886540746" type="line"/>
      <point x="523.0618123326094" y="201.81178392978035"/>
      <point x="475.127801625" y="185.4314575050762"/>
      <point x="426.0" y="185.4314575050762" type="curve" smooth="yes"/>
      <point x="326.5500985734932" y="185.4314575050762"/>
      <point x="242.0" y="242.7332735746697"/>
      <point x="242.0" y="341.9238815542512" type="curve" smooth="yes"/>
      <point x="242.0" y="442.7460284824539"/>
      <point x="331.73973392307" y="497.7091988222396"/>
      <point x="424.0" y="497.7091988222396" type="curve" smooth="yes"/>
      <point x="461.55412194176847" y="497.7091988222396"/>
      <point x="500.0314960740897" y="488.0671271566376"/>
      <point x="530.2834276382922" y="468.88867906080964" type="curve"/>
      <point x="518.0" y="462.13203435596427" type="line"/>
      <point x="518.0" y="482.63813101037414" type="line" smooth="yes"/>
      <point x="518.0" y="487.0564090090205"/>
      <point x="521.5817220013537" y="490.63813101037414"/>
      <point x="526.0" y="490.63813101037414" type="curve" smooth="yes"/>
      <point x="661.0" y="490.63813101037414" type="line" smooth="yes"/>
      <point x="665.4182779986463" y="490.63813101037414"/>
      <point x="669.0" y="487.0564090090205"/>
      <point x="669.0" y="482.63813101037414" type="curve" smooth="yes"/>
      <point x="669.0" y="295.96194077712556" type="line" smooth="yes"/>
      <point x="669.0" y="283.929155063717"/>
      <point x="674.6824035877144" y="277.7989898732233"/>
      <point x="688.0" y="277.7989898732233" type="curve" smooth="yes"/>
      <point x="720.6846788814194" y="277.7989898732233"/>
      <point x="756.0" y="313.2666025016066"/>
      <point x="756.0" y="372.3294731452727" type="curve" smooth="yes"/>
      <point x="756.0" y="483.9754961153281"/>
      <point x="640.4525375267536" y="558.0767311903867"/>
      <point x="469.0" y="558.0767311903867" type="curve" smooth="yes"/>
      <point x="291.11628223360134" y="558.0767311903867"/>
      <point x="164.00000000000003" y="470.4560150997159"/>
      <point x="164.0" y="341.9238815542512" type="curve" smooth="yes"/>
      <point x="163.99999999999997" y="168.79947860990842"/>
      <point x="398.7293191241554" y="85.77685221206323"/>
      <point x="649.4168243263863" y="171.30444569851144" type="curve" smooth="yes"/>
      <point x="654.6072303505263" y="173.0752676471528"/>
      <point x="660.0" y="169.2171431037185"/>
      <point x="660.0" y="163.7329726952412" type="curve" smooth="yes"/>
      <point x="660.0" y="75.34462504692274" type="line" smooth="yes"/>
      <point x="660.0" y="71.6333692235507"/>
      <point x="657.4475970340479" y="68.40941731094644"/>
      <point x="653.8353258709645" y="67.55799683264614" type="curve" smooth="yes"/>
      <point x="323.7191509858939" y="-10.251131780886436"/>
      <point x="38.999999999999986" y="112.13881452665184"/>
      <point x="39.0" y="339.8025612106915" type="curve" smooth="yes"/>
      <point x="39.00000000000001" y="517.4804387473976"/>
      <point x="222.76841767625032" y="644.7874093090415"/>
      <point x="472.0" y="644.7874093090415" type="curve" smooth="yes"/>
      <point x="712.3988521034339" y="644.7874093090415"/>
      <point x="880.0" y="534.9536546162996"/>
      <point x="880.0" y="377.9863273947651" type="curve" smooth="yes"/>
      <point x="880.0" y="259.52392802697864"/>
      <point x="773.2999998299456" y="191.08831175456856"/>
      <point x="663.0" y="191.08831175456856" type="curve" smooth="yes"/>
      <point x="602.9603574442201" y="191.08831175456856"/>
      <point x="566.072392053519" y="210.26119817817536"/>
    </contour>
    <contour>
      <point x="457.0" y="262.5060966544099" type="curve" smooth="yes"/>
      <point x="411.72222059754824" y="262.5060966544099"/>
      <point x="381.99999999999994" y="293.5091025089434"/>
      <point x="382.0" y="341.9238815542512" type="curve" smooth="yes"/>
      <point x="382.00000000000006" y="390.3386605995589"/>
      <point x="411.72222059754824" y="420.63455967290594"/>
      <point x="457.0" y="420.63455967290594" type="curve" smooth="yes"/>
      <point x="503.3589360174296" y="420.63455967290594"/>
      <point x="534.0" y="389.5339720213366"/>
      <point x="534.0" y="341.9238815542512" type="curve" smooth="yes"/>
      <point x="534.0" y="294.3137910871658"/>
      <point x="503.3589360174296" y="262.5060966544099"/>
    </contour>
    <contour>
      <point x="556.9941491941229" y="244.69152771046197" type="curve" smooth="yes"/>
      <point x="575.910380440942" y="223.29025508787223"/>
      <point x="609.0887409465658" y="207.08831175456856"/>
      <point x="663.0" y="207.08831175456856" type="curve" smooth="yes"/>
      <point x="764.7081231833646" y="207.08831175456856"/>
      <point x="864.0" y="268.7516190894923"/>
      <point x="864.0" y="377.9863273947651" type="curve" smooth="yes"/>
      <point x="864.0" y="527.9593371309844"/>
      <point x="701.6869037987802" y="628.7874093090415"/>
      <point x="472.0" y="628.7874093090415" type="curve" smooth="yes"/>
      <point x="233.16176755579434" y="628.7874093090415"/>
      <point x="55.00000000000001" y="510.0709911570237"/>
      <point x="55.0" y="339.8025612106915" type="curve" smooth="yes"/>
      <point x="54.999999999999986" y="120.53614687565182"/>
      <point x="332.2247691800727" y="8.192098994793344"/>
      <point x="650.1646741290355" y="83.13125326119935" type="curve"/>
      <point x="644.0" y="75.34462504692274" type="line"/>
      <point x="644.0" y="163.7329726952412" type="line"/>
      <point x="654.5831756736137" y="156.16149969197093" type="line"/>
      <point x="391.28071420566073" y="66.3300345367947"/>
      <point x="147.99999999999997" y="160.08760934498306"/>
      <point x="148.0" y="341.9238815542512" type="curve" smooth="yes"/>
      <point x="148.00000000000003" y="477.8703891633887"/>
      <point x="280.85506282506844" y="574.0767311903867"/>
      <point x="469.0" y="574.0767311903867" type="curve" smooth="yes"/>
      <point x="651.4341625115517" y="574.0767311903867"/>
      <point x="772.0" y="491.12648246401335"/>
      <point x="772.0" y="372.3294731452727" type="curve" smooth="yes"/>
      <point x="772.0" y="301.35952193888625"/>
      <point x="727.2739133762283" y="261.7989898732233"/>
      <point x="688.0" y="261.7989898732233" type="curve" smooth="yes"/>
      <point x="665.3358455246087" y="261.7989898732233"/>
      <point x="653.0" y="275.4843030912147"/>
      <point x="653.0" y="295.96194077712556" type="curve" smooth="yes"/>
      <point x="653.0" y="482.63813101037414" type="line"/>
      <point x="661.0" y="474.63813101037414" type="line"/>
      <point x="526.0" y="474.63813101037414" type="line"/>
      <point x="534.0" y="482.63813101037414" type="line"/>
      <point x="534.0" y="462.13203435596427" type="line" smooth="yes"/>
      <point x="534.0" y="455.8254830113983"/>
      <point x="527.0429632052198" y="451.9986826096661"/>
      <point x="521.7165723617078" y="455.3753896511189" type="curve" smooth="yes"/>
      <point x="493.9737578992894" y="472.9631633795666"/>
      <point x="458.4393558843814" y="481.7091988222396"/>
      <point x="424.0" y="481.7091988222396" type="curve" smooth="yes"/>
      <point x="340.2337391424663" y="481.7091988222396"/>
      <point x="258.0" y="433.46376777962007"/>
      <point x="258.0" y="341.9238815542512" type="curve" smooth="yes"/>
      <point x="258.0" y="251.5947441557784"/>
      <point x="335.4347338604001" y="201.4314575050762"/>
      <point x="426.0" y="201.4314575050762" type="curve" smooth="yes"/>
      <point x="470.8726348410601" y="201.4314575050762"/>
      <point x="514.9378904990092" y="216.16354709069142"/>
      <point x="545.4894716673906" y="245.19288769899612" type="curve" smooth="yes"/>
      <point x="548.7743178351918" y="248.31406554329283"/>
      <point x="553.993274651868" y="248.08662969177166"/>
    </contour>
  </outline>
</glyph>
<glyph name="A" format="2">
  <advance width="670"/>
  <unicode hex="0041"/>
  <outline>
    <contour>
      <point x="137.9366582409874" y="366.18620013972276" type="curve" smooth="yes"/>
      <point x="220.161186376092" y="520.8043121285501"/>
      <point x="248.1161466552859" y="570.1231033254572"/>
      <point x="250.01992531113893" y="597.0465992740952" type="curve" smooth="yes"/>
      <point x="250.31612174113152" y="601.2354493583152"/>
      <point x="253.80069084810245" y="604.4823227814084"/>
      <point x="258.0" y="604.4823227814084" type="curve" smooth="yes"/>
      <point x="412.0" y="604.4823227814084" type="line" smooth="yes"/>
      <point x="415.6601941584553" y="604.4823227814084"/>
      <point x="418.85357515468536" y="601.9982568706329"/>
      <point x="419.75409593092525" y="598.4505697918236" type="curve" smooth="yes"/>
      <point x="426.7093059332678" y="571.0498597729544"/>
      <point x="442.5022313003833" y="534.0428258397196"/>
      <point x="532.0581671934009" y="366.1959144627684" type="curve" smooth="yes"/>
      <point x="627.1230887210875" y="188.02398984823802"/>
      <point x="650.7390754241623" y="149.5180789567767"/>
      <point x="680.4879547245603" y="121.47056657542795" type="curve" smooth="yes"/>
      <point x="685.756785474299" y="116.50306530600865"/>
      <point x="682.2413152348918" y="107.64971157455597"/>
      <point x="675.0" y="107.64971157455597" type="curve" smooth="yes"/>
      <point x="456.0" y="107.64971157455597" type="line" smooth="yes"/>
      <point x="449.9221340321498" y="107.64971157455597"/>
      <point x="446.0641499308476" y="114.15996725875026"/>
      <point x="448.9826932463188" y="119.4912484967708" type="curve" smooth="yes"/>
      <point x="460.1973228738321" y="139.97692853022235"/>
      <point x="460.99967255686994" y="159.7501999915188"/>
      <point x="438.570413301843" y="215.9206129864666" type="curve"/>
      <point x="446.0" y="210.88730162779189" type="line"/>
      <point x="210.0" y="210.88730162779189" type="line"/>
      <point x="217.429586698157" y="215.9206129864666" type="line"/>
      <point x="195.00032744313023" y="159.7501999915188"/>
      <point x="195.80267712616777" y="139.97692853022235"/>
      <point x="207.01730675368123" y="119.4912484967708" type="curve" smooth="yes"/>
      <point x="209.9358500691524" y="114.15996725875024"/>
      <point x="206.0778659678502" y="107.64971157455597"/>
      <point x="200.0" y="107.64971157455597" type="curve" smooth="yes"/>
      <point x="-5.000000000000001" y="107.64971157455597" type="line" smooth="yes"/>
      <point x="-12.241315234892006" y="107.64971157455597"/>
      <point x="-15.756785474299242" y="116.50306530600847"/>
      <point x="-10.487954724560282" y="121.47056657542795" type="curve" smooth="yes"/>
      <point x="19.2758064564282" y="149.53210972835316"/>
      <point x="43.06952539593284" y="187.7944561798904"/>
    </contour>
    <contour>
      <point x="320.8838673645665" y="453.52706373237527" type="line"/>
      <point x="335.1161326354335" y="453.52706373237527" type="line"/>
      <point x="258.1161326354335" y="303.6204261208272" type="line"/>
      <point x="251.0" y="315.27564927611036" type="line"/>
      <point x="405.0" y="315.27564927611036" type="line"/>
      <point x="397.8838673645665" y="303.6204261208272" type="line"/>
    </contour>
    <contour>
      <point x="152.0633417590126" y="358.67375627759935" type="curve" smooth="yes"/>
      <point x="55.70640429413925" y="177.48052737436763"/>
      <point x="30.719129514253936" y="138.33108150305486"/>
      <point x="0.4879547245602813" y="109.82885657368398" type="curve"/>
      <point x="-4.999999999999999" y="123.64971157455597" type="line"/>
      <point x="200.0" y="123.64971157455597" type="line"/>
      <point x="192.98269324631877" y="111.80817465234114" type="line"/>
      <point x="180.22179534514157" y="135.1184113722161"/>
      <point x="177.04861749948859" y="157.9388250694601"/>
      <point x="202.570413301843" y="221.85399026911716" type="curve" smooth="yes"/>
      <point x="203.78415209397915" y="224.89360064800198"/>
      <point x="206.7270207591614" y="226.88730162779189"/>
      <point x="210.0" y="226.88730162779189" type="curve" smooth="yes"/>
      <point x="446.0" y="226.88730162779189" type="line" smooth="yes"/>
      <point x="449.27297924083865" y="226.88730162779189"/>
      <point x="452.2158479060208" y="224.893600648002"/>
      <point x="453.429586698157" y="221.85399026911716" type="curve" smooth="yes"/>
      <point x="478.9513825005114" y="157.9388250694601"/>
      <point x="475.77820465485854" y="135.1184113722161"/>
      <point x="463.0173067536812" y="111.80817465234114" type="curve"/>
      <point x="456.0" y="123.64971157455597" type="line"/>
      <point x="675.0" y="123.64971157455597" type="line"/>
      <point x="669.5120452754397" y="109.82885657368398" type="line"/>
      <point x="639.2808704857462" y="138.33108150305486"/>
      <point x="614.5479681185117" y="177.60355422162817"/>
      <point x="517.9418328065991" y="358.6640419545537" type="curve" smooth="yes"/>
      <point x="427.25073478836663" y="528.6384890970523"/>
      <point x="411.28927451426057" y="566.7660493190228"/>
      <point x="404.24590406907475" y="594.5140757709931" type="curve"/>
      <point x="412.0" y="588.4823227814084" type="line"/>
      <point x="258.0" y="588.4823227814084" type="line"/>
      <point x="265.98007468886107" y="595.9180462887215" type="line"/>
      <point x="263.891647719292" y="566.3832288448202"/>
      <point x="242.262862375283" y="528.2883456987673"/>
    </contour>
    <contour>
      <point x="335.1161326354335" y="460.83751004294163" type="curve" smooth="yes"/>
      <point x="412.1161326354335" y="310.93087243139354" type="line" smooth="yes"/>
      <point x="414.8507354469817" y="305.60703979915615"/>
      <point x="410.98508533214044" y="299.27564927611036"/>
      <point x="405.0" y="299.27564927611036" type="curve" smooth="yes"/>
      <point x="251.0" y="299.27564927611036" type="line" smooth="yes"/>
      <point x="245.01491466785953" y="299.27564927611036"/>
      <point x="241.14926455301833" y="305.60703979915615"/>
      <point x="243.88386736456653" y="310.93087243139354" type="curve" smooth="yes"/>
      <point x="320.8838673645665" y="460.83751004294163" type="line" smooth="yes"/>
      <point x="323.859477805603" y="466.63054583589735"/>
      <point x="332.140522194397" y="466.63054583589735"/>
    </contour>
  </outline>
</glyph>
<glyph name="B" format="2">
  <advance width="593"/>
  <unicode hex="0042"/>
  <outline>
    <contour>
      <point x="57.0" y="107.64971157455597" type="line" smooth="yes"/>
      <point x="50.51045962234185" y="107.64971157455597"/>
      <point x="46.72128946862031" y="114.96982619792267"/>
      <point x="50.46802735257819" y="120.26851372807297" type="curve" smooth="yes"/>
      <point x="69.85062114847968" y="147.67964074820546"/>
      <point x="75.99999999999999" y="188.36932163081988"/>
      <point x="76.0" y="362.42997820866105" type="curve" smooth="yes"/>
      <point x="76.00000000000001" y="526.5703035919665"/>
      <point x="69.86797100087271" y="565.112770271975"/>
      <point x="50.52384814342244" y="591.7855731467624" type="curve" smooth="yes"/>
      <point x="46.6881256389664" y="597.0744906643813"/>
      <point x="50.466592340947436" y="604.4823227814084"/>
      <point x="57.0" y="604.4823227814084" type="curve" smooth="yes"/>
      <point x="299.0" y="604.4823227814084" type="line" smooth="yes"/>
      <point x="452.88563694417377" y="604.4823227814084"/>
      <point x="544.0" y="547.1258158518563"/>
      <point x="544.0" y="464.9604614807105" type="curve" smooth="yes"/>
      <point x="544.0" y="418.1759262022497"/>
      <point x="512.482053460412" y="380.53148675076613"/>
      <point x="459.12453386353974" y="357.89380839022067" type="curve"/>
      <point x="458.6289424399602" y="372.81410924815776" type="line"/>
      <point x="525.4564205735561" y="349.56206080857527"/>
      <point x="564.0" y="308.2044390557368"/>
      <point x="564.0" y="254.94974746830582" type="curve" smooth="yes"/>
      <point x="564.0" y="168.42956440372194"/>
      <point x="467.319711543875" y="107.64971157455597"/>
      <point x="323.0" y="107.64971157455597" type="curve" smooth="yes"/>
    </contour>
    <contour>
      <point x="303.0" y="501.50818869546293" type="curve" smooth="yes"/>
      <point x="231.0" y="501.50818869546293" type="line"/>
      <point x="238.97672722341719" y="508.8984159482896" type="line"/>
      <point x="236.98554498690987" y="482.85081440105864"/>
      <point x="235.99375520314052" y="449.02697349599515"/>
      <point x="234.9981640848869" y="402.56368424958316" type="curve"/>
      <point x="227.0" y="410.73506473629425" type="line"/>
      <point x="303.0" y="410.73506473629425" type="line" smooth="yes"/>
      <point x="344.1080586168824" y="410.73506473629425"/>
      <point x="376.0" y="426.7002863158736"/>
      <point x="376.0" y="455.76807332528534" type="curve" smooth="yes"/>
      <point x="376.0" y="485.0983151304556"/>
      <point x="348.00937262077144" y="501.50818869546293"/>
    </contour>
    <contour>
      <point x="313.0" y="312.0035713374682" type="curve" smooth="yes"/>
      <point x="227.0" y="312.0035713374682" type="line"/>
      <point x="234.99849920268824" y="320.15852457104455" type="line"/>
      <point x="235.99508665925154" y="268.7158809246033"/>
      <point x="236.98689977573434" y="231.3758720964436"/>
      <point x="238.98007468886107" y="203.18812215318817" type="curve"/>
      <point x="231.0" y="210.6238456605013" type="line"/>
      <point x="313.0" y="210.6238456605013" type="line" smooth="yes"/>
      <point x="360.0782559400783" y="210.6238456605013"/>
      <point x="396.0" y="228.02435447731958"/>
      <point x="396.0" y="261.31370849898474" type="curve" smooth="yes"/>
      <point x="396.0" y="294.80299020013894"/>
      <point x="363.9354111967284" y="312.0035713374682"/>
    </contour>
    <contour>
      <point x="57.0" y="123.64971157455597" type="line"/>
      <point x="323.0" y="123.64971157455597" type="line" smooth="yes"/>
      <point x="454.5579655501556" y="123.64971157455597"/>
      <point x="548.0" y="176.0802767547139"/>
      <point x="548.0" y="254.94974746830582" type="curve" smooth="yes"/>
      <point x="548.0" y="302.03310780822625"/>
      <point x="512.4543446805095" y="337.1451778899591"/>
      <point x="453.3710575600398" y="357.7027014186568" type="curve" smooth="yes"/>
      <point x="446.45850125193243" y="360.1078661593662"/>
      <point x="446.13774962047717" y="369.7644312536953"/>
      <point x="452.87546613646026" y="372.62300227659387" type="curve" smooth="yes"/>
      <point x="499.4637204955132" y="392.3887246251519"/>
      <point x="528.0" y="424.11130196035714"/>
      <point x="528.0" y="464.9604614807105" type="curve" smooth="yes"/>
      <point x="528.0" y="539.6731627381804"/>
      <point x="438.92773120519837" y="588.4823227814084"/>
      <point x="299.0" y="588.4823227814084" type="curve" smooth="yes"/>
      <point x="57.0" y="588.4823227814084" type="line"/>
      <point x="63.47615185657756" y="601.1790724160543" type="line"/>
      <point x="84.10048853373092" y="572.7410361883697"/>
      <point x="92.00000000000001" y="537.4332780713361"/>
      <point x="92.0" y="362.42997820866105" type="curve" smooth="yes"/>
      <point x="91.99999999999999" y="177.49569267279813"/>
      <point x="84.12540373030336" y="140.15441895424573"/>
      <point x="63.53197264742181" y="111.03090942103896" type="curve"/>
    </contour>
    <contour>
      <point x="303.0" y="517.5081886954629" type="line" smooth="yes"/>
      <point x="359.86017397080906" y="517.5081886954629"/>
      <point x="392.0" y="492.8208593238673"/>
      <point x="392.0" y="455.76807332528534" type="curve" smooth="yes"/>
      <point x="392.0" y="418.4918441315396"/>
      <point x="355.7165488799231" y="394.73506473629425"/>
      <point x="303.0" y="394.73506473629425" type="curve" smooth="yes"/>
      <point x="227.0" y="394.73506473629425" type="line" smooth="yes"/>
      <point x="222.51463916992472" y="394.73506473629425"/>
      <point x="218.90574799984645" y="398.42211373564703"/>
      <point x="219.0018359151131" y="402.90644522300533" type="curve" smooth="yes"/>
      <point x="220.00602181441718" y="449.7708447150136"/>
      <point x="221.01490097797466" y="483.8454950607528"/>
      <point x="223.02327277658281" y="510.1179614426363" type="curve" smooth="yes"/>
      <point x="223.34201286254896" y="514.2875520527552"/>
      <point x="226.81824425648816" y="517.5081886954629"/>
      <point x="231.0" y="517.5081886954629" type="curve" smooth="yes"/>
    </contour>
    <contour>
      <point x="313.0" y="328.0035713374682" type="line" smooth="yes"/>
      <point x="375.9156988807975" y="328.0035713374682"/>
      <point x="412.0" y="302.6798526753048"/>
      <point x="412.0" y="261.31370849898474" type="curve" smooth="yes"/>
      <point x="412.0" y="219.76047087024122"/>
      <point x="371.76515221508106" y="194.6238456605013"/>
      <point x="313.0" y="194.6238456605013" type="curve" smooth="yes"/>
      <point x="231.0" y="194.6238456605013" type="line" smooth="yes"/>
      <point x="226.80069084810245" y="194.6238456605013"/>
      <point x="223.31612174113152" y="197.8707190835944"/>
      <point x="223.01992531113893" y="202.05956916781443" type="curve" smooth="yes"/>
      <point x="221.0125848808279" y="230.44764977627165"/>
      <point x="220.00517101246731" y="268.0403709934575"/>
      <point x="219.00150079731176" y="319.84861810389185" type="curve" smooth="yes"/>
      <point x="218.9147479653878" y="324.3266947529542"/>
      <point x="222.5210831076337" y="328.0035713374682"/>
      <point x="227.0" y="328.0035713374682" type="curve" smooth="yes"/>
    </contour>
  </outline>
</glyph>
<glyph name="C" format="2">
  <advance width="610"/>
  <unicode hex="0043"/>
  <outline>
    <contour>
      <point x="197.0" y="356.06601717798213" type="curve" smooth="yes"/>
      <point x="196.99999999999997" y="262.0390730143579"/>
      <point x="268.6385811214217" y="206.381204973382"/>
      <point x="371.0" y="206.381204973382" type="curve" smooth="yes"/>
      <point x="435.4110979355329" y="206.381204973382"/>
      <point x="496.9771431486352" y="226.42867335218912"/>
      <point x="545.773429463433" y="256.79235610811327" type="curve" smooth="yes"/>
      <point x="551.1023593250446" y="260.1083038567328"/>
      <point x="558.0" y="256.276384543792"/>
      <point x="558.0" y="250.0" type="curve" smooth="yes"/>
      <point x="558.0" y="131.20606076066" type="line" smooth="yes"/>
      <point x="558.0" y="127.72034804293122"/>
      <point x="555.7430471110606" y="124.63585505378329"/>
      <point x="552.4207452503638" y="123.58110224058649" type="curve" smooth="yes"/>
      <point x="502.6950195157281" y="107.79435217812873"/>
      <point x="439.9034544859749" y="99.16443020031737"/>
      <point x="378.0" y="99.16443020031738" type="curve" smooth="yes"/>
      <point x="161.7175183680041" y="99.16443020031741"/>
      <point x="28.999999999999993" y="203.89142277163486"/>
      <point x="29.0" y="354.651803615609" type="curve" smooth="yes"/>
      <point x="29.000000000000007" y="505.4121844595832"/>
      <point x="161.7175183680041" y="612.9676041556469"/>
      <point x="378.0" y="612.9676041556469" type="curve" smooth="yes"/>
      <point x="439.9034544859749" y="612.9676041556469"/>
      <point x="502.6950195157281" y="604.3376821778355"/>
      <point x="552.4207452503638" y="588.5509321153777" type="curve" smooth="yes"/>
      <point x="555.7430471110605" y="587.496179302181"/>
      <point x="558.0" y="584.4116863130329"/>
      <point x="558.0" y="580.9259735953042" type="curve" smooth="yes"/>
      <point x="558.0" y="462.13203435596427" type="line" smooth="yes"/>
      <point x="558.0" y="455.9032178867499"/>
      <point x="551.1957407057795" y="452.06384888033375"/>
      <point x="545.8639760363343" y="455.284165653077" type="curve" smooth="yes"/>
      <point x="499.01954117412856" y="483.57759731200633"/>
      <point x="434.4110979355329" y="506.45793616376875"/>
      <point x="370.0" y="506.45793616376875" type="curve" smooth="yes"/>
      <point x="267.6385811214217" y="506.45793616376875"/>
      <point x="197.00000000000003" y="450.0929613416064"/>
    </contour>
    <contour>
      <point x="181.0" y="356.06601717798213" type="curve" smooth="yes"/>
      <point x="181.00000000000003" y="458.5969512287548"/>
      <point x="258.3808042286324" y="522.4579361637687"/>
      <point x="370.0" y="522.4579361637687" type="curve" smooth="yes"/>
      <point x="437.58380650913404" y="522.4579361637687"/>
      <point x="504.98416468429537" y="498.6669891667506"/>
      <point x="554.1360239636657" y="468.9799030588515" type="curve"/>
      <point x="542.0" y="462.13203435596427" type="line"/>
      <point x="542.0" y="580.9259735953042" type="line"/>
      <point x="547.5792547496362" y="573.3010150752307" type="line"/>
      <point x="499.30364492608646" y="588.6273873933379"/>
      <point x="438.0982081476844" y="596.9676041556469"/>
      <point x="378.0" y="596.9676041556469" type="curve" smooth="yes"/>
      <point x="172.18263191567812" y="596.9676041556469"/>
      <point x="45.00000000000001" y="498.1174443025545"/>
      <point x="45.0" y="354.651803615609" type="curve" smooth="yes"/>
      <point x="44.99999999999999" y="211.18616292866363"/>
      <point x="172.18263191567812" y="115.16443020031741"/>
      <point x="378.0" y="115.16443020031738" type="curve" smooth="yes"/>
      <point x="438.0982081476844" y="115.16443020031737"/>
      <point x="499.30364492608646" y="123.50464696262628"/>
      <point x="547.5792547496362" y="138.8310192807335" type="curve"/>
      <point x="542.0" y="131.20606076066" type="line"/>
      <point x="542.0" y="250.0" type="line"/>
      <point x="554.226570536567" y="243.20764389188676" type="line"/>
      <point x="503.02671712055627" y="211.34833197121458"/>
      <point x="438.58380650913404" y="190.381204973382"/>
      <point x="371.0" y="190.381204973382" type="curve" smooth="yes"/>
      <point x="259.3808042286324" y="190.381204973382"/>
      <point x="180.99999999999997" y="253.53508312720953"/>
    </contour>
  </outline>
</glyph>
<glyph name="D" format="2">
  <advance width="691"/>
  <unicode hex="0044"/>
  <outline>
    <contour>
      <point x="57.0" y="107.64971157455597" type="line" smooth="yes"/>
      <point x="50.51045962234185" y="107.64971157455597"/>
      <point x="46.72128946862031" y="114.96982619792267"/>
      <point x="50.46802735257819" y="120.26851372807297" type="curve" smooth="yes"/>
      <point x="69.85062114847968" y="147.67964074820546"/>
      <point x="75.99999999999999" y="188.36932163081988"/>
      <point x="76.0" y="362.42997820866105" type="curve" smooth="yes"/>
      <point x="76.00000000000001" y="526.5703035919665"/>
      <point x="69.86797100087271" y="565.112770271975"/>
      <point x="50.52384814342244" y="591.7855731467624" type="curve" smooth="yes"/>
      <point x="46.6881256389664" y="597.0744906643813"/>
      <point x="50.466592340947436" y="604.4823227814084"/>
      <point x="57.0" y="604.4823227814084" type="curve" smooth="yes"/>
      <point x="311.0" y="604.4823227814084" type="line" smooth="yes"/>
      <point x="514.1600284382995" y="604.4823227814084"/>
      <point x="662.0" y="506.2332338460541"/>
      <point x="662.0" y="356.7731239591687" type="curve" smooth="yes"/>
      <point x="662.0" y="206.66253485282252"/>
      <point x="514.0584991887051" y="107.64971157455597"/>
      <point x="311.0" y="107.64971157455597" type="curve" smooth="yes"/>
    </contour>
    <contour>
      <point x="301.0" y="500.0939751330898" type="curve" smooth="yes"/>
      <point x="231.0" y="500.0939751330898" type="line"/>
      <point x="238.96760391641283" y="507.37474788724677" type="line"/>
      <point x="235.9823239483293" y="474.303797776882"/>
      <point x="235.00000000000009" y="428.5718784293905"/>
      <point x="235.0" y="362.42997820866105" type="curve" smooth="yes"/>
      <point x="234.99999999999991" y="289.21509818401194"/>
      <point x="235.98458123795993" y="239.91391263971713"/>
      <point x="238.97135459272081" y="204.71445108940506" type="curve"/>
      <point x="231.0" y="212.0380592228744" type="line"/>
      <point x="301.0" y="212.0380592228744" type="line" smooth="yes"/>
      <point x="419.8619938002363" y="212.0380592228744"/>
      <point x="494.0" y="267.9803500782287"/>
      <point x="494.0" y="356.7731239591687" type="curve" smooth="yes"/>
      <point x="494.0" y="444.888090405903"/>
      <point x="419.8619938002363" y="500.0939751330898"/>
    </contour>
    <contour>
      <point x="57.0" y="123.64971157455597" type="line"/>
      <point x="311.0" y="123.64971157455597" type="line" smooth="yes"/>
      <point x="503.8471169723216" y="123.64971157455597"/>
      <point x="646.0" y="214.21127871833713"/>
      <point x="646.0" y="356.7731239591687" type="curve" smooth="yes"/>
      <point x="646.0" y="498.6462646336193"/>
      <point x="503.8471169723216" y="588.4823227814084"/>
      <point x="311.0" y="588.4823227814084" type="curve" smooth="yes"/>
      <point x="57.0" y="588.4823227814084" type="line"/>
      <point x="63.47615185657756" y="601.1790724160543" type="line"/>
      <point x="84.10048853373092" y="572.7410361883697"/>
      <point x="92.00000000000001" y="537.4332780713361"/>
      <point x="92.0" y="362.42997820866105" type="curve" smooth="yes"/>
      <point x="91.99999999999999" y="177.49569267279813"/>
      <point x="84.12540373030336" y="140.15441895424573"/>
      <point x="63.53197264742181" y="111.03090942103896" type="curve"/>
    </contour>
    <contour>
      <point x="301.0" y="516.0939751330898" type="line" smooth="yes"/>
      <point x="430.0947035745539" y="516.0939751330898"/>
      <point x="510.0" y="452.47381944843045"/>
      <point x="510.0" y="356.7731239591687" type="curve" smooth="yes"/>
      <point x="510.0" y="260.3362692738357"/>
      <point x="430.0947035745539" y="196.0380592228744"/>
      <point x="301.0" y="196.0380592228744" type="curve" smooth="yes"/>
      <point x="231.0" y="196.0380592228744" type="line" smooth="yes"/>
      <point x="226.84392590105682" y="196.0380592228744"/>
      <point x="223.38003724693218" y="199.2204748118064"/>
      <point x="223.02864540727919" y="203.36166735634376" type="curve" smooth="yes"/>
      <point x="220.01608770936699" y="238.86500030483492"/>
      <point x="218.99999999999991" y="288.58304567579944"/>
      <point x="219.0" y="362.42997820866105" type="curve" smooth="yes"/>
      <point x="219.00000000000009" y="429.209617284796"/>
      <point x="220.01833210682602" y="475.42338284086543"/>
      <point x="223.03239608358717" y="508.8132023789329" type="curve" smooth="yes"/>
      <point x="223.40455785457698" y="512.9360127997224"/>
      <point x="226.86042633239154" y="516.0939751330898"/>
      <point x="231.0" y="516.0939751330898" type="curve" smooth="yes"/>
    </contour>
  </outline>
</glyph>
<glyph name="E" format="2">
  <advance width="549"/>
  <unicode hex="0045"/>
  <outline>
    <contour>
      <point x="57.0" y="107.64971157455597" type="line" smooth="yes"/>
      <point x="50.51045962234185" y="107.64971157455597"/>
      <point x="46.72128946862031" y="114.96982619792267"/>
      <point x="50.46802735257819" y="120.26851372807297" type="curve" smooth="yes"/>
      <point x="69.85062114847968" y="147.67964074820546"/>
      <point x="75.99999999999999" y="188.36932163081988"/>
      <point x="76.0" y="362.42997820866105" type="curve" smooth="yes"/>
      <point x="76.00000000000001" y="526.5703035919665"/>
      <point x="69.86797100087271" y="565.112770271975"/>
      <point x="50.52384814342244" y="591.7855731467624" type="curve" smooth="yes"/>
      <point x="46.6881256389664" y="597.0744906643813"/>
      <point x="50.466592340947436" y="604.4823227814084"/>
      <point x="57.0" y="604.4823227814084" type="curve" smooth="yes"/>
      <point x="476.0" y="604.4823227814084" type="line" smooth="yes"/>
      <point x="480.4182779986464" y="604.4823227814084"/>
      <point x="484.0" y="600.9006007800547"/>
      <point x="484.0" y="596.4823227814084" type="curve" smooth="yes"/>
      <point x="484.0" y="486.17366491630685" type="line" smooth="yes"/>
      <point x="484.0" y="480.6200612063809"/>
      <point x="478.4800506222513" y="476.756029168521"/>
      <point x="473.2618682973757" y="478.65684146626603" type="curve" smooth="yes"/>
      <point x="440.5544629505532" y="490.5710741319582"/>
      <point x="401.57361976095746" y="502.1970951475669"/>
      <point x="231.09865855933677" y="500.0945835006799" type="curve"/>
      <point x="238.97542236895265" y="507.46736677309946" type="line"/>
      <point x="236.98424013244534" y="482.12375445687474"/>
      <point x="235.99351076455832" y="449.02839246674085"/>
      <point x="234.9979196463047" y="405.3810601443538" type="curve"/>
      <point x="226.96464500620257" y="413.5634137371849" type="line"/>
      <point x="384.5204720058367" y="414.25971869772815"/>
      <point x="416.6353634526647" y="417.46435601707657"/>
      <point x="446.1770810150961" y="428.6052353857662" type="curve" smooth="yes"/>
      <point x="451.4093462259814" y="430.57844616527734"/>
      <point x="457.0" y="426.71181386694786"/>
      <point x="457.0" y="421.1198410471445" type="curve" smooth="yes"/>
      <point x="457.0" y="305.86143571373725" type="line" smooth="yes"/>
      <point x="457.0" y="300.33996275155016"/>
      <point x="451.53902796493423" y="296.478472393685"/>
      <point x="446.3333333333333" y="298.3189633810807" type="curve" smooth="yes"/>
      <point x="416.76205188227124" y="308.77399020229166"/>
      <point x="384.6781460785337" y="312.01375445442943"/>
      <point x="226.96464500620257" y="312.71075624251034" type="curve"/>
      <point x="234.99845723651057" y="320.86778265618165" type="line"/>
      <point x="235.99504469307388" y="270.129832758322"/>
      <point x="236.98689977573434" y="232.7900856588167"/>
      <point x="238.98007468886107" y="204.60233571556128" type="curve"/>
      <point x="231.09533347041204" y="212.0374911732956" type="line"/>
      <point x="406.0282902490729" y="209.95272240939892"/>
      <point x="454.6607029951105" y="219.82804539249682"/>
      <point x="490.0404021188846" y="239.98081011016492" type="curve" smooth="yes"/>
      <point x="495.907406050472" y="243.32273649052422"/>
      <point x="503.02045984350974" y="238.34182948823045"/>
      <point x="501.88634171640666" y="231.6857057559986" type="curve" smooth="yes"/>
      <point x="481.88634171640666" y="114.30598007903174" type="line" smooth="yes"/>
      <point x="481.2313107863865" y="110.46161253524681"/>
      <point x="477.8997727281202" y="107.64971157455597"/>
      <point x="474.0" y="107.64971157455597" type="curve" smooth="yes"/>
    </contour>
    <contour>
      <point x="57.0" y="123.64971157455597" type="line"/>
      <point x="474.0" y="123.64971157455597" type="line"/>
      <point x="466.11365828359334" y="116.99344307008019" type="line"/>
      <point x="486.11365828359334" y="234.37316874704706" type="line"/>
      <point x="497.9595978811154" y="226.07806439288075" type="line"/>
      <point x="461.35329043654116" y="205.22660665345063"/>
      <point x="411.90252000553875" y="193.88157992009837"/>
      <point x="230.90466652958796" y="196.03862727245323" type="curve" smooth="yes"/>
      <point x="226.7423139364191" y="196.0882322344361"/>
      <point x="223.3135358746335" y="199.32150232068756"/>
      <point x="223.01992531113893" y="203.47378273018754" type="curve" smooth="yes"/>
      <point x="221.0125848808279" y="231.86186333864475"/>
      <point x="220.00521297864498" y="269.45502848590485"/>
      <point x="219.00154276348943" y="320.55357358112786" type="curve" smooth="yes"/>
      <point x="218.91329654089824" y="325.0463377545269"/>
      <point x="222.54176812668643" y="328.7304590307091"/>
      <point x="227.03535499379743" y="328.71059999479917" type="curve" smooth="yes"/>
      <point x="389.24058660399265" y="327.9937473747023"/>
      <point x="421.25318573975505" y="324.15669734784717"/>
      <point x="451.6666666666667" y="313.4039080463938" type="curve"/>
      <point x="441.0" y="305.86143571373725" type="line"/>
      <point x="441.0" y="421.1198410471445" type="line"/>
      <point x="451.8229189849039" y="413.63444670852283" type="line"/>
      <point x="421.37859710655556" y="402.1531739358264"/>
      <point x="389.4050716783219" y="398.28114953318965"/>
      <point x="227.03535499379743" y="397.56356998489605" type="curve" smooth="yes"/>
      <point x="222.53182195415556" y="397.5436669926984"/>
      <point x="218.89938094283892" y="401.24351768762193"/>
      <point x="219.0020803536953" y="405.7459235777271" type="curve" smooth="yes"/>
      <point x="220.00676834594904" y="449.79206850028424"/>
      <point x="221.0152016465399" y="483.14540257030507"/>
      <point x="223.02457763104735" y="508.7205834930802" type="curve" smooth="yes"/>
      <point x="223.34864247544442" y="512.845255575392"/>
      <point x="226.76427310555846" y="516.0423432351395"/>
      <point x="230.90134144066323" y="516.0933667654997" type="curve" smooth="yes"/>
      <point x="404.40011230171825" y="518.2331718364889"/>
      <point x="445.4505768281196" y="505.81605043528685"/>
      <point x="478.7381317026243" y="493.69048836634767" type="curve"/>
      <point x="468.0" y="486.17366491630685" type="line"/>
      <point x="468.0" y="596.4823227814084" type="line"/>
      <point x="476.0" y="588.4823227814084" type="line"/>
      <point x="57.0" y="588.4823227814084" type="line"/>
      <point x="63.47615185657756" y="601.1790724160543" type="line"/>
      <point x="84.10048853373092" y="572.7410361883697"/>
      <point x="92.00000000000001" y="537.4332780713361"/>
      <point x="92.0" y="362.42997820866105" type="curve" smooth="yes"/>
      <point x="91.99999999999999" y="177.49569267279813"/>
      <point x="84.12540373030336" y="140.15441895424573"/>
      <point x="63.53197264742181" y="111.03090942103896" type="curve"/>
    </contour>
  </outline>
</glyph>
<glyph name="F" format="2">
  <advance width="521"/>
  <unicode hex="0046"/>
  <outline>
    <contour>
      <point x="57.0" y="107.64971157455597" type="line" smooth="yes"/>
      <point x="50.51045962234185" y="107.64971157455597"/>
      <point x="46.72128946862031" y="114.96982619792267"/>
      <point x="50.46802735257819" y="120.26851372807297" type="curve" smooth="yes"/>
      <point x="69.85062114847968" y="147.67964074820546"/>
      <point x="75.99999999999999" y="188.36932163081988"/>
      <point x="76.0" y="362.42997820866105" type="curve" smooth="yes"/>
      <point x="76.00000000000001" y="526.5703035919665"/>
      <point x="69.86797100087271" y="565.112770271975"/>
      <point x="50.52384814342244" y="591.7855731467624" type="curve" smooth="yes"/>
      <point x="46.6881256389664" y="597.0744906643813"/>
      <point x="50.466592340947436" y="604.4823227814084"/>
      <point x="57.0" y="604.4823227814084" type="curve" smooth="yes"/>
      <point x="476.0" y="604.4823227814084" type="line" smooth="yes"/>
      <point x="480.4182779986464" y="604.4823227814084"/>
      <point x="484.0" y="600.9006007800547"/>
      <point x="484.0" y="596.4823227814084" type="curve" smooth="yes"/>
      <point x="484.0" y="486.17366491630685" type="line" smooth="yes"/>
      <point x="484.0" y="480.6200612063809"/>
      <point x="478.4800506222513" y="476.756029168521"/>
      <point x="473.2618682973757" y="478.65684146626603" type="curve" smooth="yes"/>
      <point x="440.5544629505532" y="490.5710741319582"/>
      <point x="401.57361976095746" y="502.1970951475669"/>
      <point x="231.09865855933677" y="500.0945835006799" type="curve"/>
      <point x="238.95537616261805" y="507.25018006836825" type="line"/>
      <point x="235.9775111119939" y="479.1745991249714"/>
      <point x="235.0" y="442.65929145900884"/>
      <point x="235.0" y="391.4213562373095" type="curve"/>
      <point x="226.96464500620257" y="399.4212781134539" type="line"/>
      <point x="384.5204720058367" y="400.1175830739972"/>
      <point x="416.6353634526647" y="403.3222203933456"/>
      <point x="446.1770810150961" y="414.46309976203526" type="curve" smooth="yes"/>
      <point x="451.4093462259814" y="416.4363105415464"/>
      <point x="457.0" y="412.5696782432169"/>
      <point x="457.0" y="406.97770542341357" type="curve" smooth="yes"/>
      <point x="457.0" y="291.7193000900063" type="line" smooth="yes"/>
      <point x="457.0" y="286.1978271278192"/>
      <point x="451.53902796493423" y="282.3363367699541"/>
      <point x="446.3333333333333" y="284.17682775734977" type="curve" smooth="yes"/>
      <point x="416.76205188227124" y="294.6318545785607"/>
      <point x="384.6781460785337" y="297.8716188306985"/>
      <point x="226.96464500620257" y="298.5686206187794" type="curve"/>
      <point x="234.99908506075468" y="306.68953088614836" type="line"/>
      <point x="236.92194909763268" y="179.56036720707831"/>
      <point x="243.16399815004928" y="144.14947066268618"/>
      <point x="260.46977448195094" y="120.3552421666036" type="curve" smooth="yes"/>
      <point x="264.31559483460904" y="115.06750895712348"/>
      <point x="260.5383833383764" y="107.64971157455597"/>
      <point x="254.0" y="107.64971157455597" type="curve" smooth="yes"/>
    </contour>
    <contour>
      <point x="57.0" y="123.64971157455597" type="line"/>
      <point x="254.0" y="123.64971157455597" type="line"/>
      <point x="247.53022551804904" y="110.94418098250833" type="line"/>
      <point x="228.88436954207924" y="136.5809249856894"/>
      <point x="221.07267671435307" y="169.47409328670312"/>
      <point x="219.00091493924532" y="306.44755410369925" type="curve" smooth="yes"/>
      <point x="218.9331696062482" y="310.9265018409856"/>
      <point x="222.5559386963735" y="314.58826078131614"/>
      <point x="227.03535499379743" y="314.5684643710682" type="curve" smooth="yes"/>
      <point x="389.24058660399265" y="313.85161175097136"/>
      <point x="421.25318573975505" y="310.0145617241162"/>
      <point x="451.6666666666667" y="299.26177242266283" type="curve"/>
      <point x="441.0" y="291.7193000900063" type="line"/>
      <point x="441.0" y="406.97770542341357" type="line"/>
      <point x="451.8229189849039" y="399.4923110847919" type="line"/>
      <point x="421.37859710655556" y="388.0110383120954"/>
      <point x="389.4050716783219" y="384.1390139094587"/>
      <point x="227.03535499379743" y="383.4214343611651" type="curve" smooth="yes"/>
      <point x="222.60330692060066" y="383.4018472908707"/>
      <point x="219.0" y="386.98926488260463"/>
      <point x="219.0" y="391.4213562373095" type="curve" smooth="yes"/>
      <point x="219.0" y="443.4119214508047"/>
      <point x="220.02301716175043" y="480.44978925890996"/>
      <point x="223.04462383738195" y="508.9377701978114" type="curve" smooth="yes"/>
      <point x="223.472212567134" y="512.9691154026996"/>
      <point x="226.8476916269848" y="516.0433720572705"/>
      <point x="230.90134144066323" y="516.0933667654997" type="curve" smooth="yes"/>
      <point x="404.40011230171825" y="518.2331718364889"/>
      <point x="445.4505768281196" y="505.81605043528685"/>
      <point x="478.7381317026243" y="493.69048836634767" type="curve"/>
      <point x="468.0" y="486.17366491630685" type="line"/>
      <point x="468.0" y="596.4823227814084" type="line"/>
      <point x="476.0" y="588.4823227814084" type="line"/>
      <point x="57.0" y="588.4823227814084" type="line"/>
      <point x="63.47615185657756" y="601.1790724160543" type="line"/>
      <point x="84.10048853373092" y="572.7410361883697"/>
      <point x="92.00000000000001" y="537.4332780713361"/>
      <point x="92.0" y="362.42997820866105" type="curve" smooth="yes"/>
      <point x="91.99999999999999" y="177.49569267279813"/>
      <point x="84.12540373030336" y="140.15441895424573"/>
      <point x="63.53197264742181" y="111.03090942103896" type="curve"/>
    </contour>
  </outline>
</glyph>
<glyph name="G" format="2">
  <advance width="670"/>
  <unicode hex="0047"/>
  <outline>
    <contour>
      <point x="615.9998419799907" y="143.9842649776843" type="curve" smooth="yes"/>
      <point x="616.0221550695646" y="140.43427416461665"/>
      <point x="613.7022948897841" y="137.29419625641398"/>
      <point x="610.302440540997" y="136.27247072875758" type="curve" smooth="yes"/>
      <point x="529.5235064904462" y="111.99675460998726"/>
      <point x="454.7691973749191" y="97.04310985675771"/>
      <point x="375.0" y="97.04310985675775" type="curve" smooth="yes"/>
      <point x="162.71156902999024" y="97.04310985675787"/>
      <point x="28.999999999999993" y="208.23933473696644"/>
      <point x="29.0" y="351.82337649086287" type="curve" smooth="yes"/>
      <point x="29.000000000000007" y="503.2328621153132"/>
      <point x="170.80108236884817" y="612.9676041556469"/>
      <point x="388.0" y="612.9676041556469" type="curve" smooth="yes"/>
      <point x="455.68618344597" y="612.9676041556469"/>
      <point x="525.3163972721906" y="602.2846937411825"/>
      <point x="594.0128222621305" y="584.4259775817492" type="curve" smooth="yes"/>
      <point x="597.5386826504894" y="583.5093747177324"/>
      <point x="600.0" y="580.3263882589204"/>
      <point x="600.0" y="576.683332908185" type="curve" smooth="yes"/>
      <point x="600.0" y="457.88939366884495" type="line" smooth="yes"/>
      <point x="600.0" y="451.60004490173264"/>
      <point x="593.0768502665069" y="447.7702879070742"/>
      <point x="587.7489410832637" y="451.11233692668634" type="curve" smooth="yes"/>
      <point x="527.0605377572771" y="489.1804818333866"/>
      <point x="454.4980102604041" y="507.1650429449553"/>
      <point x="385.0" y="507.1650429449553" type="curve" smooth="yes"/>
      <point x="267.93970727952376" y="507.1650429449553"/>
      <point x="197.00000000000003" y="450.40287393511693"/>
      <point x="197.0" y="356.7731239591687" type="curve" smooth="yes"/>
      <point x="196.99999999999997" y="263.1433739832204"/>
      <point x="267.93970727952376" y="204.25988462982238"/>
      <point x="385.0" y="204.25988462982238" type="curve" smooth="yes"/>
      <point x="412.43509425366784" y="204.25988462982238"/>
      <point x="440.8703091219322" y="207.03076750298646"/>
      <point x="469.28522817037367" y="213.26633431382018" type="curve"/>
      <point x="463.0084198141501" y="205.08533119162342" type="line"/>
      <point x="458.1964489540878" y="309.8847097531037"/>
      <point x="450.93655443247883" y="337.3245654054168"/>
      <point x="435.5382476802796" y="358.42054420675373" type="curve" smooth="yes"/>
      <point x="431.6797446682354" y="363.70676814402873"/>
      <point x="435.45536792409433" y="371.1370849898476"/>
      <point x="442.0" y="371.1370849898476" type="curve" smooth="yes"/>
      <point x="620.0" y="371.1370849898476" type="line" smooth="yes"/>
      <point x="625.4025202629316" y="371.1370849898476"/>
      <point x="629.2517287910496" y="365.89257760791986"/>
      <point x="627.6319847360458" y="360.73858358506084" type="curve" smooth="yes"/>
      <point x="619.7265658889792" y="335.58369484809816"/>
      <point x="615.0116646241073" y="301.20231958370107"/>
    </contour>
    <contour>
      <point x="600.0001580200093" y="143.88370066635144" type="line"/>
      <point x="598.9889059819353" y="304.7729147288002"/>
      <point x="604.2779989593618" y="339.7933121446426"/>
      <point x="612.3680152639542" y="365.5355863946344" type="curve"/>
      <point x="620.0" y="355.1370849898476" type="line"/>
      <point x="442.0" y="355.1370849898476" type="line"/>
      <point x="448.4617523197204" y="367.8536257729415" type="line"/>
      <point x="465.02756361493493" y="345.1581431114547"/>
      <point x="473.8147641560954" y="318.5645153423866"/>
      <point x="478.9915801858499" y="205.81921437887155" type="curve" smooth="yes"/>
      <point x="479.1702635002968" y="201.92769033229877"/>
      <point x="476.5198526312533" y="198.47322456495542"/>
      <point x="472.71477182962633" y="197.6382112566748" type="curve" smooth="yes"/>
      <point x="443.12258499078763" y="191.14429664098725"/>
      <point x="413.5717666030167" y="188.25988462982238"/>
      <point x="385.0" y="188.25988462982238" type="curve" smooth="yes"/>
      <point x="258.0509435919493" y="188.25988462982238"/>
      <point x="180.99999999999997" y="255.23392450106599"/>
      <point x="181.0" y="356.7731239591687" type="curve" smooth="yes"/>
      <point x="181.00000000000003" y="458.3123234172714"/>
      <point x="258.0509435919493" y="523.1650429449553"/>
      <point x="385.0" y="523.1650429449553" type="curve" smooth="yes"/>
      <point x="457.4860616617357" y="523.1650429449553"/>
      <point x="532.9533712684599" y="504.3713266904201"/>
      <point x="596.2510589167363" y="464.66645041100355" type="curve"/>
      <point x="584.0" y="457.88939366884495" type="line"/>
      <point x="584.0" y="576.683332908185" type="line"/>
      <point x="589.9871777378695" y="568.9406882346208" type="line"/>
      <point x="522.6911451306506" y="586.4353503682659"/>
      <point x="454.3063850688773" y="596.9676041556469"/>
      <point x="388.0" y="596.9676041556469" type="curve" smooth="yes"/>
      <point x="181.20719415224528" y="596.9676041556469"/>
      <point x="45.00000000000001" y="495.9787558349571"/>
      <point x="45.0" y="351.82337649086287" type="curve" smooth="yes"/>
      <point x="44.99999999999999" y="215.3916564874571"/>
      <point x="173.28624810753558" y="113.04310985675787"/>
      <point x="375.0" y="113.04310985675775" type="curve" smooth="yes"/>
      <point x="453.22126616205566" y="113.04310985675771"/>
      <point x="526.4861506873011" y="127.79085209210885"/>
      <point x="605.697559459003" y="151.59549491527815" type="curve"/>
    </contour>
  </outline>
</glyph>
<glyph name="H" format="2">
  <advance width="703"/>
  <unicode hex="0048"/>
  <outline>
    <contour>
      <point x="57.0" y="107.64971157455597" type="line" smooth="yes"/>
      <point x="50.51045962234185" y="107.64971157455597"/>
      <point x="46.72128946862031" y="114.96982619792267"/>
      <point x="50.46802735257819" y="120.26851372807297" type="curve" smooth="yes"/>
      <point x="69.85062114847968" y="147.67964074820546"/>
      <point x="75.99999999999999" y="188.36932163081988"/>
      <point x="76.0" y="362.42997820866105" type="curve" smooth="yes"/>
      <point x="76.00000000000001" y="526.5703035919665"/>
      <point x="69.86797100087271" y="565.112770271975"/>
      <point x="50.52384814342244" y="591.7855731467624" type="curve" smooth="yes"/>
      <point x="46.6881256389664" y="597.0744906643813"/>
      <point x="50.466592340947436" y="604.4823227814084"/>
      <point x="57.0" y="604.4823227814084" type="curve" smooth="yes"/>
      <point x="254.0" y="604.4823227814084" type="line" smooth="yes"/>
      <point x="260.53838333837643" y="604.4823227814084"/>
      <point x="264.3155948346091" y="597.0645253988409"/>
      <point x="260.469774481951" y="591.7767921893608" type="curve" smooth="yes"/>
      <point x="243.14667938572683" y="567.958751607206"/>
      <point x="236.92382245208057" y="534.9498456814568"/>
      <point x="234.99903410805564" y="411.09603465425266" type="curve"/>
      <point x="227.0" y="419.22034611053283" type="line"/>
      <point x="476.0" y="419.22034611053283" type="line"/>
      <point x="468.00096589194436" y="411.09603465425266" type="line"/>
      <point x="466.07617754791954" y="534.9498456814568"/>
      <point x="459.85332061427323" y="567.958751607206"/>
      <point x="442.53022551804906" y="591.7767921893608" type="curve" smooth="yes"/>
      <point x="438.68440516539096" y="597.0645253988409"/>
      <point x="442.46161666162357" y="604.4823227814084"/>
      <point x="449.0" y="604.4823227814084" type="curve" smooth="yes"/>
      <point x="646.0" y="604.4823227814084" type="line" smooth="yes"/>
      <point x="652.5334076590527" y="604.4823227814084"/>
      <point x="656.3118743610337" y="597.0744906643815"/>
      <point x="652.4761518565775" y="591.7855731467624" type="curve" smooth="yes"/>
      <point x="633.1320289991271" y="565.112770271975"/>
      <point x="627.0" y="526.5703035919665"/>
      <point x="627.0" y="362.42997820866105" type="curve" smooth="yes"/>
      <point x="627.0" y="188.36932163081988"/>
      <point x="633.1493788515204" y="147.67964074820546"/>
      <point x="652.5319726474218" y="120.26851372807297" type="curve" smooth="yes"/>
      <point x="656.2787105313796" y="114.96982619792264"/>
      <point x="652.4895403776582" y="107.64971157455597"/>
      <point x="646.0" y="107.64971157455597" type="curve" smooth="yes"/>
      <point x="449.0" y="107.64971157455597" type="line" smooth="yes"/>
      <point x="442.55733949042343" y="107.64971157455597"/>
      <point x="438.75745085623436" y="114.87636722744823"/>
      <point x="442.40919045555364" y="120.18416077471632" type="curve" smooth="yes"/>
      <point x="459.83632380382386" y="145.51445156285806"/>
      <point x="467.032016281181" y="181.1294693932167"/>
      <point x="468.0001903560849" y="321.47297240859655" type="curve"/>
      <point x="476.0" y="313.4177848998413" type="line"/>
      <point x="227.0" y="313.4177848998413" type="line"/>
      <point x="234.9998096439151" y="321.47297240859655" type="line"/>
      <point x="235.967983718819" y="181.1294693932167"/>
      <point x="243.16367619617617" y="145.51445156285806"/>
      <point x="260.59080954444636" y="120.18416077471632" type="curve" smooth="yes"/>
      <point x="264.2425491437657" y="114.8763672274481"/>
      <point x="260.4426605095767" y="107.64971157455597"/>
      <point x="254.0" y="107.64971157455597" type="curve" smooth="yes"/>
    </contour>
    <contour>
      <point x="57.0" y="123.64971157455597" type="line"/>
      <point x="254.0" y="123.64971157455597" type="line"/>
      <point x="247.40919045555364" y="111.11526237439561" type="line"/>
      <point x="228.85656375946363" y="138.08145467374163"/>
      <point x="220.03089183920102" y="171.9553157325471"/>
      <point x="219.0001903560849" y="321.36259739108607" type="curve" smooth="yes"/>
      <point x="218.96956235342475" y="325.80233740799923"/>
      <point x="222.56015433913217" y="329.4177848998413"/>
      <point x="227.0" y="329.4177848998413" type="curve" smooth="yes"/>
      <point x="476.0" y="329.4177848998413" type="line" smooth="yes"/>
      <point x="480.4398456608678" y="329.4177848998413"/>
      <point x="484.03043764657525" y="325.8023374079992"/>
      <point x="483.9998096439151" y="321.36259739108607" type="curve" smooth="yes"/>
      <point x="482.969108160799" y="171.9553157325471"/>
      <point x="474.14343624053635" y="138.08145467374163"/>
      <point x="455.59080954444636" y="111.11526237439561" type="curve"/>
      <point x="449.0" y="123.64971157455597" type="line"/>
      <point x="646.0" y="123.64971157455597" type="line"/>
      <point x="639.4680273525782" y="111.03090942103896" type="line"/>
      <point x="618.8745962696968" y="140.15441895424573"/>
      <point x="611.0" y="177.49569267279813"/>
      <point x="611.0" y="362.42997820866105" type="curve" smooth="yes"/>
      <point x="611.0" y="537.4332780713361"/>
      <point x="618.8995114662691" y="572.7410361883697"/>
      <point x="639.5238481434225" y="601.1790724160543" type="curve"/>
      <point x="646.0" y="588.4823227814084" type="line"/>
      <point x="449.0" y="588.4823227814084" type="line"/>
      <point x="455.46977448195094" y="601.1878533734559" type="line"/>
      <point x="474.10631218906724" y="575.5639213362933"/>
      <point x="481.9283076961538" y="544.5891041600582"/>
      <point x="483.99903410805564" y="411.344657566813" type="curve" smooth="yes"/>
      <point x="484.0684450426564" y="406.8782917952462"/>
      <point x="480.4669050900222" y="403.22034611053283"/>
      <point x="476.0" y="403.22034611053283" type="curve" smooth="yes"/>
      <point x="227.0" y="403.22034611053283" type="line" smooth="yes"/>
      <point x="222.53309490997793" y="403.22034611053283"/>
      <point x="218.9315549573436" y="406.8782917952463"/>
      <point x="219.00096589194436" y="411.344657566813" type="curve" smooth="yes"/>
      <point x="221.07169230384616" y="544.5891041600582"/>
      <point x="228.8936878109328" y="575.5639213362933"/>
      <point x="247.53022551804904" y="601.1878533734559" type="curve"/>
      <point x="254.0" y="588.4823227814084" type="line"/>
      <point x="57.0" y="588.4823227814084" type="line"/>
      <point x="63.47615185657756" y="601.1790724160543" type="line"/>
      <point x="84.10048853373092" y="572.7410361883697"/>
      <point x="92.00000000000001" y="537.4332780713361"/>
      <point x="92.0" y="362.42997820866105" type="curve" smooth="yes"/>
      <point x="91.99999999999999" y="177.49569267279813"/>
      <point x="84.12540373030336" y="140.15441895424573"/>
      <point x="63.53197264742181" y="111.03090942103896" type="curve"/>
    </contour>
  </outline>
</glyph>
<glyph name="I" format="2">
  <advance width="319"/>
  <unicode hex="0049"/>
  <outline>
    <contour>
      <point x="61.0" y="107.64971157455597" type="line" smooth="yes"/>
      <point x="54.51045962234185" y="107.64971157455597"/>
      <point x="50.72128946862031" y="114.96982619792267"/>
      <point x="54.46802735257819" y="120.26851372807297" type="curve" smooth="yes"/>
      <point x="73.85062114847968" y="147.67964074820546"/>
      <point x="79.99999999999999" y="188.36932163081988"/>
      <point x="80.0" y="362.42997820866105" type="curve" smooth="yes"/>
      <point x="80.00000000000001" y="526.5703035919665"/>
      <point x="73.86797100087271" y="565.112770271975"/>
      <point x="54.52384814342244" y="591.7855731467624" type="curve" smooth="yes"/>
      <point x="50.6881256389664" y="597.0744906643813"/>
      <point x="54.466592340947436" y="604.4823227814084"/>
      <point x="61.0" y="604.4823227814084" type="curve" smooth="yes"/>
      <point x="258.0" y="604.4823227814084" type="line" smooth="yes"/>
      <point x="264.5334076590527" y="604.4823227814084"/>
      <point x="268.3118743610337" y="597.0744906643815"/>
      <point x="264.47615185657753" y="591.7855731467624" type="curve" smooth="yes"/>
      <point x="245.13202899912727" y="565.112770271975"/>
      <point x="239.00000000000003" y="526.5703035919665"/>
      <point x="239.0" y="362.42997820866105" type="curve" smooth="yes"/>
      <point x="238.99999999999997" y="188.36932163081988"/>
      <point x="245.14937885152037" y="147.67964074820546"/>
      <point x="264.5319726474218" y="120.26851372807297" type="curve" smooth="yes"/>
      <point x="268.2787105313797" y="114.96982619792267"/>
      <point x="264.48954037765816" y="107.64971157455597"/>
      <point x="258.0" y="107.64971157455597" type="curve" smooth="yes"/>
    </contour>
    <contour>
      <point x="61.0" y="123.64971157455597" type="line"/>
      <point x="258.0" y="123.64971157455597" type="line"/>
      <point x="251.4680273525782" y="111.03090942103896" type="line"/>
      <point x="230.87459626969664" y="140.15441895424573"/>
      <point x="222.99999999999997" y="177.49569267279813"/>
      <point x="223.0" y="362.42997820866105" type="curve" smooth="yes"/>
      <point x="223.00000000000003" y="537.4332780713361"/>
      <point x="230.89951146626908" y="572.7410361883697"/>
      <point x="251.52384814342244" y="601.1790724160543" type="curve"/>
      <point x="258.0" y="588.4823227814084" type="line"/>
      <point x="61.0" y="588.4823227814084" type="line"/>
      <point x="67.47615185657756" y="601.1790724160543" type="line"/>
      <point x="88.10048853373092" y="572.7410361883697"/>
      <point x="96.00000000000001" y="537.4332780713361"/>
      <point x="96.0" y="362.42997820866105" type="curve" smooth="yes"/>
      <point x="95.99999999999999" y="177.49569267279813"/>
      <point x="88.12540373030336" y="140.15441895424573"/>
      <point x="67.53197264742181" y="111.03090942103896" type="curve"/>
    </contour>
  </outline>
</glyph>
<glyph name="K" format="2">
  <advance width="658"/>
  <unicode hex="004B"/>
  <outline>
    <contour>
      <point x="57.0" y="107.64971157455597" type="line" smooth="yes"/>
      <point x="50.51045962234185" y="107.64971157455597"/>
      <point x="46.72128946862031" y="114.96982619792267"/>
      <point x="50.46802735257819" y="120.26851372807297" type="curve" smooth="yes"/>
      <point x="69.85062114847968" y="147.67964074820546"/>
      <point x="75.99999999999999" y="188.36932163081988"/>
      <point x="76.0" y="362.42997820866105" type="curve" smooth="yes"/>
      <point x="76.00000000000001" y="526.5703035919665"/>
      <point x="69.86797100087271" y="565.112770271975"/>
      <point x="50.52384814342244" y="591.7855731467624" type="curve" smooth="yes"/>
      <point x="46.6881256389664" y="597.0744906643813"/>
      <point x="50.466592340947436" y="604.4823227814084"/>
      <point x="57.0" y="604.4823227814084" type="curve" smooth="yes"/>
      <point x="254.0" y="604.4823227814084" type="line" smooth="yes"/>
      <point x="260.53838333837643" y="604.4823227814084"/>
      <point x="264.3155948346091" y="597.0645253988409"/>
      <point x="260.469774481951" y="591.7767921893608" type="curve" smooth="yes"/>
      <point x="243.15534093327494" y="567.9706606274971"/>
      <point x="236.92286005790857" y="534.1808119947566"/>
      <point x="234.99903410805564" y="410.3889278730661" type="curve"/>
      <point x="222.19569725444774" y="416.9100100090783" type="line"/>
      <point x="391.52253035265676" y="544.0831431224693"/>
      <point x="429.1331737441094" y="575.3033818581536"/>
      <point x="439.65631026433715" y="599.6556839436967" type="curve" smooth="yes"/>
      <point x="440.92229174250633" y="602.5853773228348"/>
      <point x="443.80847804349816" y="604.4823227814084"/>
      <point x="447.0" y="604.4823227814084" type="curve" smooth="yes"/>
      <point x="660.0" y="604.4823227814084" type="line" smooth="yes"/>
      <point x="668.4984767928484" y="604.4823227814084"/>
      <point x="671.1342967513806" y="592.9821022668156"/>
      <point x="663.4841310928986" y="589.2808763622855" type="curve" smooth="yes"/>
      <point x="606.650229117801" y="561.7840717653128"/>
      <point x="558.1303863030432" y="527.354616574019"/>
      <point x="328.8006064035269" y="355.3233262750112" type="curve"/>
      <point x="329.03001937829094" y="367.9437158278769" type="line"/>
      <point x="551.3801972808653" y="188.1569165399794"/>
      <point x="617.7958554520069" y="150.27121419386071"/>
      <point x="671.6384994284149" y="122.77440959688819" type="curve" smooth="yes"/>
      <point x="679.1238256622829" y="118.95174158512702"/>
      <point x="676.4049330488455" y="107.64971157455597"/>
      <point x="668.0" y="107.64971157455597" type="curve" smooth="yes"/>
      <point x="435.0" y="107.64971157455597" type="line" smooth="yes"/>
      <point x="431.83854519643546" y="107.64971157455597"/>
      <point x="428.97361223967994" y="109.51151582684264"/>
      <point x="427.68956913344573" y="112.40046542424193" type="curve" smooth="yes"/>
      <point x="417.1085264092548" y="136.20659698610544"/>
      <point x="376.9066584744262" y="171.49728483308854"/>
      <point x="222.03866951126832" y="293.92881857981547" type="curve"/>
      <point x="234.99901252854033" y="300.3302738198388" type="line"/>
      <point x="236.9324576081425" y="177.28658240437832"/>
      <point x="244.15988726016192" y="144.1044340654575"/>
      <point x="260.59417043678025" y="120.17927184578465" type="curve" smooth="yes"/>
      <point x="264.24044481920043" y="114.8709961419221"/>
      <point x="260.4399617871623" y="107.64971157455597"/>
      <point x="254.0" y="107.64971157455597" type="curve" smooth="yes"/>
    </contour>
    <contour>
      <point x="57.0" y="123.64971157455597" type="line"/>
      <point x="254.0" y="123.64971157455597" type="line"/>
      <point x="247.40582956321975" y="111.12015130332728" type="line"/>
      <point x="229.85760831879227" y="136.66699356152603"/>
      <point x="221.06548408845111" y="168.69512892362897"/>
      <point x="219.00098747145967" y="300.07888910865097" type="curve" smooth="yes"/>
      <point x="218.89501239826646" y="306.82310146890046"/>
      <point x="226.67004266237205" y="310.66339397961326"/>
      <point x="231.96133048873168" y="306.4803443486743" type="curve" smooth="yes"/>
      <point x="398.15330815654494" y="175.09658416365232"/>
      <point x="430.95569947310116" y="144.44579998306875"/>
      <point x="442.31043086655427" y="118.89895772487" type="curve"/>
      <point x="435.0" y="123.64971157455597" type="line"/>
      <point x="668.0" y="123.64971157455597" type="line"/>
      <point x="664.3615005715851" y="108.52501355222374" type="line"/>
      <point x="610.1903945062197" y="136.18955987230947"/>
      <point x="542.6765852990518" y="174.61845493420375"/>
      <point x="318.96998062170906" y="355.50202702707213" type="curve" smooth="yes"/>
      <point x="314.9170390302342" y="358.77913435077903"/>
      <point x="315.0300266993904" y="364.99477407598835"/>
      <point x="319.1993935964731" y="368.1224165799378" type="curve" smooth="yes"/>
      <point x="549.9281786896963" y="541.2031679158589"/>
      <point x="599.3352569492154" y="576.0192228804456"/>
      <point x="656.5158689071014" y="603.6837692005312" type="curve"/>
      <point x="660.0" y="588.4823227814084" type="line"/>
      <point x="447.0" y="588.4823227814084" type="line"/>
      <point x="454.34368973566285" y="593.30896161912" type="line"/>
      <point x="442.90318359128787" y="566.8337124285581"/>
      <point x="415.89244706867726" y="542.3761033114378"/>
      <point x="231.80430274555226" y="404.11646864961426" type="curve" smooth="yes"/>
      <point x="226.48518148872253" y="400.1215358721924"/>
      <point x="218.89759690426712" y="403.98609577988793"/>
      <point x="219.00096589194436" y="410.63755078562644" type="curve" smooth="yes"/>
      <point x="221.0727276670521" y="543.9486196021682"/>
      <point x="228.88436954207924" y="575.5511093702747"/>
      <point x="247.53022551804904" y="601.1878533734559" type="curve"/>
      <point x="254.0" y="588.4823227814084" type="line"/>
      <point x="57.0" y="588.4823227814084" type="line"/>
      <point x="63.47615185657756" y="601.1790724160543" type="line"/>
      <point x="84.10048853373092" y="572.7410361883697"/>
      <point x="92.00000000000001" y="537.4332780713361"/>
      <point x="92.0" y="362.42997820866105" type="curve" smooth="yes"/>
      <point x="91.99999999999999" y="177.49569267279813"/>
      <point x="84.12540373030336" y="140.15441895424573"/>
      <point x="63.53197264742181" y="111.03090942103896" type="curve"/>
    </contour>
  </outline>
</glyph>
<glyph name="L" format="2">
  <advance width="504"/>
  <unicode hex="004C"/>
  <outline>
    <contour>
      <point x="57.0" y="107.64971157455597" type="line" smooth="yes"/>
      <point x="50.51045962234185" y="107.64971157455597"/>
      <point x="46.72128946862031" y="114.96982619792267"/>
      <point x="50.46802735257819" y="120.26851372807297" type="curve" smooth="yes"/>
      <point x="69.85062114847968" y="147.67964074820546"/>
      <point x="75.99999999999999" y="188.36932163081988"/>
      <point x="76.0" y="362.42997820866105" type="curve" smooth="yes"/>
      <point x="76.00000000000001" y="526.5703035919665"/>
      <point x="69.86797100087271" y="565.112770271975"/>
      <point x="50.52384814342244" y="591.7855731467624" type="curve" smooth="yes"/>
      <point x="46.6881256389664" y="597.0744906643813"/>
      <point x="50.466592340947436" y="604.4823227814084"/>
      <point x="57.0" y="604.4823227814084" type="curve" smooth="yes"/>
      <point x="254.0" y="604.4823227814084" type="line" smooth="yes"/>
      <point x="260.5334076590527" y="604.4823227814084"/>
      <point x="264.3118743610337" y="597.0744906643815"/>
      <point x="260.47615185657753" y="591.7855731467624" type="curve" smooth="yes"/>
      <point x="241.13202899912727" y="565.112770271975"/>
      <point x="235.00000000000003" y="526.5703035919665"/>
      <point x="235.0" y="362.42997820866105" type="curve" smooth="yes"/>
      <point x="235.0" y="292.73504433904316"/>
      <point x="235.9834067029891" y="244.17337309613256"/>
      <point x="238.97018005774999" y="209.6779007768267" type="curve"/>
      <point x="231.0694066423275" y="216.9875056053895" type="line"/>
      <point x="390.9406794954992" y="215.600437370403"/>
      <point x="440.7328848662011" y="224.10912210587202"/>
      <point x="475.06107228866136" y="243.5280773956835" type="curve" smooth="yes"/>
      <point x="480.91259866262914" y="246.83820057914315"/>
      <point x="487.9898543737462" y="241.89224013262046"/>
      <point x="486.892760137902" y="235.25946841692007" type="curve" smooth="yes"/>
      <point x="466.892760137902" y="114.34420883402045" type="line" smooth="yes"/>
      <point x="466.2539731348884" y="110.48225401964196"/>
      <point x="462.91442764954473" y="107.64971157455597"/>
      <point x="459.0" y="107.64971157455597" type="curve" smooth="yes"/>
    </contour>
    <contour>
      <point x="57.0" y="123.64971157455597" type="line"/>
      <point x="459.0" y="123.64971157455597" type="line"/>
      <point x="451.107239862098" y="116.95521431509148" type="line"/>
      <point x="471.107239862098" y="237.87047389799113" type="line"/>
      <point x="482.93892771133864" y="229.6018649192277" type="line"/>
      <point x="447.2782298070872" y="209.42912787127483"/>
      <point x="397.0075578831865" y="199.54719798783154"/>
      <point x="230.9305933576725" y="200.98810777697096" type="curve" smooth="yes"/>
      <point x="226.8065705012003" y="201.02388844602103"/>
      <point x="223.3855788042826" y="204.18890737662983"/>
      <point x="223.02981994225001" y="208.29771260553375" type="curve" smooth="yes"/>
      <point x="220.01575596548886" y="243.10837552819984"/>
      <point x="219.0" y="292.0982306710295"/>
      <point x="219.0" y="362.42997820866105" type="curve" smooth="yes"/>
      <point x="219.00000000000003" y="537.4332780713361"/>
      <point x="226.89951146626908" y="572.7410361883697"/>
      <point x="247.52384814342244" y="601.1790724160543" type="curve"/>
      <point x="254.0" y="588.4823227814084" type="line"/>
      <point x="57.0" y="588.4823227814084" type="line"/>
      <point x="63.47615185657756" y="601.1790724160543" type="line"/>
      <point x="84.10048853373092" y="572.7410361883697"/>
      <point x="92.00000000000001" y="537.4332780713361"/>
      <point x="92.0" y="362.42997820866105" type="curve" smooth="yes"/>
      <point x="91.99999999999999" y="177.49569267279813"/>
      <point x="84.12540373030336" y="140.15441895424573"/>
      <point x="63.53197264742181" y="111.03090942103896" type="curve"/>
    </contour>
  </outline>
</glyph>
